<?xml version="1.0" encoding="utf-8"?>
<!-- Generator: Adobe Illustrator 22.0.1, SVG Export Plug-In . SVG Version: 6.00 Build 0)  -->
<svg version="1.1" id="Layer_1" xmlns="http://www.w3.org/2000/svg" xmlns:xlink="http://www.w3.org/1999/xlink" x="0px" y="0px"
	 viewBox="0 0 124.9 124.9" style="enable-background:new 0 0 124.9 124.9;" xml:space="preserve">
<style type="text/css">
	.st0{fill:url(#SVGID_1_);}
	.st1{opacity:0.25;}
	.st2{fill:#FFFFFF;}
</style>
<g>
	<g>
		<linearGradient id="SVGID_1_" gradientUnits="userSpaceOnUse" x1="62.45" y1="124.8992" x2="62.45" y2="8.220021e-04">
			<stop  offset="0" style="stop-color:#474D5B"/>
			<stop  offset="1" style="stop-color:#737E93"/>
		</linearGradient>
		<path class="st0" d="M110.2,0H14.7C6.6,0,0,6.6,0,14.7v95.5c0,8.1,6.6,14.7,14.7,14.7h95.5c8.1,0,14.7-6.6,14.7-14.7V14.7
			C124.9,6.6,118.3,0,110.2,0z"/>
	</g>
	<path class="st1" d="M124.9,110.2V74.7L106,55.9l-7.6,0.7l-1-12.2l-13.9-3.9c0,0,1.2-8.7-2.1-10.1c-3.3-1.3-57.9-3.7-59.2,0.2
		c-1.2,3.9-4.6,40,0,44.5c0.8,0.8,1.7,1.9,2.8,3.3l-4.5,3l43.3,43.5h46.4C118.3,124.9,124.9,118.3,124.9,110.2z"/>
	<path class="st2" d="M107.1,58.9c0-2.6-1.1-3.7-3.7-3.7c-1,0-1.9,0-2.9,0c0-3.3,0-9.6,0-11.9c0-3-1.7-4.7-4.7-4.7
		c-3.1,0-6.1,0-9.2,0c0-1.6-0.1-4.9-0.3-5.7c-0.8-3.8-3.8-6.2-7.9-6.2c-8.7,0-43.8,0-52.6,0c-4.6,0-8,3.3-8,7.9
		c0,13.6,0,27.2,0,40.8c0,4.5,3.4,7.8,7.8,7.8c2.7,0,11.9,0,20.3,0c0,1.8-0.1,5.8-0.2,6.7c-0.4,3.4-2.4,5.2-5.8,5.3
		c-0.5,0-1,0-1.4,0.3c-0.5,0.2-0.8,0.6-0.8,1.1c0,0.6,0.4,1,0.9,1.2c0.6,0.2,1.2,0.3,1.9,0.3c5.5,0,10.9,0,16.4,0h1.3
		c-1.5-1.9-1.6-3.9-1.6-6c0-1.6,0-6.6,0-8.9h2.3c0,3.4,0,6.7-0.1,10.1c0,3.3,2.2,4.9,4.9,4.8c2.7,0,33.7,0,39.7,0
		c2.6,0,3.7-1.2,3.7-3.7C107.1,88.5,107.1,64.8,107.1,58.9z M96.8,58.8c0,0.5-0.2,0.7-0.7,0.7c-0.6,0-1.1,0-1.7,0v0
		c-0.5,0-1.1,0-1.6,0c-0.5,0-0.8-0.2-0.8-0.8c0-0.5,0.2-0.8,0.8-0.8c1.1,0,2.2,0,3.3,0C96.6,58,96.8,58.3,96.8,58.8z M52.1,80.4
		c-2,0-3.6-1.6-3.6-3.6c0-2,1.6-3.6,3.6-3.6s3.6,1.6,3.6,3.6C55.7,78.8,54.1,80.4,52.1,80.4z M58.8,43.1c0,0,0,26.6,0,27.3
		c-7.5,0-29.5,0-34.3,0c-1.5,0-1.5,0-1.5-1.4c0-11.3,0-22.6,0-33.9c0-2.3,0.9-3.1,3.2-3.1c14,0,49,0,52.5,0c1.6,0,2.5,0.9,2.6,2.3
		c0,0.2,0,3,0,4.3c-5.9,0-11.8,0-17.7-0.1C61.1,38.6,59,40,58.8,43.1z M81,44c0,0.7-0.6,1.3-1.4,1.3c-0.8,0-1.3-0.6-1.3-1.4
		c0.1-0.8,0.6-1.2,1.3-1.3C80.3,42.6,81,43.3,81,44z M81.7,95.3c-0.6,0.5-1.3,0.9-2.2,0.9c-1.7,0-3.1-1.4-3.1-3.1
		c0-1.7,1.4-3.1,3.1-3.1c0.8,0,1.6,0.3,2.2,0.9V95.3z M81.7,58.9c0,9.7,0,19.4,0,29.1c-4.8,0-15,0-17.5,0c-1,0-1.4-0.2-1.4-1.3
		c0-12.2,0-24.5,0-36.7c0-1.1,0.3-1.3,1.3-1.3c10.4,0,20.8,0,31.2,0c1,0,1.3,0.3,1.3,1.3c0,0.3,0,3.4,0,5.1c-3.7,0-7.4,0-11.1,0
		C82.7,55.2,81.7,56.2,81.7,58.9z M94.5,96.8c-1.3,0-2.3-1-2.3-2.3c0-1.3,1-2.3,2.3-2.3c1.2,0,2.3,1.1,2.3,2.3
		C96.8,95.8,95.7,96.8,94.5,96.8z M103.1,90.8c-5.8,0-11.6,0-17.5,0c-0.9,0-1.1-0.3-1.1-1.1c0-8.7,0-17.5,0-26.2
		c0-0.9,0.3-1.1,1.2-1.1c5.8,0,11.6,0,17.5,0c0.9,0,1.1,0.3,1.1,1.2c0,4.4,0,21.8,0,26.2C104.3,90.6,104,90.9,103.1,90.8z"/>
</g>
</svg>
