<?xml version="1.0" encoding="utf-8"?>
<!-- Generator: Adobe Illustrator 22.0.1, SVG Export Plug-In . SVG Version: 6.00 Build 0)  -->
<svg version="1.1" id="Layer_1" xmlns="http://www.w3.org/2000/svg" xmlns:xlink="http://www.w3.org/1999/xlink" x="0px" y="0px"
	 viewBox="0 0 124.9 124.9" style="enable-background:new 0 0 124.9 124.9;" xml:space="preserve">
<style type="text/css">
	.st0{fill:url(#SVGID_1_);}
	.st1{opacity:0.25;}
	.st2{fill:#FFFFFF;}
</style>
<g>
	<g>
		<linearGradient id="SVGID_1_" gradientUnits="userSpaceOnUse" x1="62.45" y1="124.8992" x2="62.45" y2="8.007630e-04">
			<stop  offset="0" style="stop-color:#474D5B"/>
			<stop  offset="1" style="stop-color:#737E93"/>
		</linearGradient>
		<path class="st0" d="M110.2,0H14.7C6.6,0,0,6.6,0,14.7v95.5c0,8.1,6.6,14.7,14.7,14.7h95.5c8.1,0,14.7-6.6,14.7-14.7V14.7
			C124.9,6.6,118.3,0,110.2,0z"/>
	</g>
	<path class="st1" d="M97,37.9L77.7,56.7l-6.8,6.8l2.9,12.1l-22.4-5.9L29.2,88.2l36.7,36.7h44.3c8.1,0,14.7-6.6,14.7-14.7V65.8
		L97,37.9z"/>
	<g>
		<path class="st2" d="M71.2,63.1L67,67.4c-1.2,1.2-2.9,1.9-4.5,1.9c-1.6,0-3.3-0.6-4.5-1.9l-4.2-4.2L28.8,88
			c1.1,0.9,2.5,1.5,4.1,1.5H92c1.5,0,3-0.5,4.1-1.5L71.2,63.1z"/>
		<path class="st2" d="M28.1,37.6c-1,1.1-1.6,2.6-1.6,4.2v41.2c0,0.6,0.1,1.1,0.2,1.6L51,60.4L28.1,37.6z"/>
		<path class="st2" d="M98.4,41.8c0-1.6-0.6-3.1-1.6-4.2L73.9,60.4l24.3,24.3c0.1-0.5,0.2-1.1,0.2-1.6V41.8z"/>
		<path class="st2" d="M62.5,65.4c0.7,0,1.3-0.3,1.8-0.7l29.1-29.1c-0.4-0.1-0.9-0.1-1.3-0.1H32.9c-0.5,0-0.9,0.1-1.3,0.1l29.1,29.1
			C61.1,65.2,61.8,65.4,62.5,65.4z"/>
	</g>
</g>
</svg>
