<?xml version="1.0" encoding="utf-8"?>
<!-- Generator: Adobe Illustrator 22.0.1, SVG Export Plug-In . SVG Version: 6.00 Build 0)  -->
<svg version="1.1" id="Layer_1" xmlns="http://www.w3.org/2000/svg" xmlns:xlink="http://www.w3.org/1999/xlink" x="0px" y="0px"
	 viewBox="0 0 124.9 124.9" style="enable-background:new 0 0 124.9 124.9;" xml:space="preserve">
<style type="text/css">
	.st0{fill:url(#SVGID_1_);}
	.st1{opacity:0.25;}
	.st2{fill:#FFFFFF;}
</style>
<g>
	<g>
		<linearGradient id="SVGID_1_" gradientUnits="userSpaceOnUse" x1="62.45" y1="124.8992" x2="62.45" y2="8.075566e-04">
			<stop  offset="0" style="stop-color:#474D5B"/>
			<stop  offset="1" style="stop-color:#737E93"/>
		</linearGradient>
		<path class="st0" d="M110.2,0H14.7C6.6,0,0,6.6,0,14.7v95.5c0,8.1,6.6,14.7,14.7,14.7h95.5c8.1,0,14.7-6.6,14.7-14.7V14.7
			C124.9,6.6,118.3,0,110.2,0z"/>
	</g>
	<path class="st1" d="M89.2,37.7L73,32.8l-18.4-0.5L36.1,45.4l-0.5,42l37.4,37.4h37.2c8.1,0,14.7-6.6,14.7-14.7V73.4L89.2,37.7z"/>
	<path class="st2" d="M62.4,25.9c-20.2,0-36.5,16.3-36.5,36.5S42.3,99,62.4,99C82.6,99,99,82.6,99,62.5S82.6,25.9,62.4,25.9z
		 M83.3,60.9c-2,2.3-3.6,4.9-5.2,7.5c-0.4,0.7-0.6,1.3-0.7,2.1c-0.1,1.2-0.5,2.3-0.9,3.4c-0.1,0.4-0.4,0.7-0.7,1
		c-2.4,2.6-4.8,5.3-7.6,7.5c-1,0.8-1.4,1.8-1.5,3.1c-0.1,0.9-0.1,1.8-0.2,2.7H52c0-0.1,0-0.3,0.1-0.4c0.2-1.8-0.2-3.6-0.8-5.3
		c-0.7-1.8-1.5-3.6-2.2-5.4c-1.3-3.4-1.8-6.9-2-10.5c-0.1-3.3-0.7-6.4-1.4-9.6c-0.4-1.7-0.8-3.5-1.1-5.2c-0.2-0.8-0.3-1.6-0.2-2.5
		c0-0.8,0.6-1.5,1.4-1.7c0.5-0.1,0.9,0.1,1.2,0.6c0.5,1.2,0.9,2.4,1.3,3.6c0.8,2.6,1.7,5.2,2.5,7.7c0.1,0.2,0.1,0.4,0.2,0.5
		c0.1,0.3,0.4,0.4,0.7,0.4c0.3,0,0.4-0.3,0.5-0.6c0.2-0.6,0.1-1.3,0.1-1.9c-0.4-3.7-1-7.3-1.7-10.9c-0.2-1.2-0.4-2.5-0.6-3.7
		c-0.1-0.6-0.1-1.2,0-1.7c0.2-0.9,0.8-1.3,1.8-1.3c0.9,0,1.5,0.4,1.6,1.2c0.8,4.1,2,8.1,2.7,12.2c0.1,0.7,0.2,1.3,0.2,2
		c0,0.2,0.1,0.4,0.1,0.6c0.1,0.2,0.2,0.4,0.4,0.4c0.3,0,0.3-0.3,0.3-0.4c0.1-1,0.1-2,0.1-3.1c0-4.6-0.2-9.1-0.4-13.7
		c0-0.5,0-1.1,0.1-1.6c0.2-0.8,0.7-1.3,1.4-1.4c1.2-0.1,1.9,0.2,2.3,1c0.3,0.7,0.4,1.4,0.5,2.2c0.6,4.4,0.8,8.8,0.8,13.2
		c0,0.7,0,1.3,0,2c0,0.2-0.1,0.5,0.2,0.5c0.3,0,0.2-0.3,0.2-0.5c0.3-3.4,0.4-6.7,0.4-10.1c0-1.6-0.1-3.2,0.1-4.8
		c0-0.3,0.1-0.7,0.2-1c0.3-0.8,1.4-1.2,2.2-0.9c0.9,0.4,1.4,1.1,1.7,2c0.5,1.7,0.6,3.5,0.7,5.3c0.2,3.8,0.1,7.6-0.1,11.4
		c-0.2,3.4,0.7,6.5,2.4,9.4c0.7,1.1,1.2,1.2,2.1,0.2c1.1-1.1,2-2.4,2.9-3.6c1.3-1.7,2.8-3.1,4.9-3.8c1-0.3,2-0.4,3-0.2
		C83.8,59.3,84.1,60,83.3,60.9z"/>
</g>
</svg>
