<?xml version="1.0" encoding="utf-8"?>
<!-- Generator: Adobe Illustrator 22.0.1, SVG Export Plug-In . SVG Version: 6.00 Build 0)  -->
<svg version="1.1" id="Layer_1" xmlns="http://www.w3.org/2000/svg" xmlns:xlink="http://www.w3.org/1999/xlink" x="0px" y="0px"
	 viewBox="0 0 124.9 124.9" style="enable-background:new 0 0 124.9 124.9;" xml:space="preserve">
<style type="text/css">
	.st0{fill:url(#SVGID_1_);}
	.st1{opacity:0.25;}
	.st2{fill:#FFFFFF;}
</style>
<g>
	<g>
		<linearGradient id="SVGID_1_" gradientUnits="userSpaceOnUse" x1="62.45" y1="124.8992" x2="62.45" y2="8.122929e-04">
			<stop  offset="0" style="stop-color:#474D5B"/>
			<stop  offset="1" style="stop-color:#737E93"/>
		</linearGradient>
		<path class="st0" d="M110.2,0H14.7C6.6,0,0,6.6,0,14.7v95.5c0,8.1,6.6,14.7,14.7,14.7h95.5c8.1,0,14.7-6.6,14.7-14.7V14.7
			C124.9,6.6,118.3,0,110.2,0z"/>
	</g>
	<path class="st1" d="M92.7,29l-30.2-0.4L33.4,33l-2.1,12.9l7.2,7.6h1.1L35,56.2l-3.6,14.2l6.9,7.5l3.8,2.1L31.6,95.4l29.2,29.5
		h49.4c8.1,0,14.7-6.6,14.7-14.7v-49L92.7,29z"/>
	<g>
		<path class="st2" d="M89,27.7H35.9c-3.2,0-5.8,2.6-5.8,5.8v8.9c0,3.2,2.6,5.8,5.8,5.8H89c3.2,0,5.8-2.6,5.8-5.8v-8.9
			C94.8,30.3,92.2,27.7,89,27.7z M40.8,40.7c-1.5,0-2.8-1.2-2.8-2.8s1.2-2.8,2.8-2.8s2.8,1.2,2.8,2.8S42.3,40.7,40.8,40.7z M86.9,40
			H49.3v-4.6h37.5V40z"/>
		<path class="st2" d="M89,52.2H35.9c-3.2,0-5.8,2.6-5.8,5.8v8.9c0,3.2,2.6,5.8,5.8,5.8H89c3.2,0,5.8-2.6,5.8-5.8V58
			C94.8,54.8,92.2,52.2,89,52.2z M40.8,65.2c-1.5,0-2.8-1.2-2.8-2.8c0-1.5,1.2-2.8,2.8-2.8s2.8,1.2,2.8,2.8
			C43.6,64,42.3,65.2,40.8,65.2z M86.9,64.5H49.3v-4.6h37.5V64.5z"/>
		<path class="st2" d="M89,76.8H35.9c-3.2,0-5.8,2.6-5.8,5.8v8.9c0,3.2,2.6,5.8,5.8,5.8H89c3.2,0,5.8-2.6,5.8-5.8v-8.9
			C94.8,79.4,92.2,76.8,89,76.8z M40.8,89.7c-1.5,0-2.8-1.2-2.8-2.8c0-1.5,1.2-2.8,2.8-2.8s2.8,1.2,2.8,2.8
			C43.6,88.5,42.3,89.7,40.8,89.7z M86.9,89H49.3v-4.6h37.5V89z"/>
	</g>
</g>
</svg>
