<?xml version="1.0" encoding="utf-8"?>
<!-- Generator: Adobe Illustrator 22.0.1, SVG Export Plug-In . SVG Version: 6.00 Build 0)  -->
<svg version="1.1" id="Layer_1" xmlns="http://www.w3.org/2000/svg" xmlns:xlink="http://www.w3.org/1999/xlink" x="0px" y="0px"
	 viewBox="0 0 124.9 124.9" style="enable-background:new 0 0 124.9 124.9;" xml:space="preserve">
<style type="text/css">
	.st0{fill:url(#SVGID_1_);}
	.st1{opacity:0.25;}
	.st2{fill:#FFFFFF;}
</style>
<g>
	<g>
		<linearGradient id="SVGID_1_" gradientUnits="userSpaceOnUse" x1="62.45" y1="124.8992" x2="62.45" y2="8.007630e-04">
			<stop  offset="0" style="stop-color:#474D5B"/>
			<stop  offset="1" style="stop-color:#737E93"/>
		</linearGradient>
		<path class="st0" d="M110.2,0H14.7C6.6,0,0,6.6,0,14.7v95.5c0,8.1,6.6,14.7,14.7,14.7h95.5c8.1,0,14.7-6.6,14.7-14.7V14.7
			C124.9,6.6,118.3,0,110.2,0z"/>
	</g>
	<path class="st1" d="M101.3,51.1l-2.2-0.3l-9.2-9.2l-1.8,2.7l-0.4-2.3L32,41.4L29.1,86l2.6,5.4l55.8-29.6l2-10l-0.4-2.2l0.5,0.5
		l2.1,0.6l-2.3-0.1l6.1,11.4L31.8,91.6L65,124.9h45.2c8.1,0,14.7-6.6,14.7-14.7V74.6L101.3,51.1z"/>
	<g>
		<path class="st2" d="M88.5,88.5c3.6-9.3,12.1-31.8,12.8-33.1c0.8-1.6,0.7-5.6-1.8-5.8c-0.7,0-2.3-0.1-4.4-0.1
			c-4.2,0-10.1,0.1-13.3,0.1c-4.9,0-5.1,4-7.2,4.5c-0.5,0.1-2.5,0.2-5.3,0.2c-5.4,0-13.7-0.2-18.9-0.2h-0.1c-2.5,0-3.3,0.1-4.5,1.3
			c-1.3,1.2-1.6,1.5-3.1,5c-4.2,9.8-11.3,28.1-11.3,28.1s-0.6,1.6,0.4,2.8s3.5,1.2,3.5,1.2h45.9c0,0,0.3,0,0.7,0
			c0.9,0,2.5-0.1,3.6-0.6C87.2,91.3,87.6,91,88.5,88.5z"/>
		<g>
			<path class="st2" d="M34.1,73.4V43.6h52.3v3.2c0.4,0,0.8,0,1.2,0c1.2,0,2.5,0,3.8,0v-1.4c0-3.2-2.6-5.8-5.8-5.8H58v-1.4
				c0-3.2-2.6-5.8-5.8-5.8H39.4c-3.2,0-5.8,2.6-5.8,5.8v1.6c-2.5,0.6-4.5,2.9-4.5,5.6V86C30.1,83.6,32,78.7,34.1,73.4z"/>
		</g>
	</g>
</g>
</svg>
