<?xml version="1.0" encoding="utf-8"?>
<!-- Generator: Adobe Illustrator 22.0.1, SVG Export Plug-In . SVG Version: 6.00 Build 0)  -->
<svg version="1.1" id="Layer_1" xmlns="http://www.w3.org/2000/svg" xmlns:xlink="http://www.w3.org/1999/xlink" x="0px" y="0px"
	 viewBox="0 0 124.9 124.9" style="enable-background:new 0 0 124.9 124.9;" xml:space="preserve">
<style type="text/css">
	.st0{fill:url(#SVGID_1_);}
	.st1{opacity:0.25;}
	.st2{fill:#FFFFFF;}
</style>
<g>
	<g>
		<linearGradient id="SVGID_1_" gradientUnits="userSpaceOnUse" x1="62.45" y1="124.8992" x2="62.45" y2="8.007630e-04">
			<stop  offset="0" style="stop-color:#474D5B"/>
			<stop  offset="1" style="stop-color:#737E93"/>
		</linearGradient>
		<path class="st0" d="M110.2,0H14.7C6.6,0,0,6.6,0,14.7v95.5c0,8.1,6.6,14.7,14.7,14.7h95.5c8.1,0,14.7-6.6,14.7-14.7V14.7
			C124.9,6.6,118.3,0,110.2,0z"/>
	</g>
	<path class="st1" d="M72.2,27.8L61.9,42.6L62.4,64c0,0-2.6,0.4-8.9,1.3c-6.3,0.9-6.8,1.8-14.6,5.3s-12.3,9-12.3,9L20,96.8
		l27.8,28.1h62.4c8.1,0,14.7-6.6,14.7-14.7V80.5L72.2,27.8z"/>
	<path class="st2" d="M102.4,76.2h-6.3c-9-7.9-20.3-12.7-32.7-12.9V48.7H70c1.8,0,3.3-1.5,3.3-3.3V30.3c0-1.8-1.5-3.3-3.3-3.3H54.9
		c-1.8,0-3.3,1.5-3.3,3.3v15.1c0,1.8,1.5,3.3,3.3,3.3h6.7v14.5c-12.4,0.2-23.8,5-32.7,12.9h-6.3c-1.8,0-3.3,1.5-3.3,3.3v15.1
		c0,1.8,1.5,3.3,3.3,3.3h15.1c1.8,0,3.3-1.5,3.3-3.3V79.5c0-1.8-1.5-3.3-3.3-3.3h-6.1c8.4-6.8,18.8-10.9,30-11.1v11.1h-6.7
		c-1.8,0-3.3,1.5-3.3,3.3v15.1c0,1.8,1.5,3.3,3.3,3.3H70c1.8,0,3.3-1.5,3.3-3.3V79.5c0-1.8-1.5-3.3-3.3-3.3h-6.7V65
		c11.2,0.2,21.6,4.3,30,11.1h-6.1c-1.8,0-3.3,1.5-3.3,3.3v15.1c0,1.8,1.5,3.3,3.3,3.3h15.1c1.8,0,3.3-1.5,3.3-3.3V79.5
		C105.7,77.7,104.2,76.2,102.4,76.2z"/>
</g>
</svg>
