<?xml version="1.0" encoding="utf-8"?>
<!-- Generator: Adobe Illustrator 22.0.1, SVG Export Plug-In . SVG Version: 6.00 Build 0)  -->
<svg version="1.1" id="Layer_1" xmlns="http://www.w3.org/2000/svg" xmlns:xlink="http://www.w3.org/1999/xlink" x="0px" y="0px"
	 viewBox="0 0 124.9 124.9" style="enable-background:new 0 0 124.9 124.9;" xml:space="preserve">
<style type="text/css">
	.st0{fill:url(#SVGID_1_);}
	.st1{opacity:0.25;}
	.st2{fill:#FFFFFF;}
</style>
<g>
	<g>
		<linearGradient id="SVGID_1_" gradientUnits="userSpaceOnUse" x1="62.45" y1="124.8992" x2="62.45" y2="8.007630e-04">
			<stop  offset="0" style="stop-color:#474D5B"/>
			<stop  offset="1" style="stop-color:#737E93"/>
		</linearGradient>
		<path class="st0" d="M110.2,0H14.7C6.6,0,0,6.6,0,14.7v95.5c0,8.1,6.6,14.7,14.7,14.7h95.5c8.1,0,14.7-6.6,14.7-14.7V14.7
			C124.9,6.6,118.3,0,110.2,0z"/>
	</g>
	<path class="st1" d="M104.2,30.1l-82.5,1.8l-1.4,54.3l38.8,38.8h51c8.1,0,14.7-6.6,14.7-14.7V50.7L104.2,30.1z"/>
	<path class="st2" d="M53.2,57.2l-1.6,2.7l2.8,2.8l2.7-1.6c0.9,0.5,1.8,0.9,2.8,1.2l0.7,3l3.9,0l0.7-3c1-0.2,1.9-0.6,2.8-1.2
		l2.7,1.6l2.8-2.8l-1.6-2.7c0.5-0.9,0.9-1.8,1.2-2.8l3-0.7l0-3.9l-3-0.7c-0.2-1-0.6-1.9-1.2-2.8l1.6-2.7l-2.8-2.8L68,42.4
		c-0.9-0.5-1.8-0.9-2.8-1.2l-0.7-3l-3.9,0l-0.7,3c-1,0.2-1.9,0.6-2.8,1.2l-2.7-1.6l-2.8,2.8l1.6,2.7C52.6,47.1,52.3,48,52,49l-3,0.7
		l0,3.9l3,0.7C52.2,55.4,52.6,56.3,53.2,57.2z M57.7,47c1-1,2.3-1.6,3.6-1.9c2.1-0.4,4.3,0.2,5.9,1.9l0,0c1,1,1.6,2.3,1.9,3.6
		c0.4,2.1-0.2,4.3-1.9,5.9c-1,1-2.3,1.6-3.6,1.9c0,0,0,0,0,0c-2.1,0.4-4.3-0.2-5.9-1.9c-1-1-1.6-2.3-1.9-3.6
		C55.5,50.8,56.1,48.6,57.7,47z M100.6,28.4H24.3c-2.8,0-5.1,2.3-5.1,5.1V83c0,2.8,2.3,5.1,5.1,5.1h30.9c0,1.6,0,4.3-0.4,5.9
		c-0.9,3.8-4.3,7-4.3,7H75c0,0-3.8-3.9-4.3-7.8c-0.2-1.4-0.3-3.8-0.3-5.1h30.3c2.8,0,5.1-2.3,5.1-5.1V33.5
		C105.7,30.7,103.4,28.4,100.6,28.4z M62.5,85c-1.8,0-3.3-1.5-3.3-3.3c0-1.8,1.5-3.3,3.3-3.3c1.8,0,3.3,1.5,3.3,3.3
		C65.8,83.5,64.3,85,62.5,85z M100.5,70.3H24.4V33.2h76.2V70.3z"/>
</g>
</svg>
