<?xml version="1.0" encoding="utf-8"?>
<!-- Generator: Adobe Illustrator 22.0.1, SVG Export Plug-In . SVG Version: 6.00 Build 0)  -->
<svg version="1.1" id="Layer_1" xmlns="http://www.w3.org/2000/svg" xmlns:xlink="http://www.w3.org/1999/xlink" x="0px" y="0px"
	 viewBox="0 0 124.9 124.9" style="enable-background:new 0 0 124.9 124.9;" xml:space="preserve">
<style type="text/css">
	.st0{fill:url(#SVGID_1_);}
	.st1{opacity:0.25;}
	.st2{fill:#FFFFFF;}
</style>
<g>
	<g>
		<linearGradient id="SVGID_1_" gradientUnits="userSpaceOnUse" x1="62.45" y1="124.8992" x2="62.45" y2="7.988803e-04">
			<stop  offset="0" style="stop-color:#474D5B"/>
			<stop  offset="1" style="stop-color:#737E93"/>
		</linearGradient>
		<path class="st0" d="M110.2,0H14.7C6.6,0,0,6.6,0,14.7v95.5c0,8.1,6.6,14.7,14.7,14.7h95.5c8.1,0,14.7-6.6,14.7-14.7V14.7
			C124.9,6.6,118.3,0,110.2,0z"/>
	</g>
	<path class="st1" d="M92.7,29.4l-15,8.3l-4.8,4.8l-6.8,5.9L48.8,31.1l-12.9,8.2l-5.5,5.5l-9.6,22.6l14.8,15l-1.2,16.6l25.7,26h50.1
		c8.1,0,14.7-6.6,14.7-14.7V61.6L92.7,29.4z"/>
	<g>
		<g>
			<path class="st2" d="M50.5,62.9l0.5,0.5c2.6,2.9,6.1,4.7,9.9,5.2c0,0,0.1,0,0.1,0c0.5,0.1,1.1,0.1,1.6,0.1c0.5,0,1.1,0,1.6-0.1
				c0,0,0,0,0,0c3.8-0.4,7.3-2.2,9.9-5.2l0.5-0.6c2.1-2.6,3.4-6,3.4-9.6c0-8.5-6.9-15.4-15.4-15.4c-8.5,0-15.4,6.9-15.4,15.4
				C47.1,56.9,48.4,60.2,50.5,62.9z"/>
			<path class="st2" d="M34,95.5c0,1.2,0.1,2.3,0.4,3.4h56.2c0.2-1.1,0.4-2.2,0.4-3.4v-14c0-8.3-6.3-15.1-14.3-16
				c-0.4,0.5-0.9,0.9-1.3,1.4c0,0,0,0-0.1,0.1c-0.4,0.4-0.9,0.8-1.4,1.1c-0.1,0-0.1,0.1-0.2,0.1c-0.4,0.3-0.9,0.6-1.4,0.9
				c-0.1,0.1-0.2,0.1-0.3,0.2c-0.4,0.3-0.9,0.5-1.4,0.7c-0.1,0.1-0.3,0.1-0.4,0.2c-0.4,0.2-0.9,0.4-1.3,0.5
				c-0.2,0.1-0.3,0.1-0.5,0.2c-0.4,0.1-0.9,0.3-1.3,0.4c-0.2,0-0.4,0.1-0.6,0.1c-0.5,0.1-0.9,0.2-1.4,0.2c-0.2,0-0.4,0.1-0.5,0.1
				c-0.7,0.1-1.3,0.1-2,0.1c-0.7,0-1.3,0-2-0.1c-0.2,0-0.4-0.1-0.6-0.1c-0.5-0.1-0.9-0.1-1.4-0.2c-0.2,0-0.4-0.1-0.6-0.1
				c-0.4-0.1-0.9-0.2-1.3-0.4c-0.2-0.1-0.3-0.1-0.5-0.2c-0.4-0.2-0.9-0.3-1.3-0.5c-0.1-0.1-0.3-0.1-0.4-0.2
				c-0.5-0.2-0.9-0.5-1.3-0.7c-0.1-0.1-0.2-0.1-0.3-0.2c-0.5-0.3-0.9-0.6-1.4-0.9c-0.1,0-0.1-0.1-0.2-0.1c-0.5-0.4-0.9-0.7-1.4-1.1
				c0,0-0.1,0-0.1-0.1c-0.5-0.4-0.9-0.9-1.3-1.4c-8.2,0.8-14.6,7.7-14.6,16V95.5z"/>
		</g>
		<path class="st2" d="M49.9,66.9c-0.5-0.4-0.9-0.9-1.3-1.4c-2.1,0.2-4.2,0.8-6,1.8h7.8C50.3,67.2,50.1,67.1,49.9,66.9
			C50,66.9,49.9,66.9,49.9,66.9z M79.3,45c1.7,1.2,3.7,1.8,5.9,1.8c5.8,0,10.4-4.7,10.4-10.4C95.7,30.7,91,26,85.2,26
			c-5.8,0-10.4,4.7-10.4,10.4c0,1.1,0.2,2.2,0.5,3.2C76.9,41.1,78.3,43,79.3,45z M49.7,44.8c-1.6,2.4-2.5,5.3-2.5,8.4
			c0,3.6,1.3,7,3.4,9.6l0.5,0.5c1.5,1.7,3.3,3,5.4,3.9h2.4c0.2-0.7,0.2-1.5,0.2-2.3v-9.4C59,50.1,54.9,45.6,49.7,44.8z M75.2,66.9
			C75.2,66.9,75.2,67,75.2,66.9c-0.2,0.2-0.4,0.3-0.5,0.4h7.6c-1.8-0.9-3.7-1.6-5.7-1.8C76.1,66,75.7,66.5,75.2,66.9z M75.5,44.8
			c-5.4,0.6-9.6,5.3-9.6,10.8V65c0,0.8,0.1,1.6,0.2,2.3h2.7c2-0.9,3.8-2.2,5.3-3.9l0.5-0.6c2.1-2.6,3.4-6,3.4-9.6
			C78,50.1,77.1,47.2,75.5,44.8z M94.7,44.8c-2.3,2.6-5.7,4.3-9.5,4.3c-1.7,0-3.3-0.3-4.7-0.9c0.5,1.6,0.7,3.3,0.7,5.1
			c0,3.4-0.9,6.6-2.6,9.4c3.5,0.7,6.7,2.4,9.2,4.7h16.3c0.2-0.7,0.2-1.5,0.2-2.3v-9.4C104.4,50,100.1,45.4,94.7,44.8z M43.9,53.2
			c0-1.8,0.3-3.5,0.7-5.2c-1.5,0.6-3.1,1-4.8,1c-3.8,0-7.2-1.7-9.5-4.3c-5.5,0.5-9.9,5.2-9.9,10.8V65c0,0.8,0.1,1.6,0.2,2.3h16.4
			c2.6-2.4,5.8-4.1,9.3-4.7C44.9,59.8,43.9,56.6,43.9,53.2z M39.9,46.9c2.3,0,4.3-0.7,6-1.9c1-2,2.3-3.7,3.9-5.2
			c0.3-1,0.5-2.1,0.5-3.3c0-5.8-4.7-10.4-10.4-10.4c-5.8,0-10.4,4.7-10.4,10.4C29.4,42.2,34.1,46.9,39.9,46.9z"/>
	</g>
</g>
</svg>
