<?xml version="1.0" encoding="utf-8"?>
<!-- Generator: Adobe Illustrator 22.1.0, SVG Export Plug-In . SVG Version: 6.00 Build 0)  -->
<svg version="1.1" id="Layer_1" xmlns="http://www.w3.org/2000/svg" xmlns:xlink="http://www.w3.org/1999/xlink" x="0px" y="0px"
	 viewBox="0 0 90 14.1" style="enable-background:new 0 0 90 14.1;" xml:space="preserve">
<style type="text/css">
	.st0{fill:#FFFFFF;}
</style>
<path class="st0" d="M33,8.2c2.7,0,4-1.8,4-3.7s-1.3-3.6-4.1-3.6c-2.1-0.1-9.7-0.1-9.7-0.1v12.5h2.4V2.8c1.8,0,6.5,0,7.5,0
	c1.3,0,2,0.4,2,1.7c0,1-0.7,1.6-1.9,1.6h-6.2l7.4,7.1h2.9l-5.3-5.2C32.4,8.2,32.9,8.2,33,8.2z"/>
<rect x="39.5" y="0.8" class="st0" width="2.3" height="12.5"/>
<polygon class="st0" points="70.8,2.7 70.8,0.8 65.9,0.8 63.6,0.8 59.6,0.8 58.2,2.7 63.6,2.7 63.6,13.3 65.9,13.3 65.9,2.7 "/>
<path class="st0" d="M53.7,6c-1.2,0-4.1,0-5.8,0C46.7,6,46,5.5,46,4.4c0-1.2,0.8-1.7,1.8-1.7c1.6,0,8,0,8,0l1-1.9c0,0-7.8,0-9.1,0
	c-2.1,0-3.8,1.6-3.8,3.7C44,6.4,45.7,8,47.9,8c1.3,0,5,0,5.8,0c1.3,0,2.1,0.6,2.1,1.7c0,1-0.8,1.6-2.1,1.6h-8.1l-1.2,2
	c0,0,7.1,0,9.5,0c2.4,0,3.8-1.8,3.8-3.8C57.8,7.7,56.2,6,53.7,6z"/>
<path class="st0" d="M12.4,1.6C11.9,2.4,5,13.3,5,13.3h2.4l2.3-3.7h4.9l1.3-2H11l2.7-4.3l6.2,9.9h2.4c0,0-6.8-10.7-7.4-11.7
	C14.2,0.6,13.1,0.7,12.4,1.6z"/>
<path class="st0" d="M82.6,13.3H85c0,0-6.8-10.7-7.4-11.7c-0.7-1.1-1.8-1-2.5-0.1c-0.5,0.8-7.4,11.7-7.4,11.7h2.4l2.3-3.7h5l1.3-2
	h-4.9l2.7-4.3L82.6,13.3z"/>
</svg>
