<?xml version="1.0" encoding="UTF-8" standalone="no"?>
<svg
   xmlns:dc="http://purl.org/dc/elements/1.1/"
   xmlns:cc="http://creativecommons.org/ns#"
   xmlns:rdf="http://www.w3.org/1999/02/22-rdf-syntax-ns#"
   xmlns:svg="http://www.w3.org/2000/svg"
   xmlns="http://www.w3.org/2000/svg"
   xmlns:sodipodi="http://sodipodi.sourceforge.net/DTD/sodipodi-0.dtd"
   xmlns:inkscape="http://www.inkscape.org/namespaces/inkscape"
   height="256"
   width="256"
   viewBox="-45.0006 -75 83.201109 144"
   version="1.1"
   id="svg3787"
   sodipodi:docname="wireguard-logo.svg"
   inkscape:version="0.92.4 (5da689c313, 2019-01-14)">
  <metadata
     id="metadata3793">
    <rdf:RDF>
      <cc:Work
         rdf:about="">
        <dc:format>image/svg+xml</dc:format>
        <dc:type
           rdf:resource="http://purl.org/dc/dcmitype/StillImage" />
        <dc:title></dc:title>
      </cc:Work>
    </rdf:RDF>
  </metadata>
  <defs
     id="defs3791" />
  <sodipodi:namedview
     pagecolor="#ffffff"
     bordercolor="#666666"
     borderopacity="1"
     objecttolerance="10"
     gridtolerance="10"
     guidetolerance="10"
     inkscape:pageopacity="0"
     inkscape:pageshadow="2"
     inkscape:window-width="2560"
     inkscape:window-height="1367"
     id="namedview3789"
     showgrid="false"
     inkscape:zoom="2.9"
     inkscape:cx="190.06116"
     inkscape:cy="130.11765"
     inkscape:window-x="0"
     inkscape:window-y="0"
     inkscape:window-maximized="1"
     inkscape:current-layer="svg3787"
     fit-margin-top="0"
     fit-margin-left="0"
     fit-margin-right="0"
     fit-margin-bottom="0" />
  <g
     id="g3785"
     style="fill:#88171a"
     transform="matrix(0.42374478,0,0,0.42375,-66.962475,-66.5625)">
    <path
       d="m 299.745,145.56 c 0,0 6.94,-145.56 -153.04,-145.56 -141.48,0 -145.9,139.63 -145.9,139.63 0,0 -20.81,160.37 149.16,160.37 163.02,0 149.78,-154.44 149.78,-154.44 z m -197.8,-50.863 c 30.017,-18.364 68.366,-7.14 82.735,20.476 2.724,5.234 3.07,13.291 1.345,18.782 -5.955,18.956 -20.014,29.587 -39.312,34.103 5.69,-4.87 10.218,-10.394 11.659,-18.025 a 26.402,26.402 0 0 0 -4.543,-20.956 26.76,26.76 0 0 0 -30.81,-9.39 c -11.882,4.512 -18.39,15.355 -17.217,28.684 1.09,12.38 10.484,20.405 28.061,23.453 -2.627,1.39 -4.65,2.414 -6.63,3.517 a 63.918,63.918 0 0 0 -20.543,17.868 c -1.784,2.408 -3.01,2.602 -5.727,0.941 -35.338,-21.61 -37.61,-75.844 0.982,-99.453 z m -26.449,133.53 c -5.677,1.441 -11.178,3.574 -16.98,5.478 2.838,-19.152 25.264,-36.789 44.23,-34.777 a 48.881,48.881 0 0 0 -9.243,25.893 c -6.302,1.161 -12.24,1.942 -18.007,3.405 z m 120.79,-186.98 c 5.61,0.206 11.23,0.12 16.844,0.254 1.402,0.092 2.794,0.286 4.168,0.58 a 40.607,40.607 0 0 1 -4.236,5.434 c -2.007,1.87 -4.275,3.698 -7.166,0.856 -0.696,-0.684 -2.339,-0.527 -3.549,-0.543 -5.582,-0.073 -11.172,-0.252 -16.746,-0.041 a 104.04,104.04 0 0 0 -14.425,1.473 c -0.894,0.16 -2.23,3.131 -1.819,4.227 0.97,2.585 2.383,5.436 4.478,7.09 7.74,6.11 15.972,11.595 23.748,17.663 7.556,5.897 14.589,12.358 18.875,21.253 5.584,11.59 5.747,23.743 3.339,35.95 -4.02,20.378 -14.333,37.261 -31.032,49.524 -6.729,4.941 -15.06,7.746 -22.767,11.295 -6.778,3.123 -13.755,5.812 -20.55,8.901 -12.248,5.57 -19.132,18.865 -17.107,32.688 1.858,12.685 12.987,23.271 25.735,25.456 15.292,2.622 31.07,-7.316 34.812,-22.86 4.206,-17.478 -5.29,-33.083 -23.065,-37.813 -0.783,-0.208 -1.569,-0.405 -3.201,-0.827 4.754,-2.124 8.861,-3.638 12.653,-5.724 a 347.934,347.934 0 0 0 19.48,-11.562 c 1.875,-1.2 2.887,-1.2 4.486,0.182 12.225,10.57 19.518,23.718 21.563,39.84 3.384,26.683 -9.247,51.197 -33.072,63.761 -36.86,19.44 -81.965,-2.686 -90.106,-43.552 -6.974,-35.003 17.73,-66.754 47.462,-72.884 12.787,-2.636 24.48,-7.96 33.57,-17.807 5.865,-6.354 8.708,-11.806 9.677,-14.266 a 39.565,39.565 0 0 0 2.721,-14.469 33.867,33.867 0 0 0 -2.965,-12.398 c -3.104,-7.075 -14.995,-18.33 -17.94,-20.704 l -28,-21.92 c -0.987,-0.813 -2.099,-0.754 -4.507,-0.591 -2.861,0.194 -10.175,0.599 -13.331,-0.228 2.553,-1.933 9.513,-4.746 12.502,-7.007 -9.074,-6.13 -19.43,-3.916 -28.941,-5.747 2.199,-4.095 13.08,-10.39 19.27,-11.09 a 91.533,91.533 0 0 0 -1.688,-10.282 c -0.378,-1.391 -1.931,-2.74 -3.286,-3.535 -3.286,-1.927 -6.77,-3.517 -10.55,-5.433 a 21.936,21.936 0 0 1 11.333,-3.505 42.316,42.316 0 0 1 11.347,1.104 c 6.742,1.54 12.124,0.535 17.488,-4.048 -4.222,-1.7 -8.444,-3.253 -12.538,-5.09 A 123.04,123.04 0 0 1 127.47,8.693 c 10.623,1.476 20.897,5.459 31.758,4.004 l 0.277,-1.481 -25.229,-5.873 c 15.04,-1.376 29.042,-1.604 42.301,4.855 3.731,1.817 7.635,3.321 11.211,5.397 1.744,1.012 2.919,3.008 4.35,4.56 1.136,1.232 2.05,2.883 3.446,3.626 5.3,2.818 11.134,2.929 17.078,2.787 l 0.13,-1.993 c 5.983,1.87 12.715,8.768 12.704,13.806 -9.69,0 -19.374,-0.037 -29.056,0.054 -1.034,0.01 -2.062,0.766 -3.093,1.175 0.98,0.571 1.943,1.6 2.942,1.637 z"
       id="path3781"
       inkscape:connector-curvature="0" />
    <path
       d="m 183.785,26.906 a 1.48,1.48 0 0 0 -0.189,2.369 2.233,2.233 0 0 0 3.072,0.821 c 0.933,-0.47 1.848,-0.97 2.975,-1.566 -0.908,-0.775 -1.636,-1.415 -2.385,-2.032 -1.318,-1.086 -2.411,-0.404 -3.473,0.408 z"
       id="path3783"
       inkscape:connector-curvature="0" />
  </g>
</svg>
