<?xml version="1.0" encoding="utf-8"?>
<!-- Generator: Adobe Illustrator 22.0.1, SVG Export Plug-In . SVG Version: 6.00 Build 0)  -->
<svg version="1.1" id="Layer_1" xmlns="http://www.w3.org/2000/svg" xmlns:xlink="http://www.w3.org/1999/xlink" x="0px" y="0px"
	 viewBox="0 0 124.9 124.9" style="enable-background:new 0 0 124.9 124.9;" xml:space="preserve">
<style type="text/css">
	.st0{fill:url(#SVGID_1_);}
	.st1{opacity:0.25;}
	.st2{fill-rule:evenodd;clip-rule:evenodd;fill:#FFFFFF;}
	.st3{fill:url(#SVGID_2_);}
	.st4{fill:url(#SVGID_3_);}
	.st5{fill:url(#SVGID_4_);}
	.st6{fill:#FFFFFF;}
	.st7{fill:url(#SVGID_7_);}
	.st8{fill:url(#SVGID_8_);}
	.st9{fill:none;}
	.st10{fill:url(#SVGID_9_);}
	.st11{fill:url(#SVGID_10_);}
	.st12{fill:url(#SVGID_11_);}
	.st13{fill:url(#SVGID_12_);}
	.st14{fill:url(#SVGID_13_);}
	.st15{fill:url(#SVGID_14_);}
	.st16{fill:url(#SVGID_15_);}
	.st17{fill:url(#SVGID_16_);}
	.st18{fill:url(#SVGID_17_);}
	.st19{fill:url(#SVGID_18_);}
	.st20{fill:url(#SVGID_19_);}
	.st21{fill:url(#SVGID_20_);}
	.st22{fill:#C13B11;}
	.st23{fill:#EF6D25;}
	.st24{fill:#DD813F;}
	.st25{fill:#63C1C1;}
	.st26{fill:#148EAF;}
	.st27{fill:#006382;}
	.st28{fill:#6D6E70;}
	.st29{fill:#68BC49;}
	.st30{fill:url(#SVGID_21_);}
	.st31{fill:url(#SVGID_25_);}
	.st32{fill:url(#SVGID_26_);}
	.st33{fill:url(#SVGID_27_);}
	.st34{fill:url(#SVGID_31_);}
	.st35{fill:url(#SVGID_32_);}
	.st36{fill:url(#SVGID_35_);}
</style>
<g>
	<g>
		<g>
			<g>
				<g>
					<linearGradient id="SVGID_1_" gradientUnits="userSpaceOnUse" x1="62.4408" y1="124.8815" x2="62.4408" y2="0">
						<stop  offset="0" style="stop-color:#EF6D25"/>
						<stop  offset="1" style="stop-color:#F78146"/>
					</linearGradient>
					<path class="st0" d="M110.2,0H14.7C6.6,0,0,6.6,0,14.7v95.5c0,8.1,6.6,14.7,14.7,14.7h95.5c8.1,0,14.7-6.6,14.7-14.7V14.7
						C124.9,6.6,118.3,0,110.2,0z"/>
				</g>
			</g>
		</g>
	</g>
	<path class="st1" d="M82.9,37.7L38,48.6l-3,23.9l4.5,12.2l40.2,40.2h30.5c8.1,0,14.7-6.6,14.7-14.7V80.1L82.9,37.7z"/>
	<g>
		<path class="st6" d="M65.3,58.2c-0.4-0.4-0.9-0.6-1.5-0.8c-0.6-0.1-1.2-0.2-1.8-0.2h-0.3v10.4H62c0.6,0,1.3-0.1,1.8-0.2
			c0.6-0.2,1.1-0.4,1.5-0.8s0.7-0.9,1-1.6c0.2-0.7,0.4-1.6,0.4-2.6c0-1.1-0.1-1.9-0.4-2.6C66.1,59.1,65.7,58.6,65.3,58.2z"/>
		<path class="st6" d="M47,59.9c-0.2-1-0.4-2-0.7-2.9h-0.1c-0.2,0.9-0.4,1.9-0.6,2.9c-0.2,1-0.4,2-0.7,2.8l-0.3,1.3H48l-0.3-1.3
			C47.4,61.8,47.2,60.9,47,59.9z"/>
		<path class="st6" d="M75.7,30.5H49.2L30.5,49.2v26.5l18.7,18.7h26.5l18.7-18.7V49.2L75.7,30.5z M49.7,71.5l-0.9-3.8h-5.1l-0.9,3.8
			H38l5.5-18.1h5.8l5.5,18.1H49.7z M70.9,66.5c-0.4,1.2-1.1,2.1-1.9,2.8c-0.8,0.7-1.8,1.3-2.9,1.6c-1.1,0.4-2.3,0.5-3.6,0.5h-5.6
			V53.4h5.3c1.4,0,2.6,0.2,3.8,0.5c1.1,0.3,2.1,0.9,2.9,1.6c0.8,0.7,1.5,1.7,1.9,2.8c0.5,1.1,0.7,2.5,0.7,4.1
			C71.6,64,71.4,65.3,70.9,66.5z M86.4,68.2c-0.3,0.7-0.8,1.3-1.4,1.9c-0.6,0.5-1.3,1-2.2,1.3s-1.9,0.5-3,0.5
			c-1.2,0-2.3-0.2-3.5-0.6c-1.2-0.4-2.3-1.1-3.3-2l2.7-3.3c0.6,0.5,1.4,0.9,2.1,1.3c0.8,0.3,1.5,0.5,2.1,0.5c0.7,0,1.2-0.1,1.6-0.3
			c0.3-0.2,0.5-0.5,0.5-0.9c0-0.2-0.1-0.4-0.2-0.6c-0.1-0.1-0.3-0.3-0.5-0.4c-0.2-0.1-0.5-0.3-0.8-0.4c-0.3-0.1-0.6-0.3-1-0.4
			l-2.3-0.9c-0.5-0.2-0.9-0.4-1.4-0.7c-0.4-0.3-0.8-0.7-1.2-1.1c-0.3-0.4-0.6-0.9-0.8-1.4c-0.2-0.5-0.3-1.1-0.3-1.8
			c0-0.8,0.2-1.5,0.5-2.2c0.3-0.7,0.8-1.3,1.4-1.8c0.6-0.5,1.3-0.9,2.1-1.2c0.8-0.3,1.7-0.4,2.7-0.4c1,0,2.1,0.2,3.2,0.6
			c1.1,0.4,2,1,2.9,1.8l-2.4,3c-0.6-0.4-1.2-0.8-1.8-1c-0.6-0.2-1.2-0.3-1.9-0.3c-0.6,0-1.1,0.1-1.4,0.3c-0.3,0.2-0.5,0.5-0.5,0.9
			c0,0.4,0.2,0.8,0.7,1c0.5,0.2,1.1,0.5,2,0.8l2.2,0.9c1.1,0.4,2,1.1,2.6,1.9c0.6,0.8,0.9,1.8,0.9,3.1
			C86.9,66.8,86.8,67.5,86.4,68.2z"/>
	</g>
</g>
</svg>
