<?xml version="1.0" encoding="utf-8"?>
<!-- Generator: Adobe Illustrator 22.0.1, SVG Export Plug-In . SVG Version: 6.00 Build 0)  -->
<svg version="1.1" id="Layer_1" xmlns="http://www.w3.org/2000/svg" xmlns:xlink="http://www.w3.org/1999/xlink" x="0px" y="0px"
	 viewBox="0 0 124.9 124.9" style="enable-background:new 0 0 124.9 124.9;" xml:space="preserve">
<style type="text/css">
	.st0{fill:url(#SVGID_1_);}
	.st1{opacity:0.25;}
	.st2{fill-rule:evenodd;clip-rule:evenodd;fill:#FFFFFF;}
	.st3{fill:url(#SVGID_2_);}
	.st4{fill:url(#SVGID_3_);}
	.st5{fill:url(#SVGID_4_);}
	.st6{fill:#FFFFFF;}
	.st7{fill:url(#SVGID_7_);}
	.st8{fill:url(#SVGID_8_);}
	.st9{fill:none;}
	.st10{fill:url(#SVGID_9_);}
	.st11{fill:url(#SVGID_10_);}
	.st12{fill:url(#SVGID_11_);}
	.st13{fill:url(#SVGID_12_);}
	.st14{fill:url(#SVGID_13_);}
	.st15{fill:url(#SVGID_14_);}
	.st16{fill:url(#SVGID_15_);}
	.st17{fill:url(#SVGID_16_);}
	.st18{fill:url(#SVGID_17_);}
	.st19{fill:url(#SVGID_18_);}
	.st20{fill:url(#SVGID_19_);}
	.st21{fill:url(#SVGID_20_);}
	.st22{fill:#C13B11;}
	.st23{fill:#EF6D25;}
	.st24{fill:#DD813F;}
	.st25{fill:#63C1C1;}
	.st26{fill:#148EAF;}
	.st27{fill:#006382;}
	.st28{fill:#6D6E70;}
	.st29{fill:#68BC49;}
	.st30{fill:url(#SVGID_21_);}
	.st31{fill:url(#SVGID_25_);}
	.st32{fill:url(#SVGID_26_);}
	.st33{fill:url(#SVGID_27_);}
	.st34{fill:url(#SVGID_31_);}
	.st35{fill:url(#SVGID_32_);}
	.st36{fill:url(#SVGID_35_);}
</style>
<g>
	<g>
		<g>
			<defs>
				<path id="SVGID_22_" d="M110.2,0H14.7C6.6,0,0,6.6,0,14.7v95.5c0,8.1,6.6,14.7,14.7,14.7h95.5c8.1,0,14.7-6.6,14.7-14.7V14.7
					C124.9,6.6,118.3,0,110.2,0z"/>
			</defs>
			<linearGradient id="SVGID_1_" gradientUnits="userSpaceOnUse" x1="62.4408" y1="124.8815" x2="62.4408" y2="0">
				<stop  offset="0" style="stop-color:#EF6D25"/>
				<stop  offset="1" style="stop-color:#F78146"/>
			</linearGradient>
			<use xlink:href="#SVGID_22_"  style="overflow:visible;fill:url(#SVGID_1_);"/>
			<clipPath id="SVGID_2_">
				<use xlink:href="#SVGID_22_"  style="overflow:visible;"/>
			</clipPath>
		</g>
	</g>
	<path class="st1" d="M124.9,110.2V63.5l-31.9-32l-1-0.4H34.7L31,33.3v55.8v2.5l0.6,1.5l31.8,31.8h46.8
		C118.3,124.9,124.9,118.3,124.9,110.2z"/>
	<g>
		<g>
			<g>
				<path class="st6" d="M45.6,32.8c0.1,0,0.2,0.1,0.2,0.2v12.6c0,0.1-0.1,0.2-0.2,0.2H33c-0.1,0-0.2-0.1-0.2-0.2V33
					c0-0.1,0.1-0.2,0.2-0.2H45.6 M45.6,31.1H33C31.9,31.1,31,32,31,33v12.6c0,1.1,0.9,1.9,1.9,1.9h12.6c1.1,0,1.9-0.9,1.9-1.9V33
					C47.5,32,46.7,31.1,45.6,31.1L45.6,31.1z"/>
			</g>
			<g>
				<path class="st6" d="M91.9,32.8c0.1,0,0.2,0.1,0.2,0.2v12.6c0,0.1-0.1,0.2-0.2,0.2H79.3c-0.1,0-0.2-0.1-0.2-0.2V33
					c0-0.1,0.1-0.2,0.2-0.2H91.9 M91.9,31.1H79.3c-1.1,0-1.9,0.9-1.9,1.9v12.6c0,1.1,0.9,1.9,1.9,1.9h12.6c1.1,0,1.9-0.9,1.9-1.9V33
					C93.9,32,93,31.1,91.9,31.1L91.9,31.1z"/>
			</g>
			<g>
				<path class="st6" d="M68.7,55.9c0.1,0,0.2,0.1,0.2,0.2v12.6c0,0.1-0.1,0.2-0.2,0.2H56.1c-0.1,0-0.2-0.1-0.2-0.2V56.1
					c0-0.1,0.1-0.2,0.2-0.2H68.7 M68.7,54.2H56.1c-1.1,0-1.9,0.9-1.9,1.9v12.6c0,1.1,0.9,1.9,1.9,1.9h12.6c1.1,0,1.9-0.9,1.9-1.9
					V56.1C70.7,55.1,69.8,54.2,68.7,54.2L68.7,54.2z"/>
			</g>
			<g>
				<path class="st6" d="M45.6,79.1c0.1,0,0.2,0.1,0.2,0.2v12.6c0,0.1-0.1,0.2-0.2,0.2H33c-0.1,0-0.2-0.1-0.2-0.2V79.3
					c0-0.1,0.1-0.2,0.2-0.2H45.6 M45.6,77.3H33c-1.1,0-1.9,0.9-1.9,1.9v12.6c0,1.1,0.9,1.9,1.9,1.9h12.6c1.1,0,1.9-0.9,1.9-1.9V79.3
					C47.5,78.2,46.7,77.3,45.6,77.3L45.6,77.3z"/>
			</g>
			<g>
				<path class="st6" d="M91.9,79.1c0.1,0,0.2,0.1,0.2,0.2v12.6c0,0.1-0.1,0.2-0.2,0.2H79.3c-0.1,0-0.2-0.1-0.2-0.2V79.3
					c0-0.1,0.1-0.2,0.2-0.2H91.9 M91.9,77.3H79.3c-1.1,0-1.9,0.9-1.9,1.9v12.6c0,1.1,0.9,1.9,1.9,1.9h12.6c1.1,0,1.9-0.9,1.9-1.9
					V79.3C93.9,78.2,93,77.3,91.9,77.3L91.9,77.3z"/>
			</g>
		</g>
		<path class="st6" d="M45.6,54.2H33c-1.1,0-1.9,0.9-1.9,1.9v12.6c0,1.1,0.9,1.9,1.9,1.9h12.6c1.1,0,1.9-0.9,1.9-1.9V56.1
			C47.5,55.1,46.7,54.2,45.6,54.2z"/>
		<path class="st6" d="M91.9,54.2H79.3c-1.1,0-1.9,0.9-1.9,1.9v12.6c0,1.1,0.9,1.9,1.9,1.9h12.6c1.1,0,1.9-0.9,1.9-1.9V56.1
			C93.9,55.1,93,54.2,91.9,54.2z"/>
		<path class="st6" d="M68.7,77.3H56.1c-1.1,0-1.9,0.9-1.9,1.9v12.6c0,1.1,0.9,1.9,1.9,1.9h12.6c1.1,0,1.9-0.9,1.9-1.9V79.3
			C70.7,78.2,69.8,77.3,68.7,77.3z"/>
		<path class="st6" d="M68.7,31.1H56.1c-1.1,0-1.9,0.9-1.9,1.9v12.6c0,1.1,0.9,1.9,1.9,1.9h12.6c1.1,0,1.9-0.9,1.9-1.9V33
			C70.7,32,69.8,31.1,68.7,31.1z"/>
	</g>
</g>
</svg>
