<?xml version="1.0" encoding="utf-8"?>
<!-- Generator: Adobe Illustrator 22.0.1, SVG Export Plug-In . SVG Version: 6.00 Build 0)  -->
<svg version="1.1" id="Layer_1" xmlns="http://www.w3.org/2000/svg" xmlns:xlink="http://www.w3.org/1999/xlink" x="0px" y="0px"
	 viewBox="0 0 124.9 124.9" style="enable-background:new 0 0 124.9 124.9;" xml:space="preserve">
<style type="text/css">
	.st0{fill:url(#SVGID_1_);}
	.st1{opacity:0.25;}
	.st2{fill-rule:evenodd;clip-rule:evenodd;fill:#FFFFFF;}
	.st3{fill:url(#SVGID_2_);}
	.st4{fill:url(#SVGID_3_);}
	.st5{fill:url(#SVGID_4_);}
	.st6{fill:#FFFFFF;}
	.st7{fill:url(#SVGID_7_);}
	.st8{fill:url(#SVGID_8_);}
	.st9{fill:none;}
	.st10{fill:url(#SVGID_9_);}
	.st11{fill:url(#SVGID_10_);}
	.st12{fill:url(#SVGID_11_);}
	.st13{fill:url(#SVGID_12_);}
	.st14{fill:url(#SVGID_13_);}
	.st15{fill:url(#SVGID_14_);}
	.st16{fill:url(#SVGID_15_);}
	.st17{fill:url(#SVGID_16_);}
	.st18{fill:url(#SVGID_17_);}
	.st19{fill:url(#SVGID_18_);}
	.st20{fill:url(#SVGID_19_);}
	.st21{fill:url(#SVGID_20_);}
	.st22{fill:#C13B11;}
	.st23{fill:#EF6D25;}
	.st24{fill:#DD813F;}
	.st25{fill:#63C1C1;}
	.st26{fill:#148EAF;}
	.st27{fill:#006382;}
	.st28{fill:#6D6E70;}
	.st29{fill:#68BC49;}
	.st30{fill:url(#SVGID_21_);}
	.st31{fill:url(#SVGID_25_);}
	.st32{fill:url(#SVGID_26_);}
	.st33{fill:url(#SVGID_27_);}
	.st34{fill:url(#SVGID_31_);}
	.st35{fill:url(#SVGID_32_);}
	.st36{fill:url(#SVGID_35_);}
</style>
<g>
	<g>
		<linearGradient id="SVGID_1_" gradientUnits="userSpaceOnUse" x1="62.4408" y1="124.8815" x2="62.4408" y2="0">
			<stop  offset="0" style="stop-color:#DD813F"/>
			<stop  offset="1" style="stop-color:#EA9860"/>
		</linearGradient>
		<path class="st0" d="M110.2,0H14.7C6.6,0,0,6.6,0,14.7v95.5c0,8.1,6.6,14.7,14.7,14.7h95.5c8.1,0,14.7-6.6,14.7-14.7V14.7
			C124.9,6.6,118.3,0,110.2,0z"/>
	</g>
	<path class="st1" d="M124.9,110.2V83.7L99.8,57.8l-3.7-1.4L75.2,39.2L67,40.8l-7.6,1.3l-21.8-1.7l8.5,9h-1.9v4h-1.7h-6.3v3.1H18.3
		l-0.1,14.4l54,54h37.9C118.3,124.9,124.9,118.3,124.9,110.2z"/>
	<path class="st6" d="M36.2,56.4H18.4l-0.1,14.4h18V74h6.3V53.4h-6.3V56.4z M39.1,41.8h10.7c0,1.4,1.2,2.6,2.6,2.6h8.8
		c1.4,0,2.6-1.2,2.6-2.6h10.7c0.8,0,1.4-0.6,1.4-1.4s-0.6-1.4-1.4-1.4H63.7c-0.1-1.4-1.2-2.4-2.6-2.4h-8.8c-1.4,0-2.5,1.1-2.6,2.4
		H39.1c-0.8,0-1.4,0.6-1.4,1.4S38.3,41.8,39.1,41.8z M52.2,48.7h9v-3.5h-9V48.7z M103.4,82.2V64.7c0-2.4-0.8-4.3-2.5-5.9
		c-1.6-1.6-3.6-2.4-5.9-2.4H77.2v-3.1h-6.3v20.6h6.3v-3.1h11.6v11.4h-3.2v6.2h21.1v-6.2H103.4z M44.2,77.7h25V49.4h-25V77.7z"/>
</g>
</svg>
