<?xml version="1.0" encoding="utf-8"?>
<!-- Generator: Adobe Illustrator 22.0.1, SVG Export Plug-In . SVG Version: 6.00 Build 0)  -->
<svg version="1.1" id="Layer_1" xmlns="http://www.w3.org/2000/svg" xmlns:xlink="http://www.w3.org/1999/xlink" x="0px" y="0px"
	 viewBox="0 0 124.9 124.9" style="enable-background:new 0 0 124.9 124.9;" xml:space="preserve">
<style type="text/css">
	.st0{fill:url(#SVGID_1_);}
	.st1{opacity:0.25;}
	.st2{fill-rule:evenodd;clip-rule:evenodd;fill:#FFFFFF;}
	.st3{fill:url(#SVGID_2_);}
	.st4{fill:url(#SVGID_3_);}
	.st5{fill:url(#SVGID_4_);}
	.st6{fill:#FFFFFF;}
	.st7{fill:url(#SVGID_7_);}
	.st8{fill:url(#SVGID_8_);}
	.st9{fill:none;}
	.st10{fill:url(#SVGID_9_);}
	.st11{fill:url(#SVGID_10_);}
	.st12{fill:url(#SVGID_11_);}
	.st13{fill:url(#SVGID_12_);}
	.st14{fill:url(#SVGID_13_);}
	.st15{fill:url(#SVGID_14_);}
	.st16{fill:url(#SVGID_15_);}
	.st17{fill:url(#SVGID_16_);}
	.st18{fill:url(#SVGID_17_);}
	.st19{fill:url(#SVGID_18_);}
	.st20{fill:url(#SVGID_19_);}
	.st21{fill:url(#SVGID_20_);}
	.st22{fill:#C13B11;}
	.st23{fill:#EF6D25;}
	.st24{fill:#DD813F;}
	.st25{fill:#63C1C1;}
	.st26{fill:#148EAF;}
	.st27{fill:#006382;}
	.st28{fill:#6D6E70;}
	.st29{fill:#68BC49;}
	.st30{fill:url(#SVGID_21_);}
	.st31{fill:url(#SVGID_25_);}
	.st32{fill:url(#SVGID_26_);}
	.st33{fill:url(#SVGID_27_);}
	.st34{fill:url(#SVGID_31_);}
	.st35{fill:url(#SVGID_32_);}
	.st36{fill:url(#SVGID_35_);}
</style>
<g>
	<g>
		<linearGradient id="SVGID_1_" gradientUnits="userSpaceOnUse" x1="62.4408" y1="124.8815" x2="62.4408" y2="0">
			<stop  offset="0" style="stop-color:#006382"/>
			<stop  offset="1" style="stop-color:#1786A0"/>
		</linearGradient>
		<path class="st0" d="M110.2,0H14.7C6.6,0,0,6.6,0,14.7v95.5c0,8.1,6.6,14.7,14.7,14.7h95.5c8.1,0,14.7-6.6,14.7-14.7V14.7
			C124.9,6.6,118.3,0,110.2,0z"/>
	</g>
	<path class="st1" d="M124.9,110.2V75.6L85.3,36H53.1l-14.5,7.5l-1.8,42.7l38.7,38.7h34.7C118.3,124.9,124.9,118.3,124.9,110.2z"/>
	<path class="st6" d="M78,67.6c-0.7,0-1.2,0.3-1.5,0.8c-0.4,0.5-0.6,1.3-0.6,2.3s0.2,1.8,0.6,2.4c0.4,0.6,0.9,0.9,1.5,0.9
		s1.2-0.3,1.5-0.9c0.4-0.6,0.6-1.4,0.6-2.4s-0.2-1.8-0.6-2.3C79.1,67.9,78.6,67.6,78,67.6z M55.6,67.6c-0.7,0-1.2,0.3-1.5,0.8
		c-0.4,0.5-0.6,1.3-0.6,2.3s0.2,1.8,0.6,2.4c0.4,0.6,0.9,0.9,1.5,0.9c0.7,0,1.2-0.3,1.5-0.9c0.4-0.6,0.6-1.4,0.6-2.4
		s-0.2-1.8-0.6-2.3C56.7,67.9,56.2,67.6,55.6,67.6z M62.4,27.5c-19.3,0-34.9,15.6-34.9,34.9c0,19.3,15.6,34.9,34.9,34.9
		c19.3,0,34.9-15.6,34.9-34.9C97.4,43.1,81.7,27.5,62.4,27.5z M44.5,48.6l0.8,2.3c0.1,0.4,0.3,0.8,0.4,1.2c0.1,0.4,0.3,0.8,0.4,1.2
		h0.1c0.1-0.4,0.3-0.8,0.4-1.2s0.3-0.8,0.4-1.2l0.8-2.3h3l-3.3,7.1v3.8h-2.9v-3.8l-3.3-7.1H44.5z M49.8,76.3h-7V65.4h2.9v8.5h4.1
		V76.3z M60.2,73.2c-0.2,0.7-0.6,1.3-1,1.8c-0.4,0.5-1,0.9-1.6,1.1c-0.6,0.3-1.3,0.4-2.1,0.4c-0.8,0-1.4-0.1-2.1-0.4
		c-0.6-0.3-1.2-0.6-1.6-1.1c-0.4-0.5-0.8-1.1-1-1.8c-0.2-0.7-0.4-1.5-0.4-2.4c0-0.9,0.1-1.7,0.4-2.4c0.2-0.7,0.6-1.3,1-1.8
		c0.4-0.5,1-0.8,1.6-1.1c0.6-0.2,1.3-0.4,2.1-0.4c0.7,0,1.4,0.1,2.1,0.4c0.6,0.2,1.2,0.6,1.6,1.1c0.4,0.5,0.8,1.1,1,1.8
		c0.2,0.7,0.4,1.5,0.4,2.4C60.6,71.7,60.5,72.5,60.2,73.2z M60.8,56.4c-0.2,0.7-0.6,1.3-1,1.8c-0.4,0.5-1,0.9-1.6,1.1
		c-0.6,0.3-1.3,0.4-2.1,0.4c-0.8,0-1.4-0.1-2.1-0.4c-0.6-0.3-1.2-0.6-1.6-1.1c-0.4-0.5-0.8-1.1-1-1.8c-0.2-0.7-0.4-1.5-0.4-2.4
		c0-0.9,0.1-1.7,0.4-2.4c0.2-0.7,0.6-1.3,1-1.8c0.4-0.5,1-0.8,1.6-1.1c0.6-0.2,1.3-0.4,2.1-0.4c0.7,0,1.4,0.1,2.1,0.4
		c0.6,0.2,1.2,0.6,1.6,1.1c0.4,0.5,0.8,1.1,1,1.8c0.2,0.7,0.4,1.5,0.4,2.4C61.2,54.9,61.1,55.7,60.8,56.4z M71.3,75.1
		c-0.4,0.4-0.9,0.7-1.6,0.9c-0.6,0.3-1.4,0.4-2.1,0.4c-0.8,0-1.5-0.1-2.1-0.3c-0.7-0.2-1.3-0.6-1.8-1c-0.5-0.5-0.9-1-1.2-1.7
		s-0.4-1.5-0.4-2.4c0-0.9,0.1-1.7,0.4-2.4c0.3-0.7,0.7-1.3,1.2-1.8c0.5-0.5,1.1-0.9,1.7-1.1c0.7-0.3,1.4-0.4,2.1-0.4
		c0.8,0,1.5,0.1,2.1,0.4c0.6,0.3,1.1,0.6,1.5,1l-1.5,1.8c-0.3-0.2-0.5-0.4-0.8-0.6c-0.3-0.2-0.7-0.2-1.1-0.2c-0.4,0-0.7,0.1-1,0.2
		c-0.3,0.1-0.6,0.4-0.8,0.6c-0.2,0.3-0.4,0.6-0.5,1c-0.1,0.4-0.2,0.8-0.2,1.3c0,1,0.2,1.8,0.7,2.4c0.5,0.5,1.2,0.8,2.2,0.8
		c0.2,0,0.3,0,0.5-0.1c0.2,0,0.3-0.1,0.4-0.2v-1.5h-1.6v-2.3h4.2V75.1z M72.1,54.3c0,1.9-0.4,3.2-1.1,4.1c-0.7,0.9-1.8,1.3-3.4,1.3
		c-1.5,0-2.7-0.4-3.4-1.3c-0.7-0.9-1.1-2.3-1.1-4.1v-5.6H66v6c0,1,0.1,1.7,0.4,2.1c0.3,0.4,0.7,0.6,1.2,0.6c0.6,0,1-0.2,1.3-0.6
		c0.3-0.4,0.4-1.1,0.4-2.1v-6h2.8V54.3z M82.7,73.2c-0.2,0.7-0.6,1.3-1,1.8c-0.4,0.5-1,0.9-1.6,1.1c-0.6,0.3-1.3,0.4-2.1,0.4
		c-0.8,0-1.4-0.1-2.1-0.4c-0.6-0.3-1.2-0.6-1.6-1.1c-0.4-0.5-0.8-1.1-1-1.8c-0.2-0.7-0.4-1.5-0.4-2.4c0-0.9,0.1-1.7,0.4-2.4
		c0.2-0.7,0.6-1.3,1-1.8c0.4-0.5,1-0.8,1.6-1.1c0.6-0.2,1.3-0.4,2.1-0.4c0.7,0,1.4,0.1,2.1,0.4c0.6,0.2,1.2,0.6,1.6,1.1
		c0.4,0.5,0.8,1.1,1,1.8c0.2,0.7,0.4,1.5,0.4,2.4C83,71.7,82.9,72.5,82.7,73.2z M80.3,59.5l-1.9-3.7h-1.1v3.7h-2.9V48.6h4.1
		c0.6,0,1.1,0.1,1.7,0.2c0.5,0.1,1,0.3,1.4,0.6c0.4,0.3,0.7,0.6,0.9,1.1s0.4,1,0.4,1.7c0,0.8-0.2,1.4-0.5,1.9
		c-0.3,0.5-0.7,0.9-1.3,1.2l2.4,4.2H80.3z M56.1,50.9c-0.7,0-1.2,0.3-1.5,0.8S54,53,54,54s0.2,1.8,0.6,2.4c0.4,0.6,0.9,0.9,1.5,0.9
		c0.7,0,1.2-0.3,1.5-0.9c0.4-0.6,0.6-1.4,0.6-2.4s-0.2-1.8-0.6-2.3C57.3,51.2,56.8,50.9,56.1,50.9z M78.3,50.9h-1v2.7h1
		c1.2,0,1.7-0.5,1.7-1.4c0-0.5-0.1-0.8-0.4-1S78.9,50.9,78.3,50.9z"/>
</g>
</svg>
