<?xml version="1.0" encoding="utf-8"?>
<!-- Generator: Adobe Illustrator 22.0.1, SVG Export Plug-In . SVG Version: 6.00 Build 0)  -->
<svg version="1.1" id="Layer_1" xmlns="http://www.w3.org/2000/svg" xmlns:xlink="http://www.w3.org/1999/xlink" x="0px" y="0px"
	 viewBox="0 0 124.9 124.9" style="enable-background:new 0 0 124.9 124.9;" xml:space="preserve">
<style type="text/css">
	.st0{fill:url(#SVGID_1_);}
	.st1{opacity:0.25;}
	.st2{fill-rule:evenodd;clip-rule:evenodd;fill:#FFFFFF;}
	.st3{fill:url(#SVGID_2_);}
	.st4{fill:url(#SVGID_3_);}
	.st5{fill:url(#SVGID_4_);}
	.st6{fill:#FFFFFF;}
	.st7{fill:url(#SVGID_7_);}
	.st8{fill:url(#SVGID_8_);}
	.st9{fill:none;}
	.st10{fill:url(#SVGID_9_);}
	.st11{fill:url(#SVGID_10_);}
	.st12{fill:url(#SVGID_11_);}
	.st13{fill:url(#SVGID_12_);}
	.st14{fill:url(#SVGID_13_);}
	.st15{fill:url(#SVGID_14_);}
	.st16{fill:url(#SVGID_15_);}
	.st17{fill:url(#SVGID_16_);}
	.st18{fill:url(#SVGID_17_);}
	.st19{fill:url(#SVGID_18_);}
	.st20{fill:url(#SVGID_19_);}
	.st21{fill:url(#SVGID_20_);}
	.st22{fill:#C13B11;}
	.st23{fill:#EF6D25;}
	.st24{fill:#DD813F;}
	.st25{fill:#63C1C1;}
	.st26{fill:#148EAF;}
	.st27{fill:#006382;}
	.st28{fill:#6D6E70;}
	.st29{fill:#68BC49;}
	.st30{fill:url(#SVGID_21_);}
	.st31{fill:url(#SVGID_25_);}
	.st32{fill:url(#SVGID_26_);}
	.st33{fill:url(#SVGID_27_);}
	.st34{fill:url(#SVGID_31_);}
	.st35{fill:url(#SVGID_32_);}
	.st36{fill:url(#SVGID_35_);}
</style>
<g>
	<g>
		<g>
			<g>
				<g>
					<linearGradient id="SVGID_1_" gradientUnits="userSpaceOnUse" x1="62.4408" y1="124.8815" x2="62.4408" y2="0">
						<stop  offset="0" style="stop-color:#63C1C1"/>
						<stop  offset="1" style="stop-color:#8ADBD8"/>
					</linearGradient>
					<path class="st0" d="M110.2,0H14.7C6.6,0,0,6.6,0,14.7v95.5c0,8.1,6.6,14.7,14.7,14.7h95.5c8.1,0,14.7-6.6,14.7-14.7V14.7
						C124.9,6.6,118.3,0,110.2,0z"/>
				</g>
			</g>
		</g>
	</g>
	<path class="st1" d="M98,33.5l-2.3,11.9l-13,4.3L83,61H45.4l-1.2-13.5l-10.5,2l-6.5,41.9l33.5,33.5h49.5c8.1,0,14.7-6.6,14.7-14.7
		V61.4L98,33.5z"/>
	<path class="st2" d="M95.3,33.5v2.6H94v-2.6h-2.6v2.6h-2v-2.6h-2.6v2.6h-2v-2.6h-2.6v2.6h-2v-2.6h-2.6v6.6h0l2.3,4.6h15.7l2.3-4.6
		v-6.6H95.3z M45,44.7l2.3-4.6v-6.6h-2.6v2.6h-1.3v-2.6h-2.6v2.6h-2v-2.6h-2.6v2.6h-2v-2.6h-2.6v2.6h-2v-2.6h-2.6v6.6h0l2.3,4.6H45z
		 M78.9,45.3l-0.6,12.5h-0.7v-3.9h-2.6v3.9h-2v-3.9h-2.6v3.9h-2v-3.9h-2.6v3.9h-2v-3.9h-2.6v3.9h-2v-3.9h-2.6v3.9h-2v-3.9h-2.6v3.9
		h-2v-3.9h-2.6v3.9H47l-0.6-12.5H29.5l-2.3,46.1h31.3v-6.6c0-2.5,2.1-4.6,4.6-4.6c2.5,0,4.6,2.1,4.6,4.6v6.6H98l-2.3-46.1H78.9z
		 M36.1,52.6h2.6v3.9h-2.6V52.6z M36.1,65.7h2.6v4.6h-2.6V65.7z M39.4,86.1h-3.9v-5.9h3.9V86.1z M57.8,70.4H52v-4.7h5.8V70.4z
		 M73.6,70.4h-5.8v-4.7h5.8V70.4z M86.8,52.6h2.6v3.9h-2.6V52.6z M86.8,65.7h2.6v4.6h-2.6V65.7z M90.1,86.1h-3.9v-5.9h3.9V86.1z"/>
</g>
</svg>
