<?xml version="1.0" encoding="utf-8"?>
<!-- Generator: Adobe Illustrator 22.0.1, SVG Export Plug-In . SVG Version: 6.00 Build 0)  -->
<svg version="1.1" id="Layer_1" xmlns="http://www.w3.org/2000/svg" xmlns:xlink="http://www.w3.org/1999/xlink" x="0px" y="0px"
	 viewBox="0 0 124.9 124.9" style="enable-background:new 0 0 124.9 124.9;" xml:space="preserve">
<style type="text/css">
	.st0{fill:url(#SVGID_1_);}
	.st1{opacity:0.25;}
	.st2{fill-rule:evenodd;clip-rule:evenodd;fill:#FFFFFF;}
	.st3{fill:url(#SVGID_2_);}
	.st4{fill:url(#SVGID_3_);}
	.st5{fill:url(#SVGID_4_);}
	.st6{fill:#FFFFFF;}
	.st7{fill:url(#SVGID_7_);}
	.st8{fill:url(#SVGID_8_);}
	.st9{fill:none;}
	.st10{fill:url(#SVGID_9_);}
	.st11{fill:url(#SVGID_10_);}
	.st12{fill:url(#SVGID_11_);}
	.st13{fill:url(#SVGID_12_);}
	.st14{fill:url(#SVGID_13_);}
	.st15{fill:url(#SVGID_14_);}
	.st16{fill:url(#SVGID_15_);}
	.st17{fill:url(#SVGID_16_);}
	.st18{fill:url(#SVGID_17_);}
	.st19{fill:url(#SVGID_18_);}
	.st20{fill:url(#SVGID_19_);}
	.st21{fill:url(#SVGID_20_);}
	.st22{fill:#C13B11;}
	.st23{fill:#EF6D25;}
	.st24{fill:#DD813F;}
	.st25{fill:#63C1C1;}
	.st26{fill:#148EAF;}
	.st27{fill:#006382;}
	.st28{fill:#6D6E70;}
	.st29{fill:#68BC49;}
	.st30{fill:url(#SVGID_21_);}
	.st31{fill:url(#SVGID_25_);}
	.st32{fill:url(#SVGID_26_);}
	.st33{fill:url(#SVGID_27_);}
	.st34{fill:url(#SVGID_31_);}
	.st35{fill:url(#SVGID_32_);}
	.st36{fill:url(#SVGID_35_);}
</style>
<g>
	<g>
		<g>
			<g>
				<g>
					<linearGradient id="SVGID_1_" gradientUnits="userSpaceOnUse" x1="62.4408" y1="124.8815" x2="62.4408" y2="0">
						<stop  offset="0" style="stop-color:#006382"/>
						<stop  offset="1" style="stop-color:#1786A0"/>
					</linearGradient>
					<path class="st0" d="M110.2,0H14.7C6.6,0,0,6.6,0,14.7v95.5c0,8.1,6.6,14.7,14.7,14.7h95.5c8.1,0,14.7-6.6,14.7-14.7V14.7
						C124.9,6.6,118.3,0,110.2,0z"/>
				</g>
			</g>
		</g>
	</g>
	<path class="st1" d="M124.9,110.2V68.7l-35-35.4l-13.5,3.6l-25.9-2.2l-15.7,8.8l-2,27.9L37.5,88l36.9,36.9h35.7
		C118.3,124.9,124.9,118.3,124.9,110.2z"/>
	<path class="st6" d="M72.8,49.2l-8,8.6c-0.9-0.6-1.9-0.9-3-0.9c-1.2,0-2.3,0.4-3.2,1L54,53.1c-0.9-0.9-2.2-1.1-3-0.3
		c-0.8,0.7-0.7,2.1,0.2,3l5.2,5.5c-0.1,0.4-0.1,0.7-0.1,1.1c0,3,2.5,5.5,5.5,5.5c3,0,5.5-2.5,5.5-5.5c0-0.5-0.1-0.9-0.2-1.3l8.6-9.2
		c0.9-0.9,0.9-2.3,0.1-3C75,48.1,73.7,48.3,72.8,49.2z M99.8,58.3v2.1H97c-0.4-7.3-3.1-14-7.3-19.4l3.9-4l-7.9-7.8l-4.1,4.2
		c-5.6-3.8-12.4-6.1-19.8-6.1c-19.5,0-35.2,15.8-35.2,35.2s15.8,35.2,35.2,35.2c7.5,0,14.5-2.4,20.2-6.4l4.7,4.7l7.8-7.9L90,83.5
		c3.8-5.1,6.3-11.3,6.9-18h2.8v2.1h4.7v-9.4H99.8z M61.8,88c-14.1,0-25.5-11.4-25.5-25.5c0-14.1,11.4-25.5,25.5-25.5
		c14.1,0,25.5,11.4,25.5,25.5C87.3,76.5,75.9,88,61.8,88z"/>
</g>
</svg>
