<?xml version="1.0" encoding="utf-8"?>
<!-- Generator: Adobe Illustrator 22.0.1, SVG Export Plug-In . SVG Version: 6.00 Build 0)  -->
<svg version="1.1" id="Layer_1" xmlns="http://www.w3.org/2000/svg" xmlns:xlink="http://www.w3.org/1999/xlink" x="0px" y="0px"
	 viewBox="0 0 124.9 124.9" style="enable-background:new 0 0 124.9 124.9;" xml:space="preserve">
<style type="text/css">
	.st0{fill:url(#SVGID_1_);}
	.st1{opacity:0.25;enable-background:new    ;}
	.st2{fill:#FFFFFF;}
</style>
<g>
	<g>
		
			<linearGradient id="SVGID_1_" gradientUnits="userSpaceOnUse" x1="62.45" y1="1.1" x2="62.45" y2="126" gradientTransform="matrix(1 0 0 -1 0 126)">
			<stop  offset="0" style="stop-color:#148EAF"/>
			<stop  offset="1" style="stop-color:#34ABC6"/>
		</linearGradient>
		<path class="st0" d="M110.2,0H14.7C6.6,0,0,6.6,0,14.7v95.5c0,8.1,6.6,14.7,14.7,14.7h95.5c8.1,0,14.7-6.6,14.7-14.7V14.7
			C124.9,6.6,118.3,0,110.2,0z"/>
	</g>
	<path class="st1" d="M78.1,47.7l-3.7-6.6l-4.6-2.6l-0.8-6l-1.8-3.7l-5.8,0.8l-1.7,7.8L54,39l-2.8,7.6l-22,2.9v47.8l27.6,27.6h53.4
		c8.1,0,14.7-6.6,14.7-14.7V74.5L95.3,44.7L78.1,47.7z"/>
	<path class="st2" d="M62.1,81.6h27.5v-1.5H62.1V81.6z M62.1,85.2h27.5v-1.4H62.1V85.2z M62.1,74.4h27.5v-1.5H62.1V74.4z M62.1,70.8
		h27.5v-1.4H62.1V70.8z M62.1,78h27.5v-1.4H62.1V78z M62.1,67.2h27.5v-6.5H62.1V67.2z M96.8,91.1l-0.1-43.6c0-1.9-1.6-3.5-3.5-3.5
		H79.3l-3.4-6.5C75.7,37.1,72,36,71.4,36h-0.6v-5.8l-2-3.6H60l-2,3.6h-0.1V36h-1.4c-0.7,0-4.4,1.1-4.6,1.5L48.4,44H31.6
		c-1.9,0-3.5,1.6-3.5,3.5v47.2c0,1.9,1.6,3.5,3.5,3.5h61.7c1.9,0,3.5-1.6,3.5-3.5V91.1C96.8,91.2,96.8,91.1,96.8,91.1z M64.2,29.5
		c1.6,0,2.9,1.3,2.9,2.9c0,1.6-1.3,2.9-2.9,2.9s-2.9-1.3-2.9-2.9C61.4,30.8,62.7,29.5,64.2,29.5z M53.4,43.3c0-1.2,1-2.2,2.2-2.2
		h16.6c1.2,0,2.2,1,2.2,2.2V44l0,0c0,0.6-0.2,1.1-0.6,1.5l0,0c-0.2,0.2-0.4,0.3-0.7,0.5H73c-0.1,0-0.2,0.1-0.3,0.1
		c-0.1,0-0.3,0-0.4,0H55.6c-0.1,0-0.3,0-0.4,0c-0.1,0-0.2-0.1-0.3-0.1c0,0,0,0-0.1,0c-0.8-0.3-1.3-1.1-1.3-2l0,0L53.4,43.3
		L53.4,43.3z M94.8,93.3c-0.1,0.2-0.2,0.3-0.3,0.4l0,0c-0.5,0.5-1.3,0.9-2.1,0.9l0,0H33.2l0,0c-0.8,0-1.5-0.3-2.1-0.9l0,0
		c-0.1-0.1-0.2-0.3-0.3-0.4c0,0-0.1-0.1-0.1-0.2c-0.1-0.1-0.1-0.2-0.2-0.4c0-0.1-0.1-0.2-0.1-0.3c0-0.1-0.1-0.2-0.1-0.3
		c0-0.2-0.1-0.4-0.1-0.6V54.2c0-1.7,1.3-3,2.9-3h59.1c1.6,0,2.9,1.3,2.9,3v37.4C95.1,92.2,94.9,92.9,94.8,93.3z M36,85.2h1.4
		c0,0,2.1-4.1,5.4-6.3c-1.9-1.4-3.1-3.8-3.1-6.4c0-4.3,3.2-7.8,7.1-7.8s7.1,3.5,7.1,7.8c0,2.7-1.2,5-3.1,6.4c3.1,2.2,4.9,6.2,5,6.3
		h2.7V60.6H36V85.2z"/>
</g>
</svg>
