<?xml version="1.0" encoding="UTF-8"?>
<svg id="Layer_1" xmlns="http://www.w3.org/2000/svg" xmlns:xlink="http://www.w3.org/1999/xlink" version="1.1" viewBox="0 0 124.9 124.9">
  <!-- Generator: Adobe Illustrator 29.5.1, SVG Export Plug-In . SVG Version: 2.1.0 Build 141)  -->
  <defs>
    <style>
      .st0 {
        isolation: isolate;
        opacity: .2;
      }

      .st1 {
        fill: url(#linear-gradient);
      }

      .st2 {
        fill: #fff;
      }
    </style>
    <linearGradient id="linear-gradient" x1="62.4" y1="1.1" x2="62.4" y2="126" gradientTransform="translate(0 126) scale(1 -1)" gradientUnits="userSpaceOnUse">
      <stop offset="0" stop-color="#c13b11"/>
      <stop offset="1" stop-color="#db5531"/>
    </linearGradient>
  </defs>
  <path class="st1" d="M110.2,0H14.7C6.6,0,0,6.6,0,14.7v95.5c0,8.1,6.6,14.7,14.7,14.7h95.5c8.1,0,14.7-6.6,14.7-14.7V14.7c0-8.1-6.6-14.7-14.7-14.7Z"/>
  <path class="st0" d="M87.5,30.2h-23.5s-1.8-10.3-1.8-10.3l-6.1-.2-2.5,10.4h-21s-1.1,71.6-1.1,71.6l23,23.1h55.7c8.1,0,14.7-6.6,14.7-14.7v-42.5l-37.4-37.4Z"/>
  <path class="st2" d="M46.6,31.2c.8.8,1.8,1.2,3,1.2h19.5c1.2,0,2.2-.5,3-1.2.1-.1.3-.3.4-.4.6-.7.9-1.6.9-2.6v-3.9h-6.9c0-.3,0-.6,0-.9,0-1.9-.7-3.7-2.1-5.1-1.4-1.4-3.1-2.1-5.1-2.1s-3.7.7-5.1,2.1c-1.4,1.4-2.1,3.1-2.1,5.1s0,.6,0,.9h-7v3.9c0,1,.3,1.9.9,2.6.1.2.2.3.4.4ZM59.4,20.4c1.6,0,2.9,1.3,2.9,2.9s0,.6-.2.9c-.4,1.1-1.5,2-2.7,2s-2.3-.8-2.7-2c0-.3-.2-.6-.2-.9,0-1.6,1.3-2.9,2.9-2.9ZM37.5,36.5v58.7c0,1.1.9,2,2,2h30.3c.2-6.7,5.1-12.2,11.5-13.2v-47.5c0-1.1-.9-2-2-2h-39.8c-1.1,0-2,.9-2,2ZM51.8,43.2h24.7v3.1h-24.7v-3.1ZM51.5,55.5h24.7v3.1h-24.7v-3.1ZM51.1,67.8h24.7v3.1h-24.7v-3.1ZM50.8,80.1h24.7v3.1h-24.7v-3.1ZM44.4,42.1c1.4,0,2.6,1.2,2.6,2.6s-1.2,2.6-2.6,2.6-2.6-1.2-2.6-2.6,1.2-2.6,2.6-2.6ZM44.4,54.4c1.4,0,2.6,1.2,2.6,2.6s-1.2,2.6-2.6,2.6-2.6-1.2-2.6-2.6,1.2-2.6,2.6-2.6ZM44.4,66.7c1.4,0,2.6,1.2,2.6,2.6s-1.2,2.6-2.6,2.6-2.6-1.2-2.6-2.6,1.2-2.6,2.6-2.6ZM44.4,79c1.4,0,2.6,1.2,2.6,2.6s-1.2,2.6-2.6,2.6-2.6-1.2-2.6-2.6,1.2-2.6,2.6-2.6ZM88.5,87.5v-54.1c0-3.1-2.6-5.7-5.7-5.7h-13.6v.5c0,1.1-.2,2.1-.7,3.1h14.3c1.2,0,2.2,1,2.2,2.2v53c-.5,0-1-.1-1.5-.1-6.2,0-11.2,5-11.2,11.2s.1,2,.4,2.9h-36.7c-1.2,0-2.2-1-2.2-2.2V33.4c0-1.2,1-2.2,2.2-2.2h12.9c-.5-.9-.7-2-.7-3.1v-.5h-12.2c-3.1,0-5.7,2.6-5.7,5.7v64.8c0,3.1,2.6,5.7,5.7,5.7h38.3c2,2.9,5.4,4.8,9.2,4.8,6.2,0,11.2-5,11.2-11.2s-2.5-8.2-6.2-10ZM83.4,105.7c-4.5,0-8.2-3.7-8.2-8.2s3.7-8.2,8.2-8.2,8.2,3.7,8.2,8.2-3.7,8.2-8.2,8.2ZM86.5,92.5l-3,3-3-3-2,2,3,3-3,3,2,2,3-3,3,3,2-2-3-3,3-3-2-2Z"/>
</svg>