<?xml version="1.0" encoding="utf-8"?>
<!-- Generator: Adobe Illustrator 22.0.1, SVG Export Plug-In . SVG Version: 6.00 Build 0)  -->
<svg version="1.1" id="Layer_1" xmlns="http://www.w3.org/2000/svg" xmlns:xlink="http://www.w3.org/1999/xlink" x="0px" y="0px"
	 viewBox="0 0 124.9 124.9" style="enable-background:new 0 0 124.9 124.9;" xml:space="preserve">
<style type="text/css">
	.st0{fill:url(#SVGID_1_);}
	.st1{opacity:0.25;}
	.st2{fill-rule:evenodd;clip-rule:evenodd;fill:#FFFFFF;}
	.st3{fill:url(#SVGID_2_);}
	.st4{fill:url(#SVGID_3_);}
	.st5{fill:url(#SVGID_4_);}
	.st6{fill:#FFFFFF;}
	.st7{fill:url(#SVGID_7_);}
	.st8{fill:url(#SVGID_8_);}
	.st9{fill:none;}
	.st10{fill:url(#SVGID_9_);}
	.st11{fill:url(#SVGID_10_);}
	.st12{fill:url(#SVGID_11_);}
	.st13{fill:url(#SVGID_12_);}
	.st14{fill:url(#SVGID_13_);}
	.st15{fill:url(#SVGID_14_);}
	.st16{fill:url(#SVGID_15_);}
	.st17{fill:url(#SVGID_16_);}
	.st18{fill:url(#SVGID_17_);}
	.st19{fill:url(#SVGID_18_);}
	.st20{fill:url(#SVGID_19_);}
	.st21{fill:url(#SVGID_20_);}
	.st22{fill:#C13B11;}
	.st23{fill:#EF6D25;}
	.st24{fill:#DD813F;}
	.st25{fill:#63C1C1;}
	.st26{fill:#148EAF;}
	.st27{fill:#006382;}
	.st28{fill:#6D6E70;}
	.st29{fill:#68BC49;}
	.st30{fill:url(#SVGID_21_);}
	.st31{fill:url(#SVGID_25_);}
	.st32{fill:url(#SVGID_26_);}
	.st33{fill:url(#SVGID_27_);}
	.st34{fill:url(#SVGID_31_);}
	.st35{fill:url(#SVGID_32_);}
	.st36{fill:url(#SVGID_35_);}
</style>
<g>
	<g>
		<linearGradient id="SVGID_1_" gradientUnits="userSpaceOnUse" x1="62.4408" y1="124.8818" x2="62.4408" y2="2.403966e-04">
			<stop  offset="0" style="stop-color:#C13B11"/>
			<stop  offset="1" style="stop-color:#DB5531"/>
		</linearGradient>
		<path class="st0" d="M110.2,0H14.7C6.6,0,0,6.6,0,14.7v95.5c0,8.1,6.6,14.7,14.7,14.7h95.5c8.1,0,14.7-6.6,14.7-14.7V14.7
			C124.9,6.6,118.3,0,110.2,0z"/>
	</g>
	<path class="st1" d="M97.6,30.9H23.8v26.6l23.4,24.6l-2.9,1.2v1.4l12.4,1.6l-5.5-0.1l-17-0.2l-8.7,6.5l32.6,32.2h52.1
		c8.1,0,14.7-6.6,14.7-14.7V58.1L97.6,30.9"/>
	<g>
		<defs>
			<path id="SVGID_5_" d="M110.2,0H14.7C6.6,0,0,6.6,0,14.7v95.5c0,8.1,6.6,14.7,14.7,14.7h95.5c8.1,0,14.7-6.6,14.7-14.7V14.7
				C124.9,6.6,118.3,0,110.2,0"/>
		</defs>
		<clipPath id="SVGID_2_">
			<use xlink:href="#SVGID_5_"  style="overflow:visible;"/>
		</clipPath>
	</g>
	<path class="st6" d="M55.3,94c-3,0-5.6-1.8-7-4.3H30.9c-1.2,1.8-3.2,2.9-5.5,2.9c0,0-0.1,0-0.1,0V79.2c0,0,0.1,0,0.1,0
		c2.4,0,4.4,1.2,5.6,3.1h17.3c0.7-1.4,1.9-2.6,3.3-3.3V64.2H59V79c2.5,1.3,4.2,4,4.2,7C63.2,90.4,59.7,94,55.3,94z M97.1,52.9H89
		l-2.2,4.7H68.4v2.8c0,1.2-1,2.2-2.2,2.2H47.6c-1.2,0-2.2-1-2.2-2.2v-2.8H23.8V44.6h73.3V52.9z M97.1,40.4v2.3H23.8V30.9h73.9
		l-3.3,8v1.5H97.1z"/>
</g>
</svg>
