<?xml version="1.0" encoding="utf-8"?>
<!-- Generator: Adobe Illustrator 22.0.1, SVG Export Plug-In . SVG Version: 6.00 Build 0)  -->
<svg version="1.1" id="Layer_1" xmlns="http://www.w3.org/2000/svg" xmlns:xlink="http://www.w3.org/1999/xlink" x="0px" y="0px"
	 viewBox="0 0 124.9 124.9" style="enable-background:new 0 0 124.9 124.9;" xml:space="preserve">
<style type="text/css">
	.st0{fill:url(#SVGID_1_);}
	.st1{opacity:0.25;}
	.st2{fill-rule:evenodd;clip-rule:evenodd;fill:#FFFFFF;}
	.st3{fill:url(#SVGID_2_);}
	.st4{fill:url(#SVGID_3_);}
	.st5{fill:url(#SVGID_4_);}
	.st6{fill:#FFFFFF;}
	.st7{fill:url(#SVGID_7_);}
	.st8{fill:url(#SVGID_8_);}
	.st9{fill:none;}
	.st10{fill:url(#SVGID_9_);}
	.st11{fill:url(#SVGID_10_);}
	.st12{fill:url(#SVGID_11_);}
	.st13{fill:url(#SVGID_12_);}
	.st14{fill:url(#SVGID_13_);}
	.st15{fill:url(#SVGID_14_);}
	.st16{fill:url(#SVGID_15_);}
	.st17{fill:url(#SVGID_16_);}
	.st18{fill:url(#SVGID_17_);}
	.st19{fill:url(#SVGID_18_);}
	.st20{fill:url(#SVGID_19_);}
	.st21{fill:url(#SVGID_20_);}
	.st22{fill:#C13B11;}
	.st23{fill:#EF6D25;}
	.st24{fill:#DD813F;}
	.st25{fill:#63C1C1;}
	.st26{fill:#148EAF;}
	.st27{fill:#006382;}
	.st28{fill:#6D6E70;}
	.st29{fill:#68BC49;}
	.st30{fill:url(#SVGID_21_);}
	.st31{fill:url(#SVGID_25_);}
	.st32{fill:url(#SVGID_26_);}
	.st33{fill:url(#SVGID_27_);}
	.st34{fill:url(#SVGID_31_);}
	.st35{fill:url(#SVGID_32_);}
	.st36{fill:url(#SVGID_35_);}
</style>
<g>
	<g>
		<g>
			<g>
				<g>
					<linearGradient id="SVGID_1_" gradientUnits="userSpaceOnUse" x1="62.4408" y1="124.8815" x2="62.4408" y2="0">
						<stop  offset="0" style="stop-color:#63C1C1"/>
						<stop  offset="1" style="stop-color:#8ADBD8"/>
					</linearGradient>
					<path class="st0" d="M110.2,0H14.7C6.6,0,0,6.6,0,14.7v95.5c0,8.1,6.6,14.7,14.7,14.7h95.5c8.1,0,14.7-6.6,14.7-14.7V14.7
						C124.9,6.6,118.3,0,110.2,0z"/>
				</g>
			</g>
		</g>
	</g>
	<path class="st1" d="M124.9,110.2V85.9L73.5,35.4l-20.1,4.8l-6.5,25.4l-8.2,26.1l33.1,33.1h38.3
		C118.3,124.9,124.9,118.3,124.9,110.2z"/>
	<path class="st2" d="M86.2,60.9c-0.8-0.8-1.8-1.2-2.9-1.2h-1.4v-8.3c0-5.3-1.9-9.9-5.7-13.7c-3.8-3.8-8.4-5.7-13.7-5.7
		c-5.3,0-9.9,1.9-13.7,5.7c-3.8,3.8-5.7,8.4-5.7,13.7v8.3h-1.4c-1.2,0-2.1,0.4-2.9,1.2c-0.8,0.8-1.2,1.8-1.2,2.9v25
		c0,1.2,0.4,2.1,1.2,2.9c0.8,0.8,1.8,1.2,2.9,1.2h41.5c1.2,0,2.1-0.4,2.9-1.2c0.8-0.8,1.2-1.8,1.2-2.9v-25
		C87.4,62.7,87,61.7,86.2,60.9z M65.3,80.7c1.2,3-0.3,5.5-3.3,5.5c-3.1,0-4.7-2.5-3.7-5.6c1-3.1,1.9-5.6,1.9-5.6
		c-1.4-0.7-2.4-2.1-2.4-3.8c0-2.3,1.9-4.2,4.2-4.2c2.3,0,4.2,1.9,4.2,4.2c0,1.9-1.3,3.6-3.1,4.1L65.3,80.7z M73.5,59.7H51.4v-8.3
		c0-3.1,1.1-5.7,3.2-7.8c2.2-2.2,4.8-3.3,7.8-3.3c3.1,0,5.7,1.1,7.8,3.3c2.2,2.2,3.2,4.8,3.2,7.8V59.7z"/>
</g>
</svg>
