<?xml version="1.0" encoding="utf-8"?>
<!-- Generator: Adobe Illustrator 22.0.1, SVG Export Plug-In . SVG Version: 6.00 Build 0)  -->
<svg version="1.1" id="Layer_1" xmlns="http://www.w3.org/2000/svg" xmlns:xlink="http://www.w3.org/1999/xlink" x="0px" y="0px"
	 viewBox="0 0 124.9 124.9" style="enable-background:new 0 0 124.9 124.9;" xml:space="preserve">
<style type="text/css">
	.st0{fill:url(#SVGID_1_);}
	.st1{opacity:0.25;}
	.st2{fill-rule:evenodd;clip-rule:evenodd;fill:#FFFFFF;}
	.st3{fill:url(#SVGID_2_);}
	.st4{fill:url(#SVGID_3_);}
	.st5{fill:url(#SVGID_4_);}
	.st6{fill:#FFFFFF;}
	.st7{fill:url(#SVGID_7_);}
	.st8{fill:url(#SVGID_8_);}
	.st9{fill:none;}
	.st10{fill:url(#SVGID_9_);}
	.st11{fill:url(#SVGID_10_);}
	.st12{fill:url(#SVGID_11_);}
	.st13{fill:url(#SVGID_12_);}
	.st14{fill:url(#SVGID_13_);}
	.st15{fill:url(#SVGID_14_);}
	.st16{fill:url(#SVGID_15_);}
	.st17{fill:url(#SVGID_16_);}
	.st18{fill:url(#SVGID_17_);}
	.st19{fill:url(#SVGID_18_);}
	.st20{fill:url(#SVGID_19_);}
	.st21{fill:url(#SVGID_20_);}
	.st22{fill:#C13B11;}
	.st23{fill:#EF6D25;}
	.st24{fill:#DD813F;}
	.st25{fill:#63C1C1;}
	.st26{fill:#148EAF;}
	.st27{fill:#006382;}
	.st28{fill:#6D6E70;}
	.st29{fill:#68BC49;}
	.st30{fill:url(#SVGID_21_);}
	.st31{fill:url(#SVGID_25_);}
	.st32{fill:url(#SVGID_26_);}
	.st33{fill:url(#SVGID_27_);}
	.st34{fill:url(#SVGID_31_);}
	.st35{fill:url(#SVGID_32_);}
	.st36{fill:url(#SVGID_35_);}
</style>
<g>
	<g>
		<g>
			<g>
				<g>
					<linearGradient id="SVGID_1_" gradientUnits="userSpaceOnUse" x1="62.4408" y1="124.8815" x2="62.4408" y2="0">
						<stop  offset="0" style="stop-color:#006382"/>
						<stop  offset="1" style="stop-color:#1786A0"/>
					</linearGradient>
					<path class="st0" d="M110.2,0H14.7C6.6,0,0,6.6,0,14.7v95.5c0,8.1,6.6,14.7,14.7,14.7h95.5c8.1,0,14.7-6.6,14.7-14.7V14.7
						C124.9,6.6,118.3,0,110.2,0z"/>
				</g>
			</g>
		</g>
	</g>
	<path class="st1" d="M85.9,36.6l-8-4.2H46.8l-8.5,5.7L32,46.7v31.6l6.2,9.3l37.2,37.2h34.7c8.1,0,14.7-6.6,14.7-14.7V75.7
		L85.9,36.6z"/>
	<path class="st2" d="M97.4,62.4c0-6.1-1.6-11.8-4.3-16.8l0,0c0,0,0,0,0,0c-3.2-5.7-7.9-10.4-13.6-13.6c0,0,0,0-0.1,0
		c-5-2.8-10.8-4.4-17-4.4c-6.1,0-11.8,1.6-16.8,4.3l0,0c0,0,0,0-0.1,0c-5.8,3.2-10.5,8-13.7,13.8l0,0c-2.7,5-4.3,10.7-4.3,16.8
		c0,6,1.5,11.6,4.2,16.5c0.1,0.1,0.1,0.2,0.2,0.3c3.2,5.8,8,10.5,13.7,13.7c0,0,0,0,0.1,0l0,0c5,2.7,10.7,4.3,16.8,4.3
		c6.2,0,12-1.6,17-4.4l0,0c0,0,0,0,0.1,0c5.7-3.2,10.3-7.9,13.5-13.5c0.1-0.1,0.1-0.2,0.1-0.3C95.8,74.2,97.4,68.5,97.4,62.4z
		 M70.5,77.3c-0.1,0.1-0.3,0.2-0.4,0.3c-2.3,1.2-4.8,1.8-7.6,1.8c-2.7,0-5.2-0.6-7.5-1.8c-0.2-0.1-0.3-0.2-0.5-0.3
		c-2.8-1.5-5.1-3.8-6.7-6.6c-0.1-0.2-0.2-0.4-0.3-0.5c-1.2-2.3-1.8-4.9-1.8-7.6c0-2.7,0.6-5.2,1.7-7.4c0.2-0.2,0.3-0.5,0.4-0.7
		c1.5-2.8,3.8-5.1,6.6-6.6l0,0c2.4-1.3,5.1-2.1,8.1-2.1c2.9,0,5.7,0.8,8.1,2.1l0,0c0,0,0,0,0,0c2.8,1.5,5.1,3.9,6.6,6.6
		c1.3,2.4,2,5.1,2,8c0,2.9-0.8,5.7-2.1,8.1l0,0C75.7,73.4,73.3,75.7,70.5,77.3z M91.6,46.4C91.6,46.4,91.6,46.4,91.6,46.4l-12.9,7.3
		c-1.7-3.1-4.2-5.6-7.2-7.3c0,0,0,0,0,0l7.2-13c0,0,0,0,0,0C84.1,36.4,88.6,40.9,91.6,46.4z M46.3,33.3
		C46.4,33.3,46.4,33.3,46.3,33.3l7.3,13c-3.1,1.7-5.6,4.2-7.3,7.3c0,0,0,0,0,0l-13.1-7.2C36.3,40.9,40.8,36.4,46.3,33.3z M46.4,91.6
		c-5.5-3-9.9-7.5-13-12.9l13-7.2c0,0,0,0.1,0.1,0.1c1.7,3.1,4.2,5.5,7.3,7.2L46.4,91.6C46.4,91.6,46.4,91.6,46.4,91.6z M78.7,91.5
		C78.7,91.5,78.6,91.5,78.7,91.5l-7.3-12.8c3.1-1.7,5.6-4.2,7.3-7.3l12.8,7.2C88.5,84,84.1,88.5,78.7,91.5z"/>
</g>
</svg>
