<?xml version="1.0" encoding="utf-8"?>
<!-- Generator: Adobe Illustrator 22.0.1, SVG Export Plug-In . SVG Version: 6.00 Build 0)  -->
<svg version="1.1" id="Layer_1" xmlns="http://www.w3.org/2000/svg" xmlns:xlink="http://www.w3.org/1999/xlink" x="0px" y="0px"
	 viewBox="0 0 124.9 124.9" style="enable-background:new 0 0 124.9 124.9;" xml:space="preserve">
<style type="text/css">
	.st0{fill:url(#SVGID_1_);}
	.st1{opacity:0.25;}
	.st2{fill-rule:evenodd;clip-rule:evenodd;fill:#FFFFFF;}
	.st3{fill:url(#SVGID_2_);}
	.st4{fill:url(#SVGID_3_);}
	.st5{fill:url(#SVGID_4_);}
	.st6{fill:#FFFFFF;}
	.st7{fill:url(#SVGID_7_);}
	.st8{fill:url(#SVGID_8_);}
	.st9{fill:none;}
	.st10{fill:url(#SVGID_9_);}
	.st11{fill:url(#SVGID_10_);}
	.st12{fill:url(#SVGID_11_);}
	.st13{fill:url(#SVGID_12_);}
	.st14{fill:url(#SVGID_13_);}
	.st15{fill:url(#SVGID_14_);}
	.st16{fill:url(#SVGID_15_);}
	.st17{fill:url(#SVGID_16_);}
	.st18{fill:url(#SVGID_17_);}
	.st19{fill:url(#SVGID_18_);}
	.st20{fill:url(#SVGID_19_);}
	.st21{fill:url(#SVGID_20_);}
	.st22{fill:#C13B11;}
	.st23{fill:#EF6D25;}
	.st24{fill:#DD813F;}
	.st25{fill:#63C1C1;}
	.st26{fill:#148EAF;}
	.st27{fill:#006382;}
	.st28{fill:#6D6E70;}
	.st29{fill:#68BC49;}
	.st30{fill:url(#SVGID_21_);}
	.st31{fill:url(#SVGID_25_);}
	.st32{fill:url(#SVGID_26_);}
	.st33{fill:url(#SVGID_27_);}
	.st34{fill:url(#SVGID_31_);}
	.st35{fill:url(#SVGID_32_);}
	.st36{fill:url(#SVGID_35_);}
</style>
<g>
	<linearGradient id="SVGID_1_" gradientUnits="userSpaceOnUse" x1="62.4408" y1="124.8816" x2="62.4408" y2="2.673822e-05">
		<stop  offset="0" style="stop-color:#C13B11"/>
		<stop  offset="1" style="stop-color:#DB5531"/>
	</linearGradient>
	<path class="st0" d="M110.2,0H14.7C6.6,0,0,6.6,0,14.7v95.5c0,8.1,6.6,14.7,14.7,14.7h95.5c8.1,0,14.7-6.6,14.7-14.7V14.7
		C124.9,6.6,118.3,0,110.2,0z"/>
	<path class="st1" d="M73.2,33.9v-2L66,25.6l-6.8,1.4l-2,4l1,14l-1-4l-6.1-7.2l-7.8,8.1l-13.1,0l-2,17.1l-2,33l32.9,32.9h51
		c8.1,0,14.7-6.6,14.7-14.7V14.7c0-8.1-6.6-14.7-14.7-14.7H94.9L75.2,31.9L73.2,33.9z"/>
	<path class="st6" d="M45.6,67.6L45.6,67.6L45.6,67.6L45.6,67.6z M37,44.7c-0.2,0.2-0.4,0.3-0.6,0.5l-0.2,0.2
		c-0.2,0.2-0.5,0.4-0.7,0.6l-0.2,0.2c-0.1,0.1-0.3,0.3-0.4,0.4c-0.1,0.1-0.2,0.2-0.3,0.3c-0.1,0.1-0.2,0.2-0.3,0.3
		c-0.1,0.1-0.2,0.2-0.2,0.3c-0.1,0.2-0.2,0.4-0.3,0.5c-0.3,0.5-0.5,1-0.6,1.4l0,0.1l0,0.1c-1.1,1.9-1.7,3.8-2,5.8l0,0.3
		c0,0.4-0.1,0.9-0.1,1.3c0,1.5,0.2,3,0.7,4.5c0.2,0.6,0.4,1.2,0.6,1.7l0,0.1c0.2,0.5,0.5,1.1,0.7,1.6c0.1,0.1,0.1,0.2,0.2,0.4
		c0.5,0.9,1.1,1.7,1.7,2.4l0.2,0.2c0.2,0.2,0.4,0.4,0.6,0.6c0.2,0.2,0.4,0.4,0.6,0.5c0.2,0.2,0.4,0.3,0.6,0.5
		c0.3,0.2,0.5,0.4,0.8,0.6c0.1,0.1,0.2,0.2,0.4,0.3c0.4,0.3,0.8,0.5,1.2,0.7c0.4,0.2,0.8,0.4,1.3,0.6l0.1,0L41,72
		c0.4,0.2,0.9,0.3,1.3,0.5l0.2,0.1c0.4,0.1,0.8,0.2,1.2,0.3l0,0l0,0l0.2,0c0.4,0.1,0.9,0.2,1.3,0.2h0l0,0c0.1,0,0.2,0,0.3,0
		c0.4,0,0.8,0.1,1.3,0.1l0,0l0.3,0h0c0.4,0,0.8,0,1.2-0.1h0c0.1,0,0.3,0,0.4-0.1c0.3,0,0.7-0.1,1-0.2l0,0c0.2,0,0.3-0.1,0.4-0.1l0,0
		c0.5-0.1,0.9-0.2,1.4-0.4c0.6-0.2,1.1-0.4,1.6-0.6h0c0.4-0.2,0.8-0.4,1.2-0.6c0.2-0.1,0.4-0.2,0.6-0.4c0.2-0.1,0.4-0.2,0.6-0.3
		c0.2-0.1,0.5-0.3,0.7-0.4c0.1-0.1,0.3-0.2,0.4-0.3c0.2-0.2,0.5-0.4,0.7-0.5c0.1-0.1,0.2-0.2,0.3-0.2c1.2-1,2.2-2.2,3.1-3.6l0,0h0
		c0.1-0.2,0.2-0.3,0.3-0.5l0.2-0.4l0,0l0.5-1h-6.4c-0.6,0.9-1.3,1.6-2.1,2.2c-0.1,0.1-0.2,0.1-0.3,0.2c-0.4,0.3-0.8,0.5-1.2,0.7
		c-0.1,0.1-0.2,0.1-0.3,0.1c-0.4,0.2-0.9,0.4-1.4,0.5v0h0l0,0v0c-0.5,0.1-0.9,0.2-1.3,0.3c-0.1,0-0.2,0-0.3,0.1
		c-0.4,0.1-0.8,0.1-1.2,0.1v0l-0.2,0h0c-0.4,0-0.8,0-1.1-0.1l0,0l-0.3,0c-0.3,0-0.5-0.1-0.8-0.2c-0.1,0-0.3-0.1-0.4-0.1l0,0l0,0l0,0
		c-0.3-0.1-0.5-0.2-0.8-0.3c-0.1,0-0.2-0.1-0.3-0.1c-0.3-0.2-0.7-0.3-1.1-0.5c-0.5-0.3-1-0.6-1.4-1c-1.2-1-2.2-2.2-2.9-3.5
		c-0.2-0.4-0.4-0.9-0.6-1.4c-0.4-1.2-0.6-2.3-0.6-3.5c0-0.3,0-0.6,0.1-0.9c0-0.3,0.1-0.5,0.1-0.8c0.2-1,0.5-2,1-3l0.1-0.2L38,52
		c1-0.8,1.7-1.6,2.2-2.2l0.8-1.1l2.7,5.8l4.1-11.4l0.4-1.2l2.9-8.1l-13,10.1l0,0c-0.3,0.2-0.6,0.4-0.9,0.7L37,44.7z M43.9,65.4
		L43.9,65.4c0.1,0,0.2,0.1,0.3,0.1l0,0c0.2,0.1,0.4,0.2,0.6,0.2l0,0l0,0c0.1,0,0.2,0.1,0.3,0.1c0.2,0.1,0.4,0.1,0.7,0.1l0,0l0.3,0
		c0.3,0,0.6,0.1,0.9,0.1l0.1,0h0c0.3,0,0.6,0,1-0.1c0.1,0,0.2,0,0.3,0c0.4-0.1,0.8-0.1,1.1-0.3l0.2,0.8l-0.2-0.8
		c0.3-0.1,0.5-0.2,0.8-0.3H43.9z M96.4,41.9H68.4V30.4c0-3.4-2.8-6.2-6.2-6.2c-3.4,0-6.2,2.8-6.2,6.2v11.4h-6.1l-2.2,6.2h8.4v3.6
		h12.3v-3.6h23c1.1,0,1.9,0.9,1.9,1.9v3.4c0,1.1-0.9,1.9-1.9,1.9H45.1l-1.3,3.5l-1.6-3.5h-3.7c-0.1,0.6-0.2,1.1-0.2,1.7
		c0,1,0.2,1.9,0.5,2.9c0.2,0.7,0.6,1.3,0.9,1.9h24.6l-1.7,3.3l-0.2,0.5l0,0c-1.5,2.5-3.4,4.6-5.8,6.1h3.7v3.5H33.1v-3.5h4.1
		c-3.5-2.3-5.9-5.6-7.1-9.7c-0.5-1.7-0.7-3.3-0.7-5c0-2.5,0.6-5,1.8-7.3c0.1-0.4,0.3-0.8,0.6-1.1c0.8-2.1,2.6-4.1,5.4-6.1l0.9-0.7
		h-9.9c-1.1,0-1.9,0.9-1.9,1.9V90c0,1.1,0.9,1.9,1.9,1.9h68.2c1.1,0,1.9-0.9,1.9-1.9V43.8C98.3,42.7,97.4,41.9,96.4,41.9z
		 M62.3,33.5c-1.7,0-3.1-1.4-3.1-3.1s1.4-3.1,3.1-3.1c1.7,0,3.1,1.4,3.1,3.1S64,33.5,62.3,33.5z M60.4,85H33.1v-3.5h27.2V85z
		 M90.8,85.8h-2.7c0.2-3.3-1.4-6.7-1.4-6.7c-0.5-1.1-3.6-2.1-3.6-2.1c-1.7-0.6-1.7-1.2-1.7-1.2c-3.3,6.5-5.8,0-5.8,0
		c-0.2,0.9-3.6,1.9-3.6,1.9c-1,0.4-1.4,0.9-1.4,0.9c-1.5,2.2-1.6,7-1.6,7l0,0.2h-1.5V60.8h23.2V85.8z M75.8,36.4
		c1.3-2.6,3.1-6,5-9.6c2.2-4.2,9-17,14.1-26.8H89L70.1,35.6v4.6l3.7,0C74.1,39.5,74.8,38.2,75.8,36.4z M74.8,72.3
		c0.3,2.1,2,4.2,3.7,4.2c1.9,0,3.6-2.3,3.9-4.2c0.1-0.1,0.3-0.3,0.3-0.7c0,0,0.4-1.4-0.1-1.3c0.2-0.5,0.8-2.7-0.4-4
		c0,0-0.6-0.8-1.9-1.2L79.7,65c-0.2-0.2-0.7-0.6-0.7-1.1c0,0-0.3,0.1-0.5,0.4c0.1-0.2,0.2-0.4,0.4-0.6c0,0-0.2,0.1-0.4,0.3
		c-0.1,0.1-0.5,0.3-0.6,0.7l0,0c0,0-0.1-0.1-0.3-0.1c-0.2,0-0.5,0.1-0.5,0.1s-2,0.8-2.5,2.5c0,0-0.3,0.8,0.1,3.1
		c-0.6-0.3-0.2,1.2-0.2,1.2C74.5,72,74.7,72.2,74.8,72.3z M78.4,64.1c-0.1,0.1-0.2,0.3-0.2,0.5l-0.1,0
		C78.1,64.4,78.2,64.3,78.4,64.1z"/>
</g>
</svg>
