<?xml version="1.0" encoding="utf-8"?>
<!-- Generator: Adobe Illustrator 22.0.1, SVG Export Plug-In . SVG Version: 6.00 Build 0)  -->
<svg version="1.1" id="Layer_1" xmlns="http://www.w3.org/2000/svg" xmlns:xlink="http://www.w3.org/1999/xlink" x="0px" y="0px"
	 viewBox="0 0 124.9 124.9" style="enable-background:new 0 0 124.9 124.9;" xml:space="preserve">
<style type="text/css">
	.st0{fill:url(#SVGID_1_);}
	.st1{opacity:0.25;enable-background:new    ;}
	.st2{fill:none;}
	.st3{fill:#FFFFFF;}
</style>
<g>
	<g>
		
			<linearGradient id="SVGID_1_" gradientUnits="userSpaceOnUse" x1="62.45" y1="1.1" x2="62.45" y2="126" gradientTransform="matrix(1 0 0 -1 0 126)">
			<stop  offset="0" style="stop-color:#148EAF"/>
			<stop  offset="1" style="stop-color:#34ABC6"/>
		</linearGradient>
		<path class="st0" d="M110.2,0H14.7C6.6,0,0,6.6,0,14.7v95.5c0,8.1,6.6,14.7,14.7,14.7h95.5c8.1,0,14.7-6.6,14.7-14.7V14.7
			C124.9,6.6,118.3,0,110.2,0z"/>
	</g>
	<path class="st1" d="M93.1,53.3l-0.4-0.2l-8.3-1.8l-3.5-9.6L78,41.4L62.4,25.7H25.6v36.7l17.8,17.8l-1.9,8.6l-9.8,5.4l30.7,30.7
		h47.7c8.1,0,14.7-6.6,14.7-14.7V85.3L93.1,53.3z"/>
	<g>
		<path class="st2" d="M110.2,0H14.7C6.6,0,0,6.6,0,14.7v95.5c0,8.1,6.6,14.7,14.7,14.7h95.5c8.1,0,14.7-6.6,14.7-14.7V14.7
			C124.9,6.6,118.3,0,110.2,0z"/>
	</g>
	<path class="st3" d="M51.6,88.2c-1-0.4-1.9-0.7-2.9-1.2c-0.5-0.2-0.7-0.6-0.6-1.1c0-0.3,0.1-0.6,0-0.8c0-0.2,0-0.3,0.1-0.4
		c0.3-0.5,0.6-1,0.8-1.5c0.4-1,0.7-2,0.9-3.1c0-0.1,0-0.1,0.1-0.2c0.3-0.2,0.5-0.5,0.7-0.8c0.1-0.1,0.2-0.3,0.3-0.4
		c0.3-0.6,0.3-1.2,0.4-1.9c0-0.2,0-0.4-0.1-0.6c0-0.1-0.1-0.1-0.2-0.1C51,76,51,76,51.1,75.7c0-0.1,0-0.1,0-0.2
		c0.2-1.1,0.2-2.2-0.2-3.2c-0.4-1.1-0.9-2.2-1.8-3c-1.7-1.6-3.7-2.1-5.9-1.8c-3.8,0.6-5.7,3.9-5.7,6.9c0,0.5,0.1,1,0.2,1.4
		c0,0.1,0,0.2-0.1,0.2c-0.2,0-0.3,0.1-0.4,0.3c-0.1,0.3,0,0.6,0,0.9c0.1,1,0.5,1.8,1.2,2.4c0.1,0.1,0.2,0.2,0.3,0.4
		c0.3,1.6,0.9,3.2,1.8,4.6c0,0.1,0.1,0.1,0.1,0.2c0,0.3,0,0.7,0,1c0,0.5-0.2,0.8-0.6,1c-0.3,0.2-0.7,0.3-1,0.4
		c-1.4,0.5-2.9,0.8-4.3,1.3c-1,0.3-2,0.7-3,1.1V94h24.5v-4c-0.1-0.1-0.3-0.1-0.4-0.2C54.5,89.2,53,88.7,51.6,88.2z M25.6,25.7v36.7
		h36.8V25.7H25.6z M56.3,57.4H31.8V53c0.9-0.5,1.9-0.8,3-1.1c1.4-0.5,2.9-0.8,4.3-1.3c0.3-0.1,0.7-0.2,1-0.4c0.4-0.2,0.6-0.5,0.6-1
		c0-0.3,0-0.7,0-1c0-0.1,0-0.1-0.1-0.2c-0.9-1.4-1.5-3-1.8-4.6c0-0.2-0.1-0.3-0.3-0.4c-0.7-0.6-1.1-1.5-1.2-2.4c0-0.3-0.1-0.6,0-0.9
		c0.1-0.2,0.1-0.3,0.4-0.3c0.1,0,0.2,0,0.1-0.2c-0.1-0.5-0.2-0.9-0.2-1.4c0-3,1.9-6.3,5.7-6.9c2.2-0.3,4.2,0.2,5.9,1.8
		c0.9,0.8,1.4,1.9,1.8,3c0.4,1.1,0.4,2.1,0.2,3.2c0,0.1,0,0.1,0,0.2c0,0.3,0,0.3,0.3,0.4c0.1,0,0.1,0,0.2,0.1
		c0.1,0.2,0.1,0.4,0.1,0.6c-0.1,0.6-0.2,1.3-0.4,1.9c-0.1,0.2-0.2,0.3-0.3,0.4c-0.2,0.2-0.5,0.5-0.7,0.8c-0.1,0-0.1,0.1-0.1,0.2
		c-0.2,1.1-0.5,2.1-0.9,3.1c-0.2,0.5-0.5,1-0.8,1.5c-0.1,0.1-0.1,0.3-0.1,0.4c0,0.3,0,0.6,0,0.8c0,0.5,0.1,0.9,0.6,1.1
		c0.9,0.5,1.9,0.8,2.9,1.2c1.4,0.5,2.9,1,4.3,1.6c0.1,0.1,0.3,0.1,0.4,0.2v4H56.3z M62.4,62.4v36.7h36.8V62.4H62.4z M93.1,94.2H68.6
		v-4.4c0.9-0.5,1.9-0.8,3-1.1c1.4-0.5,2.9-0.8,4.3-1.3c0.3-0.1,0.7-0.2,1-0.4c0.4-0.2,0.6-0.5,0.6-1c0-0.3,0-0.7,0-1
		c0-0.1,0-0.1-0.1-0.2c-0.9-1.4-1.5-3-1.8-4.6c0-0.2-0.1-0.3-0.3-0.4c-0.7-0.6-1.1-1.5-1.2-2.4c0-0.3-0.1-0.6,0-0.9
		c0.1-0.2,0.1-0.3,0.4-0.3c0.1,0,0.2,0,0.1-0.2c-0.1-0.5-0.2-0.9-0.2-1.4c0-3,1.9-6.3,5.7-6.9c2.2-0.3,4.2,0.2,5.9,1.8
		c0.9,0.8,1.4,1.9,1.8,3s0.4,2.1,0.2,3.2c0,0.1,0,0.1,0,0.2c0,0.3,0,0.3,0.3,0.4c0.1,0,0.1,0,0.2,0.1c0.1,0.2,0.1,0.4,0.1,0.6
		c-0.1,0.6-0.2,1.3-0.4,1.9c-0.1,0.2-0.2,0.3-0.3,0.4c-0.2,0.2-0.5,0.5-0.7,0.8c-0.1,0-0.1,0.1-0.1,0.2c-0.2,1.1-0.5,2.1-0.9,3.1
		c-0.2,0.5-0.5,1-0.8,1.5c-0.1,0.1-0.1,0.3-0.1,0.4c0,0.3,0,0.6,0,0.8c0,0.5,0.1,0.9,0.6,1.1c0.9,0.5,1.9,0.8,2.9,1.2
		c1.4,0.5,4.6,1.7,4.7,1.8v4H93.1z M92.7,53.1c-1.4-0.6-2.8-1.1-4.3-1.6c-1-0.4-1.9-0.7-2.9-1.2c-0.5-0.2-0.7-0.6-0.6-1.1
		c0-0.3,0.1-0.6,0-0.8c0-0.2,0-0.3,0.1-0.4c0.3-0.5,0.6-1,0.8-1.5c0.4-1,0.7-2,0.9-3.1c0-0.1,0-0.1,0.1-0.2c0.3-0.2,0.5-0.5,0.7-0.8
		c0.1-0.1,0.2-0.3,0.3-0.4c0.3-0.6,0.3-1.2,0.4-1.9c0-0.2,0-0.4-0.1-0.6c0-0.1-0.1-0.1-0.2-0.1c-0.3,0-0.3-0.1-0.3-0.4
		c0-0.1,0-0.1,0-0.2c0.2-1.1,0.2-2.2-0.2-3.2c-0.4-1.1-0.9-2.2-1.8-3c-1.7-1.6-3.7-2.1-5.9-1.8c-3.8,0.6-5.7,3.9-5.7,6.9
		c0,0.5,0.1,1,0.2,1.4c0,0.1,0,0.2-0.1,0.2c-0.2,0-0.3,0.1-0.4,0.3c-0.1,0.3,0,0.6,0,0.9c0.1,1,0.5,1.8,1.2,2.4
		c0.1,0.1,0.2,0.2,0.3,0.4c0.3,1.6,0.9,3.2,1.8,4.6c0,0.1,0.1,0.1,0.1,0.2c0,0.3,0,0.7,0,1c0,0.5-0.2,0.8-0.6,1
		c-0.3,0.2-0.7,0.3-1,0.4c-1.4,0.5-2.9,0.8-4.3,1.3c-1,0.3-2,0.7-3,1.1v4.4h24.5v-4C92.7,53.3,92.7,53.2,92.7,53.1z"/>
</g>
</svg>
