<?xml version="1.0" encoding="utf-8"?>
<!-- Generator: Adobe Illustrator 22.0.1, SVG Export Plug-In . SVG Version: 6.00 Build 0)  -->
<svg version="1.1" id="Layer_1" xmlns="http://www.w3.org/2000/svg" xmlns:xlink="http://www.w3.org/1999/xlink" x="0px" y="0px"
	 viewBox="0 0 124.9 124.9" style="enable-background:new 0 0 124.9 124.9;" xml:space="preserve">
<style type="text/css">
	.st0{fill:url(#SVGID_1_);}
	.st1{opacity:0.25;}
	.st2{fill-rule:evenodd;clip-rule:evenodd;fill:#FFFFFF;}
	.st3{fill:url(#SVGID_2_);}
	.st4{fill:url(#SVGID_3_);}
	.st5{fill:url(#SVGID_4_);}
	.st6{fill:#FFFFFF;}
	.st7{fill:url(#SVGID_7_);}
	.st8{fill:url(#SVGID_8_);}
	.st9{fill:none;}
	.st10{fill:url(#SVGID_9_);}
	.st11{fill:url(#SVGID_10_);}
	.st12{fill:url(#SVGID_11_);}
	.st13{fill:url(#SVGID_12_);}
	.st14{fill:url(#SVGID_13_);}
	.st15{fill:url(#SVGID_14_);}
	.st16{fill:url(#SVGID_15_);}
	.st17{fill:url(#SVGID_16_);}
	.st18{fill:url(#SVGID_17_);}
	.st19{fill:url(#SVGID_18_);}
	.st20{fill:url(#SVGID_19_);}
	.st21{fill:url(#SVGID_20_);}
	.st22{fill:#C13B11;}
	.st23{fill:#EF6D25;}
	.st24{fill:#DD813F;}
	.st25{fill:#63C1C1;}
	.st26{fill:#148EAF;}
	.st27{fill:#006382;}
	.st28{fill:#6D6E70;}
	.st29{fill:#68BC49;}
	.st30{fill:url(#SVGID_21_);}
	.st31{fill:url(#SVGID_25_);}
	.st32{fill:url(#SVGID_26_);}
	.st33{fill:url(#SVGID_27_);}
	.st34{fill:url(#SVGID_31_);}
	.st35{fill:url(#SVGID_32_);}
	.st36{fill:url(#SVGID_35_);}
</style>
<g>
	<g>
		<linearGradient id="SVGID_1_" gradientUnits="userSpaceOnUse" x1="62.4408" y1="124.8815" x2="62.4408" y2="0">
			<stop  offset="0" style="stop-color:#148EAF"/>
			<stop  offset="1" style="stop-color:#34ABC6"/>
		</linearGradient>
		<path class="st0" d="M110.2,0H14.7C6.6,0,0,6.6,0,14.7v95.5c0,8.1,6.6,14.7,14.7,14.7h95.5c8.1,0,14.7-6.6,14.7-14.7V14.7
			C124.9,6.6,118.3,0,110.2,0z"/>
	</g>
	<path class="st1" d="M83.8,28.4l-48.7,1.6l-4.6,0.4l-1.3,68.8l25.7,25.7h55.3c8.1,0,14.7-6.6,14.7-14.7V69.8L83.8,28.4z"/>
	<path class="st6" d="M95.7,40.5L81.1,25.7l0,9.3H37.7v-4h43.5v-5.3H33.5v3.4h-4.3v70.1h62.4V95h4.2V40.5z M82.9,29.9l8.7,8.8h-8.7
		V29.9z M70.9,43.6h15.6v1.9H70.9V43.6z M70.9,48.7h15.6v1.9H70.9V48.7z M70.9,53.8h15.6v1.9H70.9V53.8z M51.5,39.5
		c5.5,0.3,9.9,4.7,10.2,10.2h-8.4c-0.2-0.8-0.9-1.5-1.7-1.7V39.5z M61.6,50.8c-0.3,5.5-4.7,9.9-10.2,10.1l0-8.5
		c0.8-0.2,1.5-0.9,1.7-1.7H61.6z M52.6,50.2c0,0.9-0.7,1.7-1.7,1.7s-1.7-0.7-1.7-1.7c0-0.9,0.7-1.7,1.7-1.7S52.6,49.3,52.6,50.2z
		 M50.4,39.5v8.5c-1,0.2-1.8,1.2-1.8,2.2c0,1.1,0.8,2,1.8,2.2l0,8.5c-5.7-0.3-10.2-5-10.2-10.7C40.2,44.5,44.7,39.8,50.4,39.5z
		 M90.2,97.9H30.5V30.4h3V95h56.7V97.9z M41.5,88.8V73.3h3.8v15.5H41.5z M48.3,88.8v-11h3.8v11H48.3z M55.1,88.8V76.4h3.8v12.5H55.1
		z M70.4,78.7v3.8h-3.8v-3.8H70.4z M66.5,76.4v-3.8h3.8v3.8H66.5z M70.4,85v3.8h-3.8V85H70.4z M86.4,78.7v3.8H72.5v-3.8H86.4z
		 M72.5,76.4v-3.8h13.9v3.8H72.5z M86.4,85v3.8H72.5V85H86.4z M93.1,67.4H37.7v-2.1h55.4V67.4z"/>
</g>
</svg>
