<?xml version="1.0" encoding="utf-8"?>
<!-- Generator: Adobe Illustrator 22.0.1, SVG Export Plug-In . SVG Version: 6.00 Build 0)  -->
<svg version="1.1" id="Layer_1" xmlns="http://www.w3.org/2000/svg" xmlns:xlink="http://www.w3.org/1999/xlink" x="0px" y="0px"
	 viewBox="0 0 124.9 124.9" style="enable-background:new 0 0 124.9 124.9;" xml:space="preserve">
<style type="text/css">
	.st0{fill:url(#SVGID_1_);}
	.st1{opacity:0.25;}
	.st2{fill-rule:evenodd;clip-rule:evenodd;fill:#FFFFFF;}
	.st3{fill:url(#SVGID_2_);}
	.st4{fill:url(#SVGID_3_);}
	.st5{fill:url(#SVGID_4_);}
	.st6{fill:#FFFFFF;}
	.st7{fill:url(#SVGID_7_);}
	.st8{fill:url(#SVGID_8_);}
	.st9{fill:none;}
	.st10{fill:url(#SVGID_9_);}
	.st11{fill:url(#SVGID_10_);}
	.st12{fill:url(#SVGID_11_);}
	.st13{fill:url(#SVGID_12_);}
	.st14{fill:url(#SVGID_13_);}
	.st15{fill:url(#SVGID_14_);}
	.st16{fill:url(#SVGID_15_);}
	.st17{fill:url(#SVGID_16_);}
	.st18{fill:url(#SVGID_17_);}
	.st19{fill:url(#SVGID_18_);}
	.st20{fill:url(#SVGID_19_);}
	.st21{fill:url(#SVGID_20_);}
	.st22{fill:#C13B11;}
	.st23{fill:#EF6D25;}
	.st24{fill:#DD813F;}
	.st25{fill:#63C1C1;}
	.st26{fill:#148EAF;}
	.st27{fill:#006382;}
	.st28{fill:#6D6E70;}
	.st29{fill:#68BC49;}
	.st30{fill:url(#SVGID_21_);}
	.st31{fill:url(#SVGID_25_);}
	.st32{fill:url(#SVGID_26_);}
	.st33{fill:url(#SVGID_27_);}
	.st34{fill:url(#SVGID_31_);}
	.st35{fill:url(#SVGID_32_);}
	.st36{fill:url(#SVGID_35_);}
</style>
<g>
	<g>
		<g>
			<g>
				<g>
					<linearGradient id="SVGID_1_" gradientUnits="userSpaceOnUse" x1="62.4408" y1="124.8815" x2="62.4408" y2="0">
						<stop  offset="0" style="stop-color:#EF6D25"/>
						<stop  offset="1" style="stop-color:#F78146"/>
					</linearGradient>
					<path class="st0" d="M110.2,0H14.7C6.6,0,0,6.6,0,14.7v95.5c0,8.1,6.6,14.7,14.7,14.7h95.5c8.1,0,14.7-6.6,14.7-14.7V14.7
						C124.9,6.6,118.3,0,110.2,0z"/>
				</g>
			</g>
		</g>
	</g>
	<path class="st1" d="M100,28.7L90.5,25l-6.7,2.4l-3.8,4.3h-2.8l-2.9,2l-32.3,0.7l-7.2,3.9v15.5l2.9,34.7l-2.8,7.6l28.3,28.7h47
		c8.1,0,14.7-6.6,14.7-14.7V53.6L100,28.7z"/>
	<path class="st6" d="M90.5,28.7c-4.6,0-8.3,3.7-8.3,8.3c0,4.6,3.7,8.3,8.3,8.3c4.6,0,8.3-3.7,8.3-8.3C98.7,32.4,95,28.7,90.5,28.7z
		 M90.5,43.7c-3.7,0-6.7-3-6.7-6.7s3-6.7,6.7-6.7c3.7,0,6.7,3,6.7,6.7S94.2,43.7,90.5,43.7z M42.7,84.9h44.7V69.8l-12.2-18L60,74
		l-5.9-8.3l-11.4,18V84.9z M90.5,24.3c-7,0-12.6,5.6-12.6,12.6s5.6,12.6,12.6,12.6c7,0,12.6-5.6,12.6-12.6S97.4,24.3,90.5,24.3z
		 M90.5,48c-6.1,0-11-5-11-11c0-6.1,5-11,11-11c6.1,0,11,5,11,11C101.5,43,96.5,48,90.5,48z M28,41.5c0.8-0.4,1.7-0.6,2.7-0.6
		c0.9,0,1.7,0.2,2.6,0.5c0,0,0.1,0,0.1,0c0.9,0.4,1.7,0.8,2.7,1.3c0.9,0.5,1.9,0.9,2.8,1.3c0.3,0.1,0.6,0.2,0.8,0.3c0,0,0,0,0,0
		c0.8,0.2,1.6,0.3,2.4,0.3c1.2,0,2.4-0.3,3.6-0.8c1.2-0.5,2.2-1.3,3-2.3L47.4,41c-0.8,1-1.5,1.6-2.4,2c-0.8,0.4-1.7,0.6-2.7,0.6
		c-0.6,0-1.1-0.1-1.7-0.2c-0.3-0.1-0.7-0.2-1-0.3c-0.9-0.4-1.8-0.8-2.7-1.3c-0.4-0.2-0.9-0.4-1.3-0.6c-0.4-0.2-0.9-0.4-1.4-0.6
		c0,0,0,0,0,0c-0.1,0-0.1,0-0.2-0.1c-1-0.4-2.1-0.6-3.3-0.6c-1.2,0-2.4,0.3-3.6,0.8c-1.2,0.5-2.2,1.3-3,2.4l1.4,0.5
		C26.4,42.6,27.2,41.9,28,41.5z M28,46.2c0.8-0.4,1.7-0.6,2.7-0.6c0.9,0,1.8,0.2,2.7,0.6c0.4,0.2,0.9,0.4,1.3,0.6v0
		c0.4,0.2,0.9,0.4,1.3,0.6c0.9,0.5,1.9,0.9,2.8,1.3c0.3,0.1,0.6,0.2,0.8,0.3c0,0,0,0,0,0c0.3,0.1,0.6,0.1,0.9,0.2c0,0,0,0,0,0
		c0.5,0.1,1,0.1,1.6,0.1c0.5,0,1-0.1,1.5-0.1c0,0,0,0,0,0c0.3,0,0.5-0.1,0.8-0.2c0,0,0,0,0,0c0.4-0.1,0.8-0.3,1.2-0.4
		c1.2-0.5,2.2-1.3,3-2.3l-1.4-0.6c-0.5,0.7-1,1.2-1.6,1.5c-0.1,0.1-0.2,0.1-0.3,0.2c-0.2,0.1-0.3,0.2-0.5,0.3
		c-0.2,0.1-0.4,0.2-0.6,0.2c-0.2,0.1-0.4,0.1-0.6,0.2c-0.5,0.1-1,0.2-1.5,0.2c-0.6,0-1.1-0.1-1.7-0.2c-0.3-0.1-0.7-0.2-1-0.3
		c-0.9-0.4-1.8-0.8-2.7-1.3c-0.9-0.5-1.9-0.9-2.9-1.3c-0.3-0.1-0.6-0.2-0.9-0.3h0c-0.8-0.2-1.6-0.3-2.4-0.3c-1.2,0-2.4,0.3-3.6,0.8
		c-1.2,0.5-2.2,1.3-3,2.4l1.4,0.5C26.4,47.2,27.2,46.5,28,46.2z M33.5,50.9c0.8,0.4,1.7,0.8,2.5,1.2c0.9,0.5,1.9,0.9,2.8,1.3
		c0.3,0.1,0.6,0.2,0.8,0.3c0,0,0,0,0,0c0.3,0.1,0.6,0.1,0.9,0.2c0,0,0,0,0,0c0.5,0.1,1,0.1,1.6,0.1c0.9,0,1.8-0.1,2.6-0.4
		c0,0,0,0,0,0c0.3-0.1,0.6-0.2,0.9-0.4c1.2-0.5,2.2-1.3,3-2.3l-1.4-0.6c-0.5,0.7-1.1,1.2-1.7,1.6c-0.2,0.2-0.5,0.3-0.7,0.4
		c-0.2,0.1-0.5,0.2-0.7,0.3c-0.6,0.2-1.3,0.3-2,0.3c-0.6,0-1.1-0.1-1.7-0.2c-0.3-0.1-0.7-0.2-1-0.3c-0.9-0.4-1.8-0.8-2.7-1.3
		c-0.4-0.2-0.8-0.4-1.3-0.6c-0.4-0.2-0.9-0.4-1.3-0.5c0,0,0,0,0,0c-0.1,0-0.2-0.1-0.3-0.1c-1-0.4-2.1-0.6-3.3-0.6
		c-1.2,0-2.4,0.3-3.6,0.8c-1.2,0.5-2.2,1.3-3,2.4l1.4,0.5c0.8-1,1.5-1.6,2.4-2s1.7-0.6,2.7-0.6c0.9,0,1.8,0.2,2.7,0.6
		C33.4,50.8,33.5,50.9,33.5,50.9z M95.6,50.2c-1.6,0.6-3.3,1-5.2,1c-0.3,0-0.6,0-0.9,0V87H40.6V54.8c-0.8-0.1-1.5-0.3-2.1-0.5
		c-1-0.4-2-0.8-2.9-1.3c-0.9-0.4-1.8-0.9-2.6-1.2c-0.2-0.1-0.4-0.2-0.7-0.2c-0.4,0.1-0.8,0.2-1.2,0.2c0,0,0,0,0,0v2.1c0,0,0,0,0,0
		c2.1,0,3.8,1.7,3.8,3.8c0,2.1-1.7,3.8-3.8,3.8c0,0,0,0,0,0v2c0,0,0,0,0,0c2.1,0,3.8,1.7,3.8,3.8S33.2,71,31.1,71c0,0,0,0,0,0v2.1
		c0,0,0,0,0,0c2.1,0,3.8,1.7,3.8,3.8s-1.7,3.8-3.8,3.8c0,0,0,0,0,0v2c0,0,0,0,0,0c2.1,0,3.8,1.7,3.8,3.8c0,2.1-1.7,3.8-3.8,3.8
		c0,0,0,0,0,0v2.1c0,0,0,0,0,0c2.1,0,3.8,1.7,3.8,3.8c0,0,0,0,0,0H37c0,0,0,0,0,0c0-2.1,1.7-3.8,3.8-3.8c2.1,0,3.8,1.7,3.8,3.8
		c0,0,0,0,0,0h2c0,0,0,0,0,0c0-2.1,1.7-3.8,3.8-3.8s3.8,1.7,3.8,3.8c0,0,0,0,0,0h2.1c0,0,0,0,0,0c0-2.1,1.7-3.8,3.8-3.8
		s3.8,1.7,3.8,3.8c0,0,0,0,0,0h2c0,0,0,0,0,0c0-2.1,1.7-3.8,3.8-3.8c2.1,0,3.8,1.7,3.8,3.8c0,0,0,0,0,0h2.1c0,0,0,0,0,0
		c0-2.1,1.7-3.8,3.8-3.8c2.1,0,3.8,1.7,3.8,3.8c0,0,0,0,0,0h2c0,0,0,0,0,0c0-2.1,1.7-3.8,3.8-3.8c2.1,0,3.8,1.7,3.8,3.8c0,0,0,0,0,0
		h2.1c0,0,0,0,0,0c0-2.1,1.7-3.8,3.8-3.8c0,0,0,0,0,0v-2.1c0,0,0,0,0,0c-2.1,0-3.8-1.7-3.8-3.8c0-2.1,1.7-3.8,3.8-3.8c0,0,0,0,0,0
		v-2c0,0,0,0,0,0c-2.1,0-3.8-1.7-3.8-3.8s1.7-3.8,3.8-3.8c0,0,0,0,0,0V71c0,0,0,0,0,0c-2.1,0-3.8-1.7-3.8-3.8s1.7-3.8,3.8-3.8
		c0,0,0,0,0,0v-2c0,0,0,0,0,0c-2.1,0-3.8-1.7-3.8-3.8c0-2.1,1.7-3.8,3.8-3.8c0,0,0,0,0,0v-2.1c0,0,0,0,0,0
		C97.4,51.7,96.3,51.1,95.6,50.2z M35.6,48.4c-0.2-0.1-0.4-0.2-0.7-0.3c0,0.3,0,0.5-0.1,0.8c0.9,0.4,1.8,0.8,2.7,1.2
		c0.9,0.4,1.8,0.9,2.6,1.2c0.2,0.1,0.4,0.2,0.6,0.2v-1.3c-0.8-0.1-1.5-0.3-2.1-0.5C37.5,49.3,36.5,48.8,35.6,48.4z M35.6,43.7
		c-0.9-0.4-1.8-0.9-2.6-1.2c-0.4-0.2-0.8-0.3-1.2-0.4c-0.2,0-0.4,0.1-0.7,0.1c0,0,0,0,0,0v1.3c1.2,0,2.3,0.2,3.4,0.6
		c1,0.4,2,0.8,3,1.3c0.9,0.4,1.8,0.9,2.6,1.2c0.2,0.1,0.4,0.2,0.6,0.2v-1.3c-0.8-0.1-1.5-0.3-2.1-0.5C37.5,44.6,36.5,44.2,35.6,43.7
		z M34.9,38.4c0,0.4-0.1,0.8-0.2,1.2c1,0.4,1.9,0.8,2.7,1.2c0.9,0.4,1.8,0.9,2.6,1.2c0.2,0.1,0.4,0.2,0.6,0.2v-4.1h35.6
		c0-0.4-0.1-0.7-0.1-1.1c0-1.8,0.4-3.6,1-5.2c-1-0.7-1.6-1.8-1.6-3.1c0,0,0,0,0,0h-2.1c0,0,0,0,0,0c0,2.1-1.7,3.8-3.8,3.8
		c-2.1,0-3.8-1.7-3.8-3.8c0,0,0,0,0,0h-2c0,0,0,0,0,0c0,2.1-1.7,3.8-3.8,3.8s-3.8-1.7-3.8-3.8c0,0,0,0,0,0h-2.1c0,0,0,0,0,0
		c0,2.1-1.7,3.8-3.8,3.8s-3.8-1.7-3.8-3.8c0,0,0,0,0,0h-2c0,0,0,0,0,0c0,2.1-1.7,3.8-3.8,3.8c-2.1,0-3.8-1.7-3.8-3.8c0,0,0,0,0,0
		h-2.1c0,0,0,0,0,0c0,2.1-1.7,3.8-3.8,3.8c0,0,0,0,0,0v2.1c0,0,0,0,0,0C33.2,34.6,34.9,36.3,34.9,38.4z M51,55.3c-1.6,0-3-0.6-4-1.6
		c-0.3,0.1-0.5,0.3-0.8,0.4c-0.2,0.1-0.5,0.2-0.7,0.3c1.3,1.5,3.3,2.5,5.5,2.5c4,0,7.3-3.3,7.3-7.3c0-4-3.3-7.3-7.3-7.3
		c-0.6,0-1.1,0.1-1.7,0.2c-0.7,0.8-1.4,1.4-2.3,1.9l0.7,0.3l0.2,0.1c0.9-0.6,1.9-0.9,3.1-0.9c1.6,0,3,0.6,4.1,1.7
		c1,1,1.7,2.5,1.7,4.1c0,1.6-0.6,3-1.7,4.1C54,54.7,52.6,55.3,51,55.3z M44,51.5c0.2-0.1,0.4-0.1,0.6-0.2c0.3-0.1,0.5-0.3,0.8-0.5
		c-0.1-0.3-0.1-0.6-0.1-1c-0.5,0.2-1,0.3-1.5,0.4C43.8,50.6,43.8,51.1,44,51.5z M44.2,46.7c0.1,0,0.2-0.1,0.3-0.1
		c0.7-0.3,1.3-0.9,2-1.7l0.5-0.6c-0.3,0.2-0.5,0.3-0.8,0.4c-0.4,0.2-0.7,0.3-1.1,0.4C44.8,45.7,44.5,46.2,44.2,46.7z"/>
	<path class="st6" d="M3,96.9l24.9,24.9h25.3L3,71.6V96.9z M37.3,110.7l-1.7,1.7l-3.1-3.1l-1.2,1.2l2.6,2.6l-1.7,1.7l-2.6-2.6
		l-1.4,1.4l3.2,3.2l-1.7,1.7l-5.4-5.4l7.7-7.7L37.3,110.7z M30.6,104l-1.7,1.7l-2.1-2.1l-6,6l-2.1-2.1l6-6l-2.1-2.1l1.7-1.7
		L30.6,104z M22.7,96.1l-7.7,7.7l-2.1-2.1l7.7-7.7L22.7,96.1z M15.9,89.3l-6,6l3.1,3.1l-1.7,1.7L6,94.8l7.7-7.7L15.9,89.3z"/>
</g>
</svg>
