<?xml version="1.0" encoding="utf-8"?>
<!-- Generator: Adobe Illustrator 22.0.1, SVG Export Plug-In . SVG Version: 6.00 Build 0)  -->
<svg version="1.1" id="Layer_1" xmlns="http://www.w3.org/2000/svg" xmlns:xlink="http://www.w3.org/1999/xlink" x="0px" y="0px"
	 viewBox="0 0 124.9 124.9" style="enable-background:new 0 0 124.9 124.9;" xml:space="preserve">
<style type="text/css">
	.st0{fill:url(#SVGID_1_);}
	.st1{opacity:0.25;}
	.st2{fill-rule:evenodd;clip-rule:evenodd;fill:#FFFFFF;}
	.st3{fill:url(#SVGID_2_);}
	.st4{fill:url(#SVGID_3_);}
	.st5{fill:url(#SVGID_4_);}
	.st6{fill:#FFFFFF;}
	.st7{fill:url(#SVGID_7_);}
	.st8{fill:url(#SVGID_8_);}
	.st9{fill:none;}
	.st10{fill:url(#SVGID_9_);}
	.st11{fill:url(#SVGID_10_);}
	.st12{fill:url(#SVGID_11_);}
	.st13{fill:url(#SVGID_12_);}
	.st14{fill:url(#SVGID_13_);}
	.st15{fill:url(#SVGID_14_);}
	.st16{fill:url(#SVGID_15_);}
	.st17{fill:url(#SVGID_16_);}
	.st18{fill:url(#SVGID_17_);}
	.st19{fill:url(#SVGID_18_);}
	.st20{fill:url(#SVGID_19_);}
	.st21{fill:url(#SVGID_20_);}
	.st22{fill:#C13B11;}
	.st23{fill:#EF6D25;}
	.st24{fill:#DD813F;}
	.st25{fill:#63C1C1;}
	.st26{fill:#148EAF;}
	.st27{fill:#006382;}
	.st28{fill:#6D6E70;}
	.st29{fill:#68BC49;}
	.st30{fill:url(#SVGID_21_);}
	.st31{fill:url(#SVGID_25_);}
	.st32{fill:url(#SVGID_26_);}
	.st33{fill:url(#SVGID_27_);}
	.st34{fill:url(#SVGID_31_);}
	.st35{fill:url(#SVGID_32_);}
	.st36{fill:url(#SVGID_35_);}
</style>
<g>
	<g>
		<g>
			<g>
				<g>
					<linearGradient id="SVGID_1_" gradientUnits="userSpaceOnUse" x1="62.4408" y1="124.8815" x2="62.4408" y2="0">
						<stop  offset="0" style="stop-color:#EF6D25"/>
						<stop  offset="1" style="stop-color:#F78146"/>
					</linearGradient>
					<path class="st0" d="M110.2,0H14.7C6.6,0,0,6.6,0,14.7v95.5c0,8.1,6.6,14.7,14.7,14.7h95.5c8.1,0,14.7-6.6,14.7-14.7V14.7
						C124.9,6.6,118.3,0,110.2,0z"/>
				</g>
			</g>
		</g>
	</g>
	<path class="st1" d="M91.5,30.9L77,31.1l-5.7-5L35.5,39.5l-2.1,53l32.3,32.3h44.5c8.1,0,14.7-6.6,14.7-14.7v-46L91.5,30.9z"/>
	<path class="st6" d="M68.7,84.5c10,0,18-8,18-17.8s-8.1-17.8-18-17.8s-18,8-18,17.8S58.7,84.5,68.7,84.5z M71.3,51.4h2.9
		c0.8,0.3,1.6,0.6,2.3,1v14.3h7.4V71H71.3V51.4z M63.4,51.3c0.4,0.1,0.7,0.2,1.1,0.3c1.2,0.4,2.2,1.1,3.1,2L65,56.9
		c-0.7-0.5-1.3-0.8-1.9-1.1c-0.6-0.2-1.3-0.4-2-0.4c-0.6,0-1.1,0.1-1.5,0.3c-0.4,0.2-0.5,0.6-0.5,1c0,0.5,0.3,0.8,0.8,1.1
		c0.5,0.3,1.2,0.5,2.1,0.9l2.4,0.9c1.2,0.5,2.2,1.2,2.8,2c0.7,0.9,1,2,1,3.4c0,0.8-0.2,1.6-0.5,2.4c-0.3,0.8-0.8,1.4-1.5,2
		c-0.7,0.6-1.5,1-2.4,1.4c-0.9,0.3-2,0.5-3.3,0.5c-1.2,0-2.5-0.2-3.8-0.7c-1.3-0.5-2.5-1.2-3.6-2.1l3-3.6c0.7,0.6,1.5,1,2.3,1.4
		c0.8,0.4,1.6,0.5,2.3,0.5c0.8,0,1.4-0.1,1.7-0.4c0.4-0.2,0.5-0.6,0.5-1c0-0.2-0.1-0.4-0.2-0.6c-0.1-0.2-0.3-0.3-0.5-0.5
		c-0.2-0.1-0.5-0.3-0.8-0.4c-0.3-0.1-0.7-0.3-1.1-0.4l-2.4-1c-0.5-0.2-1-0.5-1.5-0.8c-0.5-0.3-0.9-0.7-1.3-1.2
		c-0.3-0.4-0.6-0.9-0.8-1.4C56.1,55.5,59.4,52.7,63.4,51.3z M112.9,103l-12.8-12.7l-1.2-1.1l0,0l-2-2L95.7,86l-1.1,1.1l-0.1,0.1
		L94.2,87l-2.7-2.6v-7.1c1.5-3.3,2.4-6.9,2.4-10.5c0-3.8-0.9-7.3-2.4-10.5V30.9H76.7l-5.3-5.4H33.4v67.1h5.7V98h50.6l0.3,0.3l0,0
		l0,0l1.2,1.2l13.5,13.2l0,0l0,0c1.2,1.2,2.8,1.8,4.4,1.8c3.5,0,6.4-2.9,6.4-6.4C115.4,106.1,114.5,104.2,112.9,103z M77.5,31.7
		h13.2v23c-1.2-2.2-2.8-4.2-4.6-5.9v-8.4L77,31.1L77.5,31.7z M72.2,27.4l11.9,12.1H72.2V27.4z M68.8,43.5c13,0,23.5,10.4,23.5,23.2
		c0,5.8-2.1,11-5.6,15.1l6.4,6.3l-4.5,4.4L81.9,86c-3.7,2.5-8.3,4-13.1,4c-13,0-23.5-10.4-23.5-23.2S55.8,43.5,68.8,43.5z
		 M90.7,78.9v4.7l-1.9-1.9C89.5,80.8,90.1,79.8,90.7,78.9z M37.9,54.8c0.4-0.7,0.9-1.4,1.5-1.9c0.6-0.6,1.4-1,2.3-1.3
		c0.9-0.3,1.9-0.5,2.9-0.5c1.1,0,2.3,0.2,3.4,0.6c0.2,0.1,0.4,0.2,0.6,0.2c-0.9,1.2-1.7,2.5-2.4,3.8c-0.5-0.2-1.1-0.2-1.6-0.2
		c-0.6,0-1.1,0.1-1.5,0.3c-0.4,0.2-0.5,0.6-0.5,1c0,0.5,0.3,0.8,0.8,1.1c0.4,0.2,1,0.5,1.7,0.7c-0.6,1.6-1,3.3-1.2,5
		c0,0-0.1,0-0.1-0.1l-2.4-1c-0.5-0.2-1-0.5-1.5-0.8c-0.5-0.3-0.9-0.7-1.3-1.2c-0.4-0.5-0.7-1-0.9-1.6c-0.2-0.6-0.3-1.2-0.3-1.9
		C37.3,56.3,37.5,55.5,37.9,54.8z M36.6,68.6l3-3.6c0.7,0.6,1.5,1,2.3,1.4c0.6,0.3,1.2,0.4,1.8,0.5c0,1.5,0.2,3,0.4,4.5
		c0,0,0,0-0.1,0c-1.2,0-2.5-0.2-3.8-0.7C38.9,70.2,37.7,69.5,36.6,68.6z M39.9,97.2v-4.6h46.2v-0.1l1.3,1.3l0.2,0.2l-1,1l1.2,1.2
		l1,1H39.9z M91.1,97.1L89,95l6.8-6.7l2,2L91.1,97.1z M109,112.8c-1.3,0-2.5-0.5-3.3-1.3L92.2,98.2l6.7-6.7l12.9,12.8
		c1.2,0.9,1.9,2.2,1.9,3.8C113.8,110.7,111.7,112.8,109,112.8z"/>
</g>
</svg>
