<?xml version="1.0" encoding="utf-8"?>
<!-- Generator: Adobe Illustrator 23.0.3, SVG Export Plug-In . SVG Version: 6.00 Build 0)  -->
<svg version="1.1" id="Layer_1" xmlns="http://www.w3.org/2000/svg" xmlns:xlink="http://www.w3.org/1999/xlink" x="0px" y="0px"
	 viewBox="0 0 124.9 124.9" style="enable-background:new 0 0 124.9 124.9;" xml:space="preserve">
<style type="text/css">
	.st0{fill:url(#SVGID_1_);}
	.st1{opacity:0.25;enable-background:new    ;}
	.st2{fill:#FFFFFF;}
</style>
<g>
	
		<linearGradient id="SVGID_1_" gradientUnits="userSpaceOnUse" x1="62.45" y1="1.1" x2="62.45" y2="126" gradientTransform="matrix(1 0 0 -1 0 126)">
		<stop  offset="0" style="stop-color:#C13B11"/>
		<stop  offset="1" style="stop-color:#DB5531"/>
	</linearGradient>
	<path class="st0" d="M110.2,0H14.7C6.6,0,0,6.6,0,14.7v95.5c0,8.1,6.6,14.7,14.7,14.7h95.5c8.1,0,14.7-6.6,14.7-14.7V14.7
		C124.9,6.6,118.3,0,110.2,0z"/>
</g>
<path class="st1" d="M99.9,31.3l-8.4,8.2L70.2,33L51,31.8l-21.6,18l9.8,43.6l31.4,31.4h39.6c8.1,0,14.7-6.6,14.7-14.7V56.3
	L99.9,31.3z"/>
<path class="st2" d="M75.9,89.2l4.7,4.7l8.5-8.5l2.6,2.6L80.6,99.2l-7.3-7.3L75.9,89.2z"/>
<path class="st2" d="M75.2,50.3c0-1.5-0.5-2.6-1.4-3.2c-1-0.6-2.3-0.9-4.1-0.9h-3.1v8.9h3.2C73.4,54.9,75.2,53.4,75.2,50.3z
	 M94.7,80.1c5.5-12.6,5.3-26,5.3-26V31.3c0,0-10.9,0.5-20.9-3.3c-9-3.4-15.5-9.5-16.6-10.6c-1.1,1.1-7.6,7.2-16.6,10.6
	C35.9,31.8,25,31.3,25,31.3v22.8c0,0-0.3,21.2,10.6,35.2c10.8,13.8,26.4,18.1,26.9,18.2c0.2-0.1,3.4-0.9,7.8-3.1
	c3.1,3.1,7.4,5.1,12.2,5.1c9.5,0,17.2-7.7,17.2-17.2c0-4.8-2-9.2-5.2-12.3C94.6,80.1,94.6,80.1,94.7,80.1z M53,70.1h-6.6V40.8H53
	V70.1z M66.5,70.1h-6.6V40.8H70c1.6,0,3.1,0.2,4.5,0.5c1.4,0.3,2.6,0.8,3.7,1.6c1,0.7,1.9,1.7,2.5,2.9c0.6,1.2,0.9,2.7,0.9,4.5
	c0,1.7-0.3,3.2-0.9,4.5c-0.6,1.3-1.4,2.3-2.5,3.1c-1.1,0.8-2.3,1.4-3.6,1.8c-1.4,0.4-2.9,0.6-4.4,0.6h-3.6V70.1z M96.7,92.3
	c0,7.8-6.4,14.2-14.2,14.2s-14.2-6.4-14.2-14.2s6.4-14.2,14.2-14.2S96.7,84.5,96.7,92.3z"/>
</svg>
