<?xml version="1.0" encoding="utf-8"?>
<!-- Generator: Adobe Illustrator 22.0.1, SVG Export Plug-In . SVG Version: 6.00 Build 0)  -->
<svg version="1.1" id="Layer_1" xmlns="http://www.w3.org/2000/svg" xmlns:xlink="http://www.w3.org/1999/xlink" x="0px" y="0px"
	 viewBox="0 0 124.9 124.9" style="enable-background:new 0 0 124.9 124.9;" xml:space="preserve">
<style type="text/css">
	.st0{fill:url(#SVGID_1_);}
	.st1{opacity:0.25;}
	.st2{fill-rule:evenodd;clip-rule:evenodd;fill:#FFFFFF;}
	.st3{fill:url(#SVGID_2_);}
	.st4{fill:url(#SVGID_3_);}
	.st5{fill:url(#SVGID_4_);}
	.st6{fill:#FFFFFF;}
	.st7{fill:url(#SVGID_7_);}
	.st8{fill:url(#SVGID_8_);}
	.st9{fill:none;}
	.st10{fill:url(#SVGID_9_);}
	.st11{fill:url(#SVGID_10_);}
	.st12{fill:url(#SVGID_11_);}
	.st13{fill:url(#SVGID_12_);}
	.st14{fill:url(#SVGID_13_);}
	.st15{fill:url(#SVGID_14_);}
	.st16{fill:url(#SVGID_15_);}
	.st17{fill:url(#SVGID_16_);}
	.st18{fill:url(#SVGID_17_);}
	.st19{fill:url(#SVGID_18_);}
	.st20{fill:url(#SVGID_19_);}
	.st21{fill:url(#SVGID_20_);}
	.st22{fill:#C13B11;}
	.st23{fill:#EF6D25;}
	.st24{fill:#DD813F;}
	.st25{fill:#63C1C1;}
	.st26{fill:#148EAF;}
	.st27{fill:#006382;}
	.st28{fill:#6D6E70;}
	.st29{fill:#68BC49;}
	.st30{fill:url(#SVGID_21_);}
	.st31{fill:url(#SVGID_25_);}
	.st32{fill:url(#SVGID_26_);}
	.st33{fill:url(#SVGID_27_);}
	.st34{fill:url(#SVGID_31_);}
	.st35{fill:url(#SVGID_32_);}
	.st36{fill:url(#SVGID_35_);}
</style>
<g>
	<g>
		<g>
			<g>
				<g>
					<linearGradient id="SVGID_1_" gradientUnits="userSpaceOnUse" x1="62.4408" y1="124.8815" x2="62.4408" y2="0">
						<stop  offset="0" style="stop-color:#63C1C1"/>
						<stop  offset="1" style="stop-color:#8ADBD8"/>
					</linearGradient>
					<path class="st0" d="M110.2,0H14.7C6.6,0,0,6.6,0,14.7v95.5c0,8.1,6.6,14.7,14.7,14.7h95.5c8.1,0,14.7-6.6,14.7-14.7V14.7
						C124.9,6.6,118.3,0,110.2,0z"/>
				</g>
			</g>
		</g>
	</g>
	<path class="st1" d="M79,34.2l-14.4-3.6l-14.5,5.3l-8.3,16.7l-3.4,14v9.7L15.9,97.4L43,124.9h67.1c8.1,0,14.7-6.6,14.7-14.7v-30
		L79,34.2z"/>
	<path class="st6" d="M44.9,53.1c0-5.7,2.3-11.3,6.7-15c2.6-2.2,6.1-3.9,10.6-4c4.5-0.1,8,1.5,10.6,3.7c4.5,3.7,6.8,9.3,6.8,15.1
		v12.9l7,6.8V50.2c0-2-0.3-4-1-5.8c-2.1-5.6-7.9-15.9-23.2-16.9c-0.1,0-0.2,0-0.3,0c-1.6,0.1-14.3,1-20.8,12c-1.4,2.4-2.3,5.2-2.7,8
		c-0.2,1.3-0.3,24.7-0.3,24.7l6.6-6.3V53.1z M62.8,67.9h-1l-0.9,13.5h2.8L62.8,67.9z M109,97.4l-0.4-0.4h0L76.8,65.6L70.1,59h-16
		L29.8,83.5l-13.9,14h0l0,0H109z M48.5,66.6l6.2-6.3h7.1v4.4h1v-4.4h6.8l7.1,7l25.6,28.7H64.2l-0.5-11.6h-2.8l-0.5,11.6H22.6
		L48.5,66.6z"/>
</g>
</svg>
