<?xml version="1.0" encoding="utf-8"?>
<!-- Generator: Adobe Illustrator 22.0.1, SVG Export Plug-In . SVG Version: 6.00 Build 0)  -->
<svg version="1.1" id="Layer_1" xmlns="http://www.w3.org/2000/svg" xmlns:xlink="http://www.w3.org/1999/xlink" x="0px" y="0px"
	 viewBox="0 0 124.9 124.9" style="enable-background:new 0 0 124.9 124.9;" xml:space="preserve">
<style type="text/css">
	.st0{fill:url(#SVGID_1_);}
	.st1{opacity:0.25;}
	.st2{fill-rule:evenodd;clip-rule:evenodd;fill:#FFFFFF;}
	.st3{fill:url(#SVGID_2_);}
	.st4{fill:url(#SVGID_3_);}
	.st5{fill:url(#SVGID_4_);}
	.st6{fill:#FFFFFF;}
	.st7{fill:url(#SVGID_7_);}
	.st8{fill:url(#SVGID_8_);}
	.st9{fill:none;}
	.st10{fill:url(#SVGID_9_);}
	.st11{fill:url(#SVGID_10_);}
	.st12{fill:url(#SVGID_11_);}
	.st13{fill:url(#SVGID_12_);}
	.st14{fill:url(#SVGID_13_);}
	.st15{fill:url(#SVGID_14_);}
	.st16{fill:url(#SVGID_15_);}
	.st17{fill:url(#SVGID_16_);}
	.st18{fill:url(#SVGID_17_);}
	.st19{fill:url(#SVGID_18_);}
	.st20{fill:url(#SVGID_19_);}
	.st21{fill:url(#SVGID_20_);}
	.st22{fill:#C13B11;}
	.st23{fill:#EF6D25;}
	.st24{fill:#DD813F;}
	.st25{fill:#63C1C1;}
	.st26{fill:#148EAF;}
	.st27{fill:#006382;}
	.st28{fill:#6D6E70;}
	.st29{fill:#68BC49;}
	.st30{fill:url(#SVGID_21_);}
	.st31{fill:url(#SVGID_25_);}
	.st32{fill:url(#SVGID_26_);}
	.st33{fill:url(#SVGID_27_);}
	.st34{fill:url(#SVGID_31_);}
	.st35{fill:url(#SVGID_32_);}
	.st36{fill:url(#SVGID_35_);}
</style>
<g>
	<linearGradient id="SVGID_1_" gradientUnits="userSpaceOnUse" x1="62.4408" y1="124.8815" x2="62.4408" y2="0">
		<stop  offset="0" style="stop-color:#C13B11"/>
		<stop  offset="1" style="stop-color:#DB5531"/>
	</linearGradient>
	<path class="st0" d="M110.2,0H14.7C6.6,0,0,6.6,0,14.7v95.5c0,8.1,6.6,14.7,14.7,14.7h95.5c8.1,0,14.7-6.6,14.7-14.7V14.7
		C124.9,6.6,118.3,0,110.2,0z"/>
	<path class="st1" d="M85,39.8l-20.2-4.8H55L37.5,49.4l-2.8,17L40,85.2L80,124.9h30.1c8.1,0,14.7-6.6,14.7-14.7V79.7L85,39.8z"/>
	<path class="st9" d="M110.2,0H14.7C6.6,0,0,6.6,0,14.7v95.5c0,8.1,6.6,14.7,14.7,14.7h95.5c8.1,0,14.7-6.6,14.7-14.7V14.7
		C124.9,6.6,118.3,0,110.2,0z"/>
	<path class="st2" d="M62.4,30.5c-17.6,0-31.9,14.3-31.9,31.9s14.3,31.9,31.9,31.9s31.9-14.3,31.9-31.9S80.1,30.5,62.4,30.5z
		 M86,67.8H67.8v18c0,0.9-0.7,1.6-1.6,1.6h-7.7c-0.9,0-1.6-0.7-1.6-1.6v-18h-18c-0.9,0-1.6-0.7-1.6-1.6v-7.7c0-0.9,0.7-1.6,1.6-1.6
		h18V38.9c0-0.9,0.7-1.6,1.6-1.6h7.7c0.9,0,1.6,0.7,1.6,1.6v18.1H86c0.9,0,1.6,0.7,1.6,1.6v7.7C87.5,67.1,86.8,67.8,86,67.8z"/>
</g>
</svg>
