<?xml version="1.0" encoding="utf-8"?>
<!-- Generator: Adobe Illustrator 22.0.1, SVG Export Plug-In . SVG Version: 6.00 Build 0)  -->
<svg version="1.1" id="Layer_1" xmlns="http://www.w3.org/2000/svg" xmlns:xlink="http://www.w3.org/1999/xlink" x="0px" y="0px"
	 viewBox="0 0 124.9 124.9" style="enable-background:new 0 0 124.9 124.9;" xml:space="preserve">
<style type="text/css">
	.st0{fill:url(#SVGID_1_);}
	.st1{opacity:0.25;enable-background:new    ;}
	.st2{fill:#FFFFFF;}
	.st3{fill:url(#SVGID_2_);}
	.st4{fill:url(#SVGID_3_);}
	.st5{fill:url(#SVGID_4_);}
	.st6{fill:url(#SVGID_5_);}
	.st7{fill:url(#SVGID_6_);}
	.st8{fill:none;}
	.st9{fill:url(#SVGID_7_);}
	.st10{fill:url(#SVGID_8_);}
	.st11{fill:url(#SVGID_9_);}
	.st12{fill:url(#SVGID_10_);}
	.st13{fill:url(#SVGID_11_);}
	.st14{fill:url(#SVGID_12_);}
	.st15{fill:url(#SVGID_13_);}
	.st16{fill:url(#SVGID_14_);}
	.st17{fill:url(#SVGID_15_);}
	.st18{fill:url(#SVGID_16_);}
	.st19{fill:url(#SVGID_17_);}
	.st20{fill:url(#SVGID_18_);}
	.st21{fill:#C13B11;}
	.st22{fill:#EF6D25;}
	.st23{fill:#DD813F;}
	.st24{fill:#63C1C1;}
	.st25{fill:#148EAF;}
	.st26{fill:#006382;}
	.st27{fill:#6D6E70;}
	.st28{fill:#68BC49;}
	.st29{fill:url(#SVGID_19_);}
	.st30{fill:url(#SVGID_20_);}
	.st31{fill:url(#SVGID_21_);}
	.st32{fill:url(#SVGID_23_);}
	.st33{fill:url(#SVGID_24_);}
	.st34{fill:url(#SVGID_25_);}
	.st35{fill:url(#SVGID_26_);}
	.st36{fill:url(#SVGID_27_);}
	.st37{fill:url(#SVGID_29_);}
</style>
<g>
	
		<linearGradient id="SVGID_1_" gradientUnits="userSpaceOnUse" x1="62.45" y1="1.1" x2="62.45" y2="126" gradientTransform="matrix(1 0 0 -1 0 126)">
		<stop  offset="0" style="stop-color:#C13B11"/>
		<stop  offset="1" style="stop-color:#DB5531"/>
	</linearGradient>
	<path class="st0" d="M110.2,0H14.7C6.6,0,0,6.6,0,14.7v95.5c0,8.1,6.6,14.7,14.7,14.7h95.5c8.1,0,14.7-6.6,14.7-14.7V14.7
		C124.9,6.6,118.3,0,110.2,0z"/>
	<path class="st1" d="M85,39.8L64.8,35H55L37.5,49.4l-2.8,17L40,85.2l40,39.7h30.1c8.1,0,14.7-6.6,14.7-14.7V79.7L85,39.8z"/>
	<path class="st8" d="M110.2,0H14.7C6.6,0,0,6.6,0,14.7v95.5c0,8.1,6.6,14.7,14.7,14.7h95.5c8.1,0,14.7-6.6,14.7-14.7V14.7
		C124.9,6.6,118.3,0,110.2,0z"/>
	<path class="st2" d="M62.4,30.5c-17.6,0-31.9,14.3-31.9,31.9s14.3,31.9,31.9,31.9S94.3,80,94.3,62.4S80.1,30.5,62.4,30.5z M86,67.8
		H67.8v18c0,0.9-0.7,1.6-1.6,1.6h-7.7c-0.9,0-1.6-0.7-1.6-1.6v-18h-18c-0.9,0-1.6-0.7-1.6-1.6v-7.7c0-0.9,0.7-1.6,1.6-1.6h18v-18
		c0-0.9,0.7-1.6,1.6-1.6h7.7c0.9,0,1.6,0.7,1.6,1.6V57H86c0.9,0,1.6,0.7,1.6,1.6v7.7C87.5,67.1,86.8,67.8,86,67.8z"/>
	<path class="st2" d="M3,96.9l24.9,24.9h25.3L3,71.6V96.9z M37.3,110.7l-1.7,1.7l-3.1-3.1l-1.2,1.2l2.6,2.6l-1.7,1.7l-2.6-2.6
		l-1.4,1.4l3.2,3.2l-1.7,1.7l-5.4-5.4l7.7-7.7L37.3,110.7z M30.6,104l-1.7,1.7l-2.1-2.1l-6,6l-2.1-2.1l6-6l-2.1-2.1l1.7-1.7
		L30.6,104z M22.7,96.1l-7.7,7.7l-2.1-2.1l7.7-7.7L22.7,96.1z M15.9,89.3l-6,6l3.1,3.1l-1.7,1.7L6,94.8l7.7-7.7L15.9,89.3z"/>
</g>
</svg>
