<?xml version="1.0" encoding="utf-8"?>
<!-- Generator: Adobe Illustrator 22.0.1, SVG Export Plug-In . SVG Version: 6.00 Build 0)  -->
<svg version="1.1" id="Layer_1" xmlns="http://www.w3.org/2000/svg" xmlns:xlink="http://www.w3.org/1999/xlink" x="0px" y="0px"
	 viewBox="0 0 124.9 124.9" style="enable-background:new 0 0 124.9 124.9;" xml:space="preserve">
<style type="text/css">
	.st0{fill:url(#SVGID_1_);}
	.st1{opacity:0.25;}
	.st2{fill-rule:evenodd;clip-rule:evenodd;fill:#FFFFFF;}
	.st3{fill:url(#SVGID_2_);}
	.st4{fill:url(#SVGID_3_);}
	.st5{fill:url(#SVGID_4_);}
	.st6{fill:#FFFFFF;}
	.st7{fill:url(#SVGID_7_);}
	.st8{fill:url(#SVGID_8_);}
	.st9{fill:none;}
	.st10{fill:url(#SVGID_9_);}
	.st11{fill:url(#SVGID_10_);}
	.st12{fill:url(#SVGID_11_);}
	.st13{fill:url(#SVGID_12_);}
	.st14{fill:url(#SVGID_13_);}
	.st15{fill:url(#SVGID_14_);}
	.st16{fill:url(#SVGID_15_);}
	.st17{fill:url(#SVGID_16_);}
	.st18{fill:url(#SVGID_17_);}
	.st19{fill:url(#SVGID_18_);}
	.st20{fill:url(#SVGID_19_);}
	.st21{fill:url(#SVGID_20_);}
	.st22{fill:#C13B11;}
	.st23{fill:#EF6D25;}
	.st24{fill:#DD813F;}
	.st25{fill:#63C1C1;}
	.st26{fill:#148EAF;}
	.st27{fill:#006382;}
	.st28{fill:#6D6E70;}
	.st29{fill:#68BC49;}
	.st30{fill:url(#SVGID_21_);}
	.st31{fill:url(#SVGID_25_);}
	.st32{fill:url(#SVGID_26_);}
	.st33{fill:url(#SVGID_27_);}
	.st34{fill:url(#SVGID_31_);}
	.st35{fill:url(#SVGID_32_);}
	.st36{fill:url(#SVGID_35_);}
</style>
<g>
	<linearGradient id="SVGID_1_" gradientUnits="userSpaceOnUse" x1="62.4408" y1="124.8815" x2="62.4408" y2="0">
		<stop  offset="0" style="stop-color:#DD813F"/>
		<stop  offset="1" style="stop-color:#EA9860"/>
	</linearGradient>
	<path class="st0" d="M110.2,0H14.7C6.6,0,0,6.6,0,14.7v95.5c0,8.1,6.6,14.7,14.7,14.7h95.5c8.1,0,14.7-6.6,14.7-14.7V14.7
		C124.9,6.6,118.3,0,110.2,0z"/>
</g>
<path class="st1" d="M95.5,25.9L43.3,55.4L27.7,69.3l54.8,55.6h27.7c8.1,0,14.7-6.6,14.7-14.7v-55L95.5,25.9z"/>
<path class="st6" d="M46.3,64.3h11V60h-11c-0.2-0.9-0.5-1.8-0.9-2.6l32.8-18.9c1.9,3.2,5.3,5.3,9.3,5.3c6,0,10.8-4.8,10.8-10.8
	c0-6-4.8-10.8-10.8-10.8c-6,0-10.8,4.8-10.8,10.8c0,0.4,0,0.9,0.1,1.3L42.8,54c-1.9-1.6-4.3-2.6-7-2.6c-6,0-10.8,4.8-10.8,10.8
	c0,6,4.8,10.8,10.8,10.8c2.8,0,5.3-1,7.2-2.8l15.4,8.9v-5l-12.8-7.4C45.9,66,46.2,65.2,46.3,64.3z M87.5,49.8
	c-5.4,0-10.2,3.6-11.8,8.6H65.4v7.5h10.3c1.6,5.1,6.4,8.6,11.8,8.6c6.8,0,12.4-5.6,12.4-12.4C99.9,55.3,94.3,49.8,87.5,49.8z
	 M87.5,73c-5.2,0-9.6-3.7-10.6-8.6H67V60h9.9c1-4.9,5.3-8.6,10.6-8.6c6,0,10.8,4.8,10.8,10.8C98.3,68.1,93.5,73,87.5,73z M87.5,77.8
	c-4.1,0-7.9,2-10.2,5.4l-10.6-6.1l-2.4-1.4v8.7l0.8,0.5l10,5.8c0.2,6.6,5.7,12,12.4,12c6.8,0,12.4-5.6,12.4-12.4
	S94.3,77.8,87.5,77.8z M87.5,101c-6,0-10.8-4.8-10.8-10.8c0-0.2,0-0.3,0-0.5l-10.8-6.3v-5l12,6.9c1.8-3.5,5.4-6,9.6-6
	c6,0,10.8,4.8,10.8,10.8S93.5,101,87.5,101z"/>
</svg>
