<?xml version="1.0" encoding="utf-8"?>
<!-- Generator: Adobe Illustrator 22.0.1, SVG Export Plug-In . SVG Version: 6.00 Build 0)  -->
<svg version="1.1" id="Layer_1" xmlns="http://www.w3.org/2000/svg" xmlns:xlink="http://www.w3.org/1999/xlink" x="0px" y="0px"
	 viewBox="0 0 124.9 124.9" style="enable-background:new 0 0 124.9 124.9;" xml:space="preserve">
<style type="text/css">
	.st0{fill:url(#SVGID_1_);}
	.st1{opacity:0.25;enable-background:new    ;}
	.st2{fill:#FFFFFF;}
</style>
<g>
	
		<linearGradient id="SVGID_1_" gradientUnits="userSpaceOnUse" x1="62.45" y1="1.1" x2="62.45" y2="126" gradientTransform="matrix(1 0 0 -1 0 126)">
		<stop  offset="0" style="stop-color:#DD813F"/>
		<stop  offset="1" style="stop-color:#EA9860"/>
	</linearGradient>
	<path class="st0" d="M110.2,0H14.7C6.6,0,0,6.6,0,14.7v95.5c0,8.1,6.6,14.7,14.7,14.7h95.5c8.1,0,14.7-6.6,14.7-14.7V14.7
		C124.9,6.6,118.3,0,110.2,0z"/>
</g>
<path class="st1" d="M124.9,110.2V58.7L95.4,28.6l-10.3,8.8l-20.2,0.5L47.5,59.2l-10.2,4.7l-10,4.2l56.8,56.8h26
	C118.3,124.9,124.9,118.3,124.9,110.2z"/>
<path class="st2" d="M67.6,65.7v2.8l4.6-2.8H81c1.2,3.8,4.7,6.5,8.8,6.5c5.1,0,9.3-4.2,9.3-9.4s-4.2-9.4-9.3-9.4
	c-4.2,0-7.7,2.8-8.9,6.6h-7l-6.4-3.7V60H50.8l7.8-10.7l3.3,2.4l0.7-7.8l3.3-4.6h6.3l9.1,0.2c1.4,3.3,4.7,5.7,8.6,5.7
	c5.1,0,9.3-4.2,9.3-9.3s-4.2-9.3-9.3-9.3c-4.2,0-7.7,2.7-8.9,6.5l-8.7,0.3H64l-5.9,8.3l-6.4,2.8l2.9,2.1l-7.2,10.1H42
	c-1.7-2-4.2-3.3-7.1-3.3c-5.1,0-9.3,4.2-9.3,9.4s4.2,9.4,9.3,9.4c2.9,0,5.4-1.3,7.1-3.4h4.4l6.5,8.4L50,79.4l7.3,3.3l6.7,8.7h8.2
	l8.8,0.3c1.2,3.8,4.7,6.5,8.9,6.5c5.1,0,9.3-4.2,9.3-9.4c0-5.2-4.2-9.4-9.3-9.4c-3.9,0-7.2,2.4-8.6,5.7l-9.1,0.2h-6.3l-5.6-7.1
	l-0.5-6l-2.7,1.9l-6.8-8.6h17.3V65.7z"/>
</svg>
