<?xml version="1.0" encoding="utf-8"?>
<!-- Generator: Adobe Illustrator 22.0.1, SVG Export Plug-In . SVG Version: 6.00 Build 0)  -->
<svg version="1.1" id="Layer_1" xmlns="http://www.w3.org/2000/svg" xmlns:xlink="http://www.w3.org/1999/xlink" x="0px" y="0px"
	 viewBox="0 0 124.9 124.9" style="enable-background:new 0 0 124.9 124.9;" xml:space="preserve">
<style type="text/css">
	.st0{fill:url(#SVGID_1_);}
	.st1{opacity:0.25;}
	.st2{fill-rule:evenodd;clip-rule:evenodd;fill:#FFFFFF;}
	.st3{fill:url(#SVGID_2_);}
	.st4{fill:url(#SVGID_3_);}
	.st5{fill:url(#SVGID_4_);}
	.st6{fill:#FFFFFF;}
	.st7{fill:url(#SVGID_7_);}
	.st8{fill:url(#SVGID_8_);}
	.st9{fill:none;}
	.st10{fill:url(#SVGID_9_);}
	.st11{fill:url(#SVGID_10_);}
	.st12{fill:url(#SVGID_11_);}
	.st13{fill:url(#SVGID_12_);}
	.st14{fill:url(#SVGID_13_);}
	.st15{fill:url(#SVGID_14_);}
	.st16{fill:url(#SVGID_15_);}
	.st17{fill:url(#SVGID_16_);}
	.st18{fill:url(#SVGID_17_);}
	.st19{fill:url(#SVGID_18_);}
	.st20{fill:url(#SVGID_19_);}
	.st21{fill:url(#SVGID_20_);}
	.st22{fill:#C13B11;}
	.st23{fill:#EF6D25;}
	.st24{fill:#DD813F;}
	.st25{fill:#63C1C1;}
	.st26{fill:#148EAF;}
	.st27{fill:#006382;}
	.st28{fill:#6D6E70;}
	.st29{fill:#68BC49;}
	.st30{fill:url(#SVGID_21_);}
	.st31{fill:url(#SVGID_25_);}
	.st32{fill:url(#SVGID_26_);}
	.st33{fill:url(#SVGID_27_);}
	.st34{fill:url(#SVGID_31_);}
	.st35{fill:url(#SVGID_32_);}
	.st36{fill:url(#SVGID_35_);}
</style>
<g>
	<g>
		<linearGradient id="SVGID_1_" gradientUnits="userSpaceOnUse" x1="62.4408" y1="124.8815" x2="62.4408" y2="0">
			<stop  offset="0" style="stop-color:#DD813F"/>
			<stop  offset="1" style="stop-color:#EA9860"/>
		</linearGradient>
		<path class="st0" d="M110.2,0H14.7C6.6,0,0,6.6,0,14.7v95.5c0,8.1,6.6,14.7,14.7,14.7h95.5c8.1,0,14.7-6.6,14.7-14.7V14.7
			C124.9,6.6,118.3,0,110.2,0z"/>
	</g>
	<path class="st1" d="M124.9,110.2v-11l-59-70.5H41.5l-5.3,48.7l14.3,14.3l1.1,3.8L81,124.9h29.2
		C118.3,124.9,124.9,118.3,124.9,110.2z"/>
	<path class="st2" d="M83.6,56.4l5.6,0.2l-8.3-10.1v7.2C80.9,55.2,82.1,56.4,83.6,56.4z M38.4,78.4h9.5V49.2c0-3.1,2.5-5.6,5.5-5.6
		h20.6V41h-8.2c-1.5,0-2.7-1.2-2.7-2.7v-9.7H38.4c-1.5,0-2.7,1.2-2.7,2.7v44.3C35.7,77.2,36.9,78.4,38.4,78.4z M68.6,38.6l5.8,0.2
		l-8.5-10.1v7.2C65.9,37.4,67.1,38.6,68.6,38.6z M53.5,46.5c-1.5,0-2.7,1.2-2.7,2.7v44.3c0,1.5,1.2,2.7,2.7,2.7h33
		c1.5,0,2.7-1.2,2.7-2.7V58.9H81c-1.5,0-2.7-1.2-2.7-2.7v-9.7H53.5z"/>
</g>
</svg>
