<?xml version="1.0" encoding="utf-8"?>
<!-- Generator: Adobe Illustrator 22.0.1, SVG Export Plug-In . SVG Version: 6.00 Build 0)  -->
<svg version="1.1" id="Layer_1" xmlns="http://www.w3.org/2000/svg" xmlns:xlink="http://www.w3.org/1999/xlink" x="0px" y="0px"
	 viewBox="0 0 124.9 124.9" style="enable-background:new 0 0 124.9 124.9;" xml:space="preserve">
<style type="text/css">
	.st0{fill:url(#SVGID_1_);}
	.st1{opacity:0.25;}
	.st2{fill-rule:evenodd;clip-rule:evenodd;fill:#FFFFFF;}
	.st3{fill:url(#SVGID_2_);}
	.st4{fill:url(#SVGID_3_);}
	.st5{fill:url(#SVGID_4_);}
	.st6{fill:#FFFFFF;}
	.st7{fill:url(#SVGID_7_);}
	.st8{fill:url(#SVGID_8_);}
	.st9{fill:none;}
	.st10{fill:url(#SVGID_9_);}
	.st11{fill:url(#SVGID_10_);}
	.st12{fill:url(#SVGID_11_);}
	.st13{fill:url(#SVGID_12_);}
	.st14{fill:url(#SVGID_13_);}
	.st15{fill:url(#SVGID_14_);}
	.st16{fill:url(#SVGID_15_);}
	.st17{fill:url(#SVGID_16_);}
	.st18{fill:url(#SVGID_17_);}
	.st19{fill:url(#SVGID_18_);}
	.st20{fill:url(#SVGID_19_);}
	.st21{fill:url(#SVGID_20_);}
	.st22{fill:#C13B11;}
	.st23{fill:#EF6D25;}
	.st24{fill:#DD813F;}
	.st25{fill:#63C1C1;}
	.st26{fill:#148EAF;}
	.st27{fill:#006382;}
	.st28{fill:#6D6E70;}
	.st29{fill:#68BC49;}
	.st30{fill:url(#SVGID_21_);}
	.st31{fill:url(#SVGID_25_);}
	.st32{fill:url(#SVGID_26_);}
	.st33{fill:url(#SVGID_27_);}
	.st34{fill:url(#SVGID_31_);}
	.st35{fill:url(#SVGID_32_);}
	.st36{fill:url(#SVGID_35_);}
</style>
<g>
	<g>
		<g>
			<g>
				<g>
					<linearGradient id="SVGID_1_" gradientUnits="userSpaceOnUse" x1="62.4408" y1="124.8815" x2="62.4408" y2="0">
						<stop  offset="0" style="stop-color:#EF6D25"/>
						<stop  offset="1" style="stop-color:#F78146"/>
					</linearGradient>
					<path class="st0" d="M110.2,0H14.7C6.6,0,0,6.6,0,14.7v95.5c0,8.1,6.6,14.7,14.7,14.7h95.5c8.1,0,14.7-6.6,14.7-14.7V14.7
						C124.9,6.6,118.3,0,110.2,0z"/>
				</g>
			</g>
		</g>
	</g>
	<path class="st1" d="M101.4,30.2h-76l-2.8,5.6L23.5,87l37.9,37.9h48.9c8.1,0,14.7-6.6,14.7-14.7v-57L101.4,30.2z"/>
	<path class="st6" d="M101.4,30.2c-1-1-2.4-1.6-3.9-1.6H27.4c-1.5,0-2.9,0.6-3.9,1.6c-1,1-1.7,2.4-1.7,3.9v49.1
		c0,1.5,0.7,2.9,1.7,3.9c1,1,2.4,1.6,3.9,1.6h21.8v4.3h-8.1v3.4h42.6v-3.4h-8.8v-4.3h22.6c1.5,0,2.9-0.6,3.9-1.6
		c1-1,1.7-2.4,1.7-3.9V34.1C103.1,32.6,102.4,31.2,101.4,30.2z M99.4,83.2c0,0.5-0.2,0.9-0.5,1.2c-0.3,0.3-0.8,0.6-1.4,0.6H27.4
		c-0.6,0-1.1-0.2-1.4-0.6c-0.3-0.3-0.5-0.8-0.5-1.2V34.1c0-0.5,0.2-0.9,0.5-1.2c0.3-0.3,0.8-0.6,1.4-0.6h70.1c0.6,0,1.1,0.2,1.4,0.6
		c0.3,0.3,0.5,0.8,0.5,1.2V83.2z M31.1,79h62.5V38H31.1V79z M41.1,62.3h11.4l3.1-7.6c0.2-0.6,0.9-1,1.5-0.9c0.7,0,1.2,0.5,1.4,1.2
		l2.9,12l4.9-22.2c0.2-0.7,0.7-1.2,1.5-1.2c0.7,0,1.3,0.5,1.5,1.1L73.6,61L85,61.6c0.8,0,1.5,0.7,1.4,1.6c0,0.8-0.7,1.5-1.6,1.4
		L72.3,64c-0.7,0-1.2-0.5-1.4-1.1l-3-11.3L63,74c-0.2,0.7-0.8,1.2-1.5,1.2c-0.7,0-1.3-0.5-1.5-1.2l-3.3-13.8L55,64.4
		c-0.2,0.6-0.8,0.9-1.4,0.9H41.1c-0.8,0-1.5-0.7-1.5-1.5C39.6,63,40.3,62.3,41.1,62.3z"/>
</g>
</svg>
