<?xml version="1.0" encoding="utf-8"?>
<!-- Generator: Adobe Illustrator 22.0.1, SVG Export Plug-In . SVG Version: 6.00 Build 0)  -->
<svg version="1.1" id="Layer_1" xmlns="http://www.w3.org/2000/svg" xmlns:xlink="http://www.w3.org/1999/xlink" x="0px" y="0px"
	 viewBox="0 0 124.9 124.9" style="enable-background:new 0 0 124.9 124.9;" xml:space="preserve">
<style type="text/css">
	.st0{fill:url(#SVGID_1_);}
	.st1{opacity:0.25;}
	.st2{fill-rule:evenodd;clip-rule:evenodd;fill:#FFFFFF;}
	.st3{fill:url(#SVGID_2_);}
	.st4{fill:url(#SVGID_3_);}
	.st5{fill:url(#SVGID_4_);}
	.st6{fill:#FFFFFF;}
	.st7{fill:url(#SVGID_7_);}
	.st8{fill:url(#SVGID_8_);}
	.st9{fill:none;}
	.st10{fill:url(#SVGID_9_);}
	.st11{fill:url(#SVGID_10_);}
	.st12{fill:url(#SVGID_11_);}
	.st13{fill:url(#SVGID_12_);}
	.st14{fill:url(#SVGID_13_);}
	.st15{fill:url(#SVGID_14_);}
	.st16{fill:url(#SVGID_15_);}
	.st17{fill:url(#SVGID_16_);}
	.st18{fill:url(#SVGID_17_);}
	.st19{fill:url(#SVGID_18_);}
	.st20{fill:url(#SVGID_19_);}
	.st21{fill:url(#SVGID_20_);}
	.st22{fill:#C13B11;}
	.st23{fill:#EF6D25;}
	.st24{fill:#DD813F;}
	.st25{fill:#63C1C1;}
	.st26{fill:#148EAF;}
	.st27{fill:#006382;}
	.st28{fill:#6D6E70;}
	.st29{fill:#68BC49;}
	.st30{fill:url(#SVGID_21_);}
	.st31{fill:url(#SVGID_25_);}
	.st32{fill:url(#SVGID_26_);}
	.st33{fill:url(#SVGID_27_);}
	.st34{fill:url(#SVGID_31_);}
	.st35{fill:url(#SVGID_32_);}
	.st36{fill:url(#SVGID_35_);}
</style>
<g>
	<g>
		<g>
			<g>
				<g>
					<linearGradient id="SVGID_1_" gradientUnits="userSpaceOnUse" x1="62.4408" y1="124.8815" x2="62.4408" y2="0">
						<stop  offset="0" style="stop-color:#EF6D25"/>
						<stop  offset="1" style="stop-color:#F78146"/>
					</linearGradient>
					<path class="st0" d="M110.2,0H14.7C6.6,0,0,6.6,0,14.7v95.5c0,8.1,6.6,14.7,14.7,14.7h95.5c8.1,0,14.7-6.6,14.7-14.7V14.7
						C124.9,6.6,118.3,0,110.2,0z"/>
				</g>
			</g>
		</g>
	</g>
	<path class="st1" d="M70.1,31.7l-13.4-5.1l-13,1.3L32,34l-7.2,16.5l4.6,15.8l58.6,58.6h22.1c8.1,0,14.7-6.6,14.7-14.7V86.6
		L70.1,31.7z"/>
	<path class="st6" d="M80.9,74l-7.7,7.6l2.4,2.4l7.6-7.7L80.9,74z M99.3,92.2L84.5,77.6l-7.6,7.7l15.3,15.2l0,0
		c1,0.9,2.3,1.5,3.8,1.5c3,0,5.4-2.4,5.4-5.4C101.5,94.8,100.6,93.2,99.3,92.2z M53.4,34l-2.4,6.3c4.7,0.4,8.3,4.3,8.3,9
		c0,0.4,0,0.8-0.1,1.2l6.6-3C65,40.8,59.9,35.4,53.4,34z M70.5,66.6c4-4.6,6.4-10.6,6.4-17.2c0-14.6-12-26.5-26.8-26.5
		S23.4,34.8,23.4,49.4s12,26.5,26.8,26.5c5.5,0,10.7-1.7,15-4.5l7.6,7.5l5.1-5.1L70.5,66.6z M50.1,69.6c-11.3,0-20.5-9.1-20.5-20.3
		S38.7,29,50.1,29s20.5,9.1,20.5,20.3S61.4,69.6,50.1,69.6z"/>
</g>
</svg>
