<?xml version="1.0" encoding="utf-8"?>
<!-- Generator: Adobe Illustrator 24.0.0, SVG Export Plug-In . SVG Version: 6.00 Build 0)  -->
<svg version="1.1" id="Layer_1" xmlns="http://www.w3.org/2000/svg" xmlns:xlink="http://www.w3.org/1999/xlink" x="0px" y="0px"
	 viewBox="0 0 124.9 124.9" style="enable-background:new 0 0 124.9 124.9;" xml:space="preserve">
<style type="text/css">
	.st0{fill:url(#SVGID_1_);}
	.st1{opacity:0.25;enable-background:new    ;}
	.st2{fill:#FFFFFF;}
</style>
<g>
	<g>
		<g>
			<g>
				
					<linearGradient id="SVGID_1_" gradientUnits="userSpaceOnUse" x1="62.45" y1="790.9" x2="62.45" y2="666" gradientTransform="matrix(1 0 0 1 0 -666)">
					<stop  offset="0" style="stop-color:#63C1C1"/>
					<stop  offset="1" style="stop-color:#8ADBD8"/>
				</linearGradient>
				<path class="st0" d="M110.2,0H14.7C6.6,0,0,6.6,0,14.7v95.5c0,8.1,6.6,14.7,14.7,14.7h95.5c8.1,0,14.7-6.6,14.7-14.7V14.7
					C124.9,6.6,118.3,0,110.2,0z"/>
			</g>
		</g>
	</g>
</g>
<path class="st1" d="M92.4,34.5l-18.6-9.6l-9.9-1.6H58l-3.3,1.1L46,31.9L35.3,51.8l-2.9,39.5L65.7,125h44.5
	c8.1,0,14.7-6.6,14.7-14.7V67L92.4,34.5z"/>
<g>
	<path class="st2" d="M102,61.3c0,0,1.8-38.4-40.4-38.4C24.2,22.8,23,59.7,23,59.7s-5.5,42.4,39.4,42.4
		C105.5,102.1,102,61.3,102,61.3L102,61.3z M49.8,47.8c7.9-4.9,18.1-1.9,21.9,5.4c0.7,1.4,0.8,3.5,0.4,5c-1.6,5-5.3,7.8-10.4,9
		c1.5-1.3,2.7-2.7,3.1-4.8c0.4-1.9,0-3.9-1.2-5.5c-1.9-2.5-5.2-3.6-8.1-2.5c-3.1,1.2-4.9,4.1-4.5,7.6c0.3,3.3,2.8,5.4,7.4,6.2
		c-0.7,0.4-1.2,0.6-1.8,0.9c-2.1,1.2-4,2.8-5.4,4.7c-0.5,0.6-0.8,0.7-1.5,0.2C40.2,68.4,39.6,54.1,49.8,47.8L49.8,47.8z M42.8,83.1
		c-1.5,0.4-3,0.9-4.5,1.4c0.7-5,6.7-9.7,11.7-9.1c-1.5,2-2.3,4.4-2.4,6.8C45.9,82.5,44.3,82.7,42.8,83.1L42.8,83.1z M74.7,33.7
		c1.5,0.1,3,0,4.4,0.1c0.4,0,0.7,0.1,1.1,0.2c-0.3,0.5-0.7,1-1.1,1.4c-0.5,0.5-1.1,1-1.9,0.2c-0.2-0.2-0.6-0.1-0.9-0.1
		c-1.5,0-3-0.1-4.4,0c-1.3,0-2.6,0.2-3.8,0.4c-0.2,0-0.6,0.8-0.5,1.1c0.3,0.7,0.6,1.4,1.2,1.9c2,1.6,4.2,3.1,6.3,4.7
		c2,1.6,3.9,3.3,5,5.6c1.5,3.1,1.5,6.3,0.9,9.5c-1.1,5.4-3.8,9.8-8.2,13.1c-1.8,1.3-4,2-6,3c-1.8,0.8-3.6,1.5-5.4,2.4
		c-3.2,1.5-5.1,5-4.5,8.6c0.5,3.4,3.4,6.1,6.8,6.7c4,0.7,8.2-1.9,9.2-6c1.1-4.6-1.4-8.7-6.1-10c-0.2-0.1-0.4-0.1-0.8-0.2
		c1.3-0.6,2.3-1,3.3-1.5c1.7-1,3.5-2,5.1-3.1c0.5-0.3,0.8-0.3,1.2,0c3.2,2.8,5.2,6.3,5.7,10.5c0.9,7-2.4,13.5-8.7,16.8
		c-9.7,5.1-21.7-0.7-23.8-11.5c-1.8-9.2,4.7-17.6,12.5-19.3c3.4-0.7,6.5-2.1,8.9-4.7c1.5-1.7,2.3-3.1,2.6-3.8
		c0.5-1.2,0.7-2.5,0.7-3.8c-0.1-1.1-0.3-2.2-0.8-3.3c-0.8-1.9-4-4.8-4.7-5.5l-7.4-5.8c-0.3-0.2-0.6-0.2-1.2-0.2
		c-0.8,0.1-2.7,0.2-3.5-0.1c0.7-0.5,2.5-1.3,3.3-1.9c-2.4-1.6-5.1-1-7.6-1.5c0.6-1.1,3.5-2.7,5.1-2.9c-0.1-0.9-0.2-1.8-0.4-2.7
		c-0.1-0.4-0.5-0.7-0.9-0.9c-0.9-0.5-1.8-0.9-2.8-1.4c0.9-0.6,1.9-0.9,3-0.9c1,0,2,0.1,3,0.3c1.8,0.4,3.2,0.1,4.6-1.1
		c-1.1-0.4-2.2-0.9-3.3-1.3c-1.1-0.5-2.1-1-3.1-1.6c2.8,0.4,5.5,1.4,8.4,1.1c0-0.1,0-0.3,0.1-0.4c-2.1-0.5-4.3-1-6.7-1.6
		c4-0.4,7.7-0.4,11.2,1.3c1,0.5,2,0.9,3,1.4c0.5,0.3,0.8,0.8,1.1,1.2c0.3,0.3,0.5,0.8,0.9,1c1.4,0.7,2.9,0.8,4.5,0.7
		c0-0.2,0-0.3,0-0.5c1.6,0.5,3.4,2.3,3.4,3.6c-2.6,0-5.1,0-7.7,0c-0.3,0-0.5,0.2-0.8,0.3C74.2,33.4,74.4,33.7,74.7,33.7L74.7,33.7z"
		/>
	<path class="st2" d="M71.4,29.9c-0.2,0.1-0.2,0.4-0.1,0.5c0,0,0,0.1,0.1,0.1c0.2,0.3,0.5,0.4,0.8,0.2l0,0c0.2-0.1,0.5-0.3,0.8-0.4
		c-0.2-0.2-0.4-0.4-0.6-0.5C71.9,29.5,71.7,29.7,71.4,29.9L71.4,29.9z"/>
</g>
</svg>
