<?xml version="1.0" encoding="utf-8"?>
<!-- Generator: Adobe Illustrator 24.0.0, SVG Export Plug-In . SVG Version: 6.00 Build 0)  -->
<svg version="1.1" id="Layer_1" xmlns="http://www.w3.org/2000/svg" xmlns:xlink="http://www.w3.org/1999/xlink" x="0px" y="0px"
	 viewBox="0 0 124.9 124.9" style="enable-background:new 0 0 124.9 124.9;" xml:space="preserve">
<style type="text/css">
	.st0{fill:url(#SVGID_1_);}
	.st1{opacity:0.25;enable-background:new    ;}
	.st2{fill:#FFFFFF;}
</style>
<g>
	<g>
		<g>
			<g>
				
					<linearGradient id="SVGID_1_" gradientUnits="userSpaceOnUse" x1="62.45" y1="1.1" x2="62.45" y2="126" gradientTransform="matrix(1 0 0 -1 0 126)">
					<stop  offset="0" style="stop-color:#63C1C1"/>
					<stop  offset="1" style="stop-color:#8ADBD8"/>
				</linearGradient>
				<path class="st0" d="M110.2,0H14.7C6.6,0,0,6.6,0,14.7v95.5c0,8.1,6.6,14.7,14.7,14.7h95.5c8.1,0,14.7-6.6,14.7-14.7V14.7
					C124.9,6.6,118.3,0,110.2,0z"/>
			</g>
		</g>
	</g>
</g>
<path class="st1" d="M98.1,26.2l-7.3,5.5l-60.6-1c0,0,2,57.5,1.9,57.5c-0.1,0,26.7,26.8,36.7,36.7h41.5c8.1,0,14.7-6.6,14.7-14.7V53
	L98.1,26.2z"/>
<path class="st2" d="M41.3,55.4h13.6V41.8H41.3V55.4z M83.6,67.5H70v13.6h13.6V67.5z M62.4,21.4c-20.6,13-35.6,4.8-35.6,4.8
	s0,8,0,18.3v32.4c0,6.1,4.4,11.3,10.1,15.3c0,0,0,0,0.1,0c1.7,1.2,3.6,2.4,5.5,3.4c0,0,0,0,0,0c5,2.7,10.1,4.7,14,6c0,0,0,0,0,0
	c0.9,0.3,1.7,0.6,2.4,0.8c0,0,0,0,0,0c0.5,0.1,0.9,0.3,1.3,0.4c0,0,0,0,0,0c0.2,0.1,0.4,0.1,0.5,0.2c0,0,0,0,0,0
	c0.3,0.1,0.6,0.2,0.9,0.2c0,0,0,0,0,0c0.1,0,0.2,0.1,0.3,0.1c0,0,0,0,0,0c0.1,0,0.2,0,0.2,0.1c0,0,0,0,0,0c0,0,0.1,0,0.1,0
	c0,0,0,0,0,0c0,0,0,0,0,0s0,0,0,0c0,0,0,0,0,0c0,0,0.1,0,0.1,0c0,0,0,0,0,0c0.1,0,0.1,0,0.2-0.1c0,0,0,0,0,0c0.1,0,0.2,0,0.3-0.1
	c0,0,0,0,0,0c0.2-0.1,0.5-0.1,0.9-0.2c0,0,0,0,0,0c0.2,0,0.3-0.1,0.5-0.2c0,0,0,0,0,0c0.4-0.1,0.8-0.2,1.3-0.4c0,0,0,0,0,0
	c0.7-0.2,1.5-0.5,2.4-0.8c0,0,0,0,0,0c3.8-1.3,9-3.3,14-6c0,0,0,0,0,0c1.9-1,3.8-2.2,5.5-3.4c0,0,0,0,0.1,0
	c5.7-4,10.1-9.1,10.1-15.3V44.5c0-10.3,0-18.3,0-18.3S83.1,34.4,62.4,21.4z M36.5,37h23.3v23.3H36.5V37z M59.8,76.3H44.8v6.3
	l-8.4-8.3l8.4-8.4v6.3h14.9V76.3z M88.4,85.9H65.1V62.6h23.3V85.9z M80.1,57v-6.3H65.1v-4.1h14.9v-6.3l8.4,8.3L80.1,57z"/>
</svg>
