<?xml version="1.0" encoding="utf-8"?>
<!-- Generator: Adobe Illustrator 22.0.1, SVG Export Plug-In . SVG Version: 6.00 Build 0)  -->
<svg version="1.1" id="Layer_1" xmlns="http://www.w3.org/2000/svg" xmlns:xlink="http://www.w3.org/1999/xlink" x="0px" y="0px"
	 viewBox="0 0 124.9 124.9" style="enable-background:new 0 0 124.9 124.9;" xml:space="preserve">
<style type="text/css">
	.st0{fill:url(#SVGID_1_);}
	.st1{opacity:0.25;enable-background:new    ;}
	.st2{fill:#FFFFFF;}
</style>
<g>
	<g>
		<g>
			<g>
				<g>
					
						<linearGradient id="SVGID_1_" gradientUnits="userSpaceOnUse" x1="62.45" y1="1.1" x2="62.45" y2="126" gradientTransform="matrix(1 0 0 -1 0 126)">
						<stop  offset="0" style="stop-color:#63C1C1"/>
						<stop  offset="1" style="stop-color:#8ADBD8"/>
					</linearGradient>
					<path class="st0" d="M110.2,0H14.7C6.6,0,0,6.6,0,14.7v95.5c0,8.1,6.6,14.7,14.7,14.7h95.5c8.1,0,14.7-6.6,14.7-14.7V14.7
						C124.9,6.6,118.3,0,110.2,0z"/>
				</g>
			</g>
		</g>
	</g>
	<path class="st1" d="M85.6,36.2L71,28.5H56.6l-9.8,3.4l-7.9,6.4l-8.1,14l-1.5,14.6l1.5,9.6l8.1,11.8l36.6,36.6h34.7
		c8.1,0,14.7-6.6,14.7-14.7v-35L85.6,36.2z"/>
	<path class="st2" d="M96.5,70.4c0-0.2,0.8-4.4,0.8-5.1c0-0.2,0-0.4,0-0.6c0-0.8,0.1-1.5,0.1-2.3l0,0c0-0.6,0-1.2,0-1.8
		c0-0.1,0-0.3,0-0.4c0-0.5-0.1-0.9-0.1-1.4c0-0.1,0-0.2,0-0.3c-0.1-0.5-0.1-1-0.2-1.5v-0.1c-1-6.2-3.6-12-7.6-16.8
		c0-0.1-0.1-0.1-0.1-0.2c-0.3-0.4-0.6-0.7-1-1.1c-0.9-1-1.8-1.9-2.8-2.7c-0.1-0.1-0.3-0.3-0.4-0.4c-0.5-0.4-1-0.9-1.6-1.3
		c-0.1,0-0.1-0.1-0.2-0.1c-0.6-0.4-1.2-0.8-1.8-1.2c-0.2-0.1-0.3-0.2-0.5-0.3c-0.5-0.3-1-0.6-1.5-0.9c-0.1-0.1-0.2-0.1-0.3-0.2l0,0
		c-5-2.8-10.8-4.4-16.9-4.4c-8,0-15.3,2.7-21.2,7.2l0,0c0,0,0,0-0.1,0.1c-0.5,0.4-1.1,0.8-1.6,1.3c-0.1,0.1-0.2,0.2-0.3,0.3
		c-1,0.9-1.9,1.8-2.8,2.7c-0.3,0.4-0.6,0.7-1,1.1c0,0.1-0.1,0.1-0.1,0.2c-4,4.8-6.6,10.6-7.6,16.8c0,0.1,0,0.1,0,0.2
		c-0.1,0.5-0.1,0.9-0.2,1.4c0,0.1,0,0.2,0,0.3c0,0.4-0.1,0.9-0.1,1.3c0,0.2,0,0.3,0,0.5c0,0.5,0,1.1,0,1.6c0,0.1,0,0.1,0,0.2
		c0,0.6,0,1.2,0.1,1.9c0,0.1,0,0.1,0,0.2c0,0.6,0.1,1.1,0.1,1.7v0.1c0.1,0.6,0.1,1.2,0.2,1.7v0.1c0.1,0.6,0.2,1.1,0.3,1.7
		c0,0,0,0,0,0.1l0,0c3.4,15.8,17.4,27.6,34.2,27.6c15.9,0,29.2-10.5,33.5-25l0,0C96,72.3,96.4,70.9,96.5,70.4z M62.4,94.9
		C47,94.9,34,84,30.7,69.5c0.6-0.2,1.1-0.4,1.7-0.8c-0.1-0.4-0.2-0.8-0.3-1.2c0.5-2.2,1.5-4.2,3.1-5.6c0.7-0.7,0-2.8-3.2-3.8
		c0.6-3.9,1.8-7.6,3.8-11c3.8,0.6,8.1-3.6,9.1-6.8c1.4-1,0.6-1.8-0.9-2.5c0.4-0.3,0.7-0.5,1.1-0.8l-1.7-1c5.3-3.8,11.8-6.1,18.9-6.1
		c5.5,0,10.7,1.4,15.2,3.8c-0.7,0.6-1.4,1-2,1.2c-0.3,2.3-3.2,2-4.8,0.1c-0.7,0-1.7,0.2-2.8,0.7c-3.3,1.4-7,4.6-5.6,6.1
		c2.4-1.6,5.1-1,3.2,2.1c-2.6,4.1-4.9-1.5-7.6,0.1c1.3,1.1-3.5,2.8-4.9,2.9c-2.9-0.5,2.5,2.1,0.4,3c-6,1,2.9,4.2,3.1-0.6
		c5.5-3.1,5.7,6.6,11.5,5.3c-1.6-2.3,0.3-5,3.3-5.4c5.4,1.5-3.6,4.1,0.4,4.8c-0.4,2.2-5.5,2.8-7.4,4.8c-6-0.2-8.3-8.9-14.7-4.9
		c-4.4,0.9-6.8,7-5.7,11.1c2,5.7,6.4,6.2,11.5,6.4c4.7,2.4,3.5,11.2,5.3,16.1c1.2,1.2,3.6,3,5.7,4c0.6,0.1,1.6,0.3,2.6,0.6
		c0.1,0,0.2,0,0.2-0.1l1.4-1.2c0.3-0.6,0.4-1.4,0.4-2.4c-0.9-5.1,5.7-15.1,8.2-19.6c3.9-6.4-3.9,0.7-5.7-2.4
		c-1.1-6.7,5.6-0.8,8.6-2.8c2.9,1.8,7.4-1.4,8,3.5c0.5,3,1.4,2.5,2.3,1.2c-0.1,0.5-0.2,1.1-0.4,1.6c0.7-0.1,1.3,0,1.9,0.1
		C90.4,84.4,77.6,94.9,62.4,94.9z"/>
</g>
</svg>
