<?xml version="1.0" encoding="UTF-8" standalone="no"?>
<!-- Created with Inkscape (http://www.inkscape.org/) -->
<svg
   xmlns:dc="http://purl.org/dc/elements/1.1/"
   xmlns:cc="http://web.resource.org/cc/"
   xmlns:rdf="http://www.w3.org/1999/02/22-rdf-syntax-ns#"
   xmlns:svg="http://www.w3.org/2000/svg"
   xmlns="http://www.w3.org/2000/svg"
   xmlns:sodipodi="http://inkscape.sourceforge.net/DTD/sodipodi-0.dtd"
   xmlns:inkscape="http://www.inkscape.org/namespaces/inkscape"
   width="91.000000px"
   height="68.000000px"
   id="svg1446"
   sodipodi:version="0.32"
   inkscape:version="0.40+cvs"
   sodipodi:docbase="C:\00\renderx3"
   sodipodi:docname="logo-renderx.svg">
  <defs
     id="defs3" />
  <sodipodi:namedview
     id="base"
     pagecolor="#ffffff"
     bordercolor="#666666"
     borderopacity="1.0"
     inkscape:pageopacity="0.0"
     inkscape:pageshadow="2"
     inkscape:zoom="4.0000000"
     inkscape:cx="66.650894"
     inkscape:cy="6.8424606"
     inkscape:document-units="px"
     inkscape:current-layer="layer1"
     inkscape:window-width="957"
     inkscape:window-height="749"
     inkscape:window-x="-4"
     inkscape:window-y="-4" />
  <metadata
     id="metadata4">
    <rdf:RDF
       id="RDF5">
      <cc:Work
         rdf:about=""
         id="Work6">
        <dc:format
           id="format7">image/svg+xml</dc:format>
        <dc:type
           id="type9"
           rdf:resource="http://purl.org/dc/dcmitype/StillImage" />
      </cc:Work>
    </rdf:RDF>
  </metadata>
  <g
     inkscape:label="Layer 1"
     inkscape:groupmode="layer"
     id="layer1">
    <g
       style="fill-opacity:1.0000000;fill:#225283"
       transform="matrix(0.364329,0.000000,0.000000,0.364329,-56.60477,-41.64501)"
       id="g1711">
      <path
         d="M 207.21875,266.28913 L 284.45312,266.28913 L 343.89062,211.19538 L 286.79688,163.63288 L 213.79688,163.69538 L 280.60938,213.07038 L 207.21875,266.28913 z "
         id="path756" />
      <path
         d="M 284.62500,266.41413 L 284.39062,266.03913 L 343.60938,211.19538 L 344.00000,211.00788 L 344.06250,211.36725 L 284.62500,266.41413 z "
         id="path757" />
      <path
         d="M 344.00000,211.00788 L 343.60938,211.19538 L 286.73438,163.88288 L 286.79688,163.46100 L 286.90625,163.46100 L 344.00000,211.00788 z "
         id="path758" />
      <path
         d="M 286.79688,163.46100 L 286.73438,163.88288 L 214.42188,163.88288 L 213.68750,163.88288 L 213.79688,163.46100 L 286.79688,163.46100 z "
         id="path759" />
      <path
         d="M 213.68750,163.88288 L 214.42188,163.88288 L 280.71875,212.96100 L 280.71875,213.25788 L 280.26562,213.07038 L 213.68750,163.88288 z "
         id="path760" />
      <path
         d="M 280.26562,213.07038 L 280.71875,213.25788 L 207.84375,266.03913 L 207.21875,266.47663 L 207.10938,266.10163 L 280.26562,213.07038 z "
         id="path761" />
      <path
         d="M 207.21875,266.47663 L 207.84375,266.03913 L 284.39062,266.03913 L 284.62500,266.41413 L 284.45312,266.47663 L 207.21875,266.47663 z "
         id="path762" />
      <path
         d="M 341.73438,293.89850 L 340.46875,291.35163 L 400.25000,291.35163 L 401.50000,293.89850 L 341.73438,293.89850 z "
         id="path765" />
      <path
         d="M 345.23438,300.10163 L 344.00000,297.60163 L 403.78125,297.60163 L 405.00000,300.10163 L 345.23438,300.10163 z "
         id="path766" />
      <path
         d="M 334.70312,281.42975 L 333.45312,278.88288 L 393.21875,278.88288 L 394.46875,281.42975 L 334.70312,281.42975 z "
         id="path767" />
      <path
         d="M 338.54688,287.63288 L 337.29688,285.08600 L 397.01562,285.08600 L 398.26562,287.63288 L 338.54688,287.63288 z "
         id="path768" />
      <path
         d="M 327.71875,268.89850 L 326.50000,266.41413 L 386.26562,266.41413 L 387.48438,268.89850 L 327.71875,268.89850 z "
         id="path769" />
      <path
         d="M 330.96875,275.16413 L 329.71875,272.61725 L 389.48438,272.61725 L 390.73438,275.16413 L 330.96875,275.16413 z "
         id="path770" />
      <path
         d="M 320.40625,256.42975 L 319.18750,253.94538 L 378.90625,253.94538 L 380.12500,256.42975 L 320.40625,256.42975 z "
         id="path771" />
      <path
         d="M 324.21875,262.69538 L 322.96875,260.14850 L 382.73438,260.14850 L 384.00000,262.69538 L 324.21875,262.69538 z "
         id="path772" />
      <path
         d="M 314.34375,243.97663 L 313.10938,241.47663 L 372.00000,241.47663 L 373.21875,243.97663 L 314.34375,243.97663 z "
         id="path773" />
      <path
         d="M 317.31250,250.24225 L 316.04688,247.67975 L 375.82812,247.67975 L 377.07812,250.24225 L 317.31250,250.24225 z "
         id="path774" />
      <path
         d="M 306.14062,231.50788 L 304.92188,229.00788 L 364.68750,229.00788 L 365.90625,231.50788 L 306.14062,231.50788 z "
         id="path775" />
      <path
         d="M 310.00000,237.77350 L 308.75000,235.21100 L 368.51562,235.21100 L 369.78125,237.77350 L 310.00000,237.77350 z "
         id="path776" />
      <path
         d="M 299.51562,219.03913 L 298.26562,216.47663 L 357.98438,216.47663 L 359.23438,219.03913 L 299.51562,219.03913 z "
         id="path777" />
      <path
         d="M 302.75000,225.30475 L 301.50000,222.74225 L 361.26562,222.74225 L 362.53125,225.30475 L 302.75000,225.30475 z "
         id="path778" />
      <path
         d="M 291.79688,206.50788 L 293.04688,203.96100 L 352.82812,203.96100 L 351.56250,206.50788 L 291.79688,206.50788 z "
         id="path779" />
      <path
         d="M 296.00000,212.83600 L 294.75000,210.27350 L 354.53125,210.27350 L 355.78125,212.83600 L 296.00000,212.83600 z "
         id="path780" />
      <path
         d="M 313.76562,175.25788 L 315.03125,172.69538 L 370.34375,172.69538 L 369.07812,175.25788 L 313.76562,175.25788 z "
         id="path784" />
      <path
         d="M 317.21875,168.99225 L 318.48438,166.42975 L 373.73438,166.42975 L 372.48438,168.99225 L 317.21875,168.99225 z "
         id="path785" />
      <path
         d="M 306.98438,187.77350 L 308.20312,185.28913 L 363.45312,185.28913 L 362.23438,187.77350 L 306.98438,187.77350 z "
         id="path786" />
      <path
         d="M 310.53125,181.52350 L 311.78125,178.96100 L 367.04688,178.96100 L 365.78125,181.52350 L 310.53125,181.52350 z "
         id="path787" />
      <path
         d="M 299.87500,200.36725 L 301.14062,197.82038 L 356.39062,197.82038 L 355.14062,200.36725 L 299.87500,200.36725 z "
         id="path788" />
      <path
         d="M 303.45312,194.10163 L 304.70312,191.55475 L 359.96875,191.55475 L 358.70312,194.10163 L 303.45312,194.10163 z "
         id="path789" />
      <path
         d="M 342.16640,122.40497 L 340.93855,124.96695 L 397.01031,124.96695 L 398.22253,122.40497 L 342.16640,122.40497 z "
         id="path1480"
         sodipodi:nodetypes="ccccc" />
      <path
         d="M 345.47753,116.16503 L 344.28024,118.67987 L 400.44884,118.67987 L 401.63050,116.16503 L 345.47753,116.16503 z "
         id="path1481"
         sodipodi:nodetypes="ccccc" />
      <path
         d="M 335.22328,134.94771 L 334.01106,137.50970 L 390.16404,137.50970 L 391.37626,134.94771 L 335.22328,134.94771 z "
         id="path1482"
         sodipodi:nodetypes="ccccc" />
      <path
         d="M 338.68449,128.70777 L 337.47227,131.26977 L 393.86888,131.26977 L 395.08110,128.70777 L 338.68449,128.70777 z "
         id="path1483"
         sodipodi:nodetypes="ccccc" />
      <path
         d="M 328.61848,147.55332 L 327.43659,150.05244 L 383.39589,150.05244 L 384.57779,147.55332 L 328.61848,147.55332 z "
         id="path1484"
         sodipodi:nodetypes="ccccc" />
      <path
         d="M 331.96921,141.25051 L 330.75699,143.81251 L 386.52262,143.81251 L 387.73484,141.25051 L 331.96921,141.25051 z "
         id="path1485"
         sodipodi:nodetypes="ccccc" />
      <path
         d="M 321.68713,160.09607 L 320.50524,162.59518 L 376.22150,162.59518 L 377.40339,160.09607 L 321.68713,160.09607 z "
         id="path1486"
         sodipodi:nodetypes="ccccc" />
      <path
         d="M 325.25787,153.79325 L 324.04565,156.35525 L 379.95760,156.35525 L 381.18544,153.79325 L 325.25787,153.79325 z "
         id="path1487"
         sodipodi:nodetypes="ccccc" />
    </g>
    <path
       id="text1635"
       d="M -0.024625490,3.6798571 L 3.2203920,3.6798571 L 3.2399403,5.4001073 C 3.6178694,4.6963778 4.0739959,4.1946387 4.6083211,3.8948884 C 5.0383776,3.6603191 5.6965030,3.5039328 6.5826992,3.4257292 L 6.5631509,6.8075848 L 5.6248326,6.7489399 C 4.7647017,6.7489470 4.1587051,7.0030747 3.8068409,7.5113235 C 3.5201280,7.9413920 3.3767739,8.5995174 3.3767783,9.4857016 L 3.3767783,13.903617 L -0.024625490,13.903617 L -0.024625490,3.6798571 M 10.021367,9.6029914 C 10.151685,11.062600 10.777230,11.792403 11.898004,11.792401 C 12.653865,11.792403 13.207733,11.440534 13.559609,10.736793 L 16.843723,10.736793 C 16.530940,11.857564 15.951008,12.717688 15.103924,13.317168 C 14.256824,13.903617 13.246829,14.196841 12.073938,14.196841 C 8.4770493,14.196841 6.6786077,12.391883 6.6786080,8.7819629 C 6.6786077,7.1399126 7.1477664,5.8301780 8.0860855,4.8527550 C 9.0244011,3.8753501 10.314587,3.3866432 11.956648,3.3866326 C 13.520505,3.3866432 14.765079,3.8948984 15.690373,4.9113999 C 16.563520,5.8888228 17.000099,7.1790092 17.000109,8.7819629 L 16.961013,9.6029914 L 10.021367,9.6029914 M 13.637802,7.6481616 C 13.481409,6.3449493 12.881928,5.6933400 11.839359,5.6933318 C 11.292001,5.6933400 10.848907,5.8823067 10.510074,6.2602324 C 10.353684,6.4296585 10.223362,6.6381735 10.119108,6.8857780 C 10.027879,7.1203643 9.9822668,7.3744919 9.9822704,7.6481616 L 13.637802,7.6481616 M 17.858707,3.6798571 L 21.064628,3.6798571 L 21.064628,5.2241726 C 21.494686,4.5856042 21.918232,4.1229616 22.335267,3.8362435 C 22.817453,3.5365133 23.416934,3.3866432 24.133711,3.3866326 C 26.531626,3.3866432 27.730587,4.6898617 27.730598,7.2962922 L 27.730598,13.903617 L 24.368290,13.903617 L 24.368290,7.7459031 C 24.368283,6.6251413 23.899124,6.0647573 22.960813,6.0647495 C 22.439520,6.0647573 22.009457,6.2732723 21.670625,6.6902950 C 21.331784,7.1073321 21.162365,7.5830069 21.162370,8.1173207 L 21.162370,13.903617 L 17.858707,13.903617 L 17.858707,3.6798571 M 35.733793,0.10251860 L 39.076552,0.10251860 L 39.076552,13.903617 L 35.851083,13.903617 L 35.851083,12.593881 C 35.551335,13.050009 35.134305,13.434458 34.599992,13.747231 C 34.065666,14.033939 33.544378,14.177293 33.036128,14.177293 C 31.498325,14.177293 30.318912,13.662521 29.497886,12.632978 C 28.755050,11.694661 28.383633,10.430539 28.383633,8.8406078 C 28.383633,7.3940402 28.742018,6.1559826 29.458789,5.1264312 C 30.279816,3.9665754 31.381035,3.3866432 32.762452,3.3866326 C 33.974440,3.3866432 34.964886,3.8753501 35.733793,4.8527550 L 35.733793,0.10251860 M 33.778963,11.557821 C 34.443599,11.557824 34.964886,11.284148 35.342827,10.736793 C 35.642560,10.280669 35.792430,9.6877049 35.792438,8.9578975 C 35.792430,7.1073321 35.127789,6.1820470 33.798511,6.1820392 C 33.133864,6.1820470 32.619093,6.4492068 32.254196,6.9835195 C 31.954452,7.4266207 31.804581,8.0065529 31.804585,8.7233180 C 31.804581,9.4791899 31.941419,10.111251 32.215099,10.619503 C 32.553932,11.245051 33.075219,11.557824 33.778963,11.557821 M 43.238201,9.6029914 C 43.368519,11.062600 43.994064,11.792403 45.114838,11.792401 C 45.870699,11.792403 46.424567,11.440534 46.776443,10.736793 L 50.060557,10.736793 C 49.747774,11.857564 49.167842,12.717688 48.320759,13.317168 C 47.473658,13.903617 46.463664,14.196841 45.290773,14.196841 C 41.693884,14.196841 39.895442,12.391883 39.895442,8.7819629 C 39.895442,7.1399126 40.364601,5.8301780 41.302920,4.8527550 C 42.241235,3.8753501 43.531422,3.3866432 45.173483,3.3866326 C 46.737339,3.3866432 47.981913,3.8948984 48.907208,4.9113999 C 49.780355,5.8888228 50.216933,7.1790092 50.216944,8.7819629 L 50.177847,9.6029914 L 43.238201,9.6029914 M 46.854636,7.6481616 C 46.698243,6.3449493 46.098762,5.6933400 45.056193,5.6933318 C 44.508836,5.6933400 44.065741,5.8823067 43.726909,6.2602324 C 43.570518,6.4296585 43.440196,6.6381735 43.335943,6.8857780 C 43.244714,7.1203643 43.199101,7.3744919 43.199105,7.6481616 L 46.854636,7.6481616 M 51.251476,3.6798571 L 54.496494,3.6798571 L 54.516042,5.4001073 C 54.893971,4.6963778 55.350098,4.1946387 55.884423,3.8948884 C 56.314479,3.6603191 56.972605,3.5039328 57.858801,3.4257292 L 57.839253,6.8075848 L 56.900934,6.7489399 C 56.040803,6.7489470 55.434807,7.0030747 55.082943,7.5113235 C 54.796230,7.9413920 54.652876,8.5995174 54.652880,9.4857016 L 54.652880,13.903617 L 51.251476,13.903617 L 51.251476,3.6798571"
       transform="scale(1.017798,0.982513)" />
  </g>
</svg>
