<?xml version="1.0" encoding="utf-8"?>
<!-- Generator: Adobe Illustrator 22.1.0, SVG Export Plug-In . SVG Version: 6.00 Build 0)  -->
<svg version="1.1" id="Layer_1" xmlns="http://www.w3.org/2000/svg" xmlns:xlink="http://www.w3.org/1999/xlink" x="0px" y="0px"
	 viewBox="0 0 575.8 460.2" style="enable-background:new 0 0 575.8 460.2;" xml:space="preserve" fill="#FFF">
<path d="M456.9,143.3h-338c-14.7,0-26.6,11.9-26.6,26.6v80.9c0,14.7,11.9,26.6,26.6,26.6h338c14.7,0,26.6-11.9,26.6-26.6v-80.9
	C483.5,155.2,471.6,143.3,456.9,143.3z M151.8,244.6c-19.3,0-35-15.7-35-35s15.7-35,35-35s35,15.7,35,35S171.2,244.6,151.8,244.6z
	 M210.9,251.1v-83.4H459v83.4H210.9z"/>
<path d="M563.8,11.3C556.7,4.2,546.8,0,536.1,0H39.7C29,0,19.1,4.2,12,11.3S0,28.3,0,39v342.8c0,10.6,5,20.5,12,27.6
	c7.1,7.1,17,11.3,27.6,11.3h174.4l-77.4,39.5h301.7l-82.3-39.5h180.1c10.6,0,20.5-4.2,27.6-11.3c7.1-7.1,12-17,12-27.6V39
	C575.8,28.3,570.9,18.4,563.8,11.3z M535.5,372.5c0,3.4-1.3,6-3.4,8c-2,2-5.4,4-9.4,4H53c-4,0-7.4-1.3-9.4-4c-2-2-3.4-5.4-3.4-8
	V48.2c0-3.4,1.3-6,3.4-8c2-2,5.4-4,9.4-4h469.8c4,0,7.4,1.3,9.4,4c2,2,3.4,5.4,3.4,8V372.5z"/>
</svg>
