<?xml version="1.0" encoding="utf-8"?>
<!-- Generator: Adobe Illustrator 22.1.0, SVG Export Plug-In . SVG Version: 6.00 Build 0)  -->
<svg version="1.1" id="Layer_1" xmlns="http://www.w3.org/2000/svg" xmlns:xlink="http://www.w3.org/1999/xlink" x="0px" y="0px"
	 viewBox="0 0 575.8 460.2" style="enable-background:new 0 0 575.8 460.2;" xml:space="preserve" fill="#FFF">
<circle cx="142.7" cy="136.2" r="49.1"/>
<circle cx="287.9" cy="136.2" r="49.1"/>
<circle cx="433.1" cy="136.2" r="49.1"/>
<path d="M170.7,333.6h-56.1c-10.6,0-19.3-8.6-19.3-19.3v-92.4c0-10.6,8.6-19.3,19.3-19.3h56.1c10.6,0,19.3,8.6,19.3,19.3v92.4
	C190,324.9,181.4,333.6,170.7,333.6z"/>
<path d="M315.9,333.6h-56.1c-10.6,0-19.3-8.6-19.3-19.3v-92.4c0-10.6,8.6-19.3,19.3-19.3h56.1c10.6,0,19.3,8.6,19.3,19.3v92.4
	C335.2,324.9,326.6,333.6,315.9,333.6z"/>
<path d="M461.1,333.6h-56.1c-10.6,0-19.3-8.6-19.3-19.3v-92.4c0-10.6,8.6-19.3,19.3-19.3h56.1c10.6,0,19.3,8.6,19.3,19.3v92.4
	C480.4,324.9,471.8,333.6,461.1,333.6z"/>
<path d="M563.8,11.3C556.7,4.2,546.8,0,536.1,0H39.7C29,0,19.1,4.2,12,11.3S0,28.3,0,39v342.8c0,10.6,5,20.5,12,27.6
	c7.1,7.1,17,11.3,27.6,11.3h174.4l-77.4,39.5h301.7l-82.3-39.5h180.1c10.6,0,20.5-4.2,27.6-11.3c7.1-7.1,12-17,12-27.6V39
	C575.8,28.3,570.9,18.4,563.8,11.3z M535.5,372.5c0,3.4-1.3,6-3.4,8c-2,2-5.4,4-9.4,4H53c-4,0-7.4-1.3-9.4-4c-2-2-3.4-5.4-3.4-8
	V48.2c0-3.4,1.3-6,3.4-8c2-2,5.4-4,9.4-4h469.8c4,0,7.4,1.3,9.4,4c2,2,3.4,5.4,3.4,8V372.5z"/>
</svg>
